<ttFont>
        <CharString name=".notdef">
          -329 endchar
        </CharString>
        <CharString name=".null">
          -509 endchar
        </CharString>
        <CharString name="A">
          74 6 -21 35 -21 595 57 20 -20 hstemhm
          338 155 hintmask 10011000
          184 671 rmoveto
          -100 -37 -87 -78 -107 vvcurveto
          -23 9 -27 25 vhcurveto
          15 29 29 36 24 20 rrcurveto
          8 vlineto
          -10 15 -4 19 19 vvcurveto
          5 1 7 1 4 vhcurveto
          hintmask 10101000
          29 31 92 4 42 hhcurveto
          -1 -7 -18 -4 -19 -5 -17 -6 rlinecurve
          -198 -579 12 -8 rlineto
          hintmask 01101000
          10 57 71 4 59 hhcurveto
          -4 20 -3 22 20 vvcurveto
          43 5 44 16 65 vhcurveto
          16 4 31 3 22 -1 rrcurveto
          20 23 -2 -4 14 hvcurveto
          -6 -92 -9 -77 -12 -54 rrcurveto
          hintmask 10011000
          6 -5 45 9 80 4 62 2 rlinecurve
          -7 37 -4 92 65 vvcurveto
          167 15 216 19 80 vhcurveto
          -6 5 rlineto
          -7 -41 -63 -4 -57 hhcurveto
          -68 -72 12 8 -36 hvcurveto
          91 -168 rmoveto
          5 25 11 42 14 21 rrcurveto
          hintmask 10101000
          2 4 8 1 7 hhcurveto
          6 9 -1 -2 3 hvcurveto
          3 -37 1 -29 -48 vvcurveto
          -51 -2 -71 -3 -65 vhcurveto
          -6 -14 -22 -2 -21 hhcurveto
          -18 -27 2 5 -13 hvcurveto
          endchar
        </CharString>
        <CharString name="AE">
          223 -15 86 -51 -21 307 63 225 57 20 -20 hstemhm
          324 152 hintmask 10110100
          9 -7 rmoveto
          12 -8 rlineto
          hintmask 01110100
          10 57 71 4 59 hhcurveto
          -4 20 -3 22 20 vvcurveto
          54 10 71 22 117 vhcurveto
          2 16 22 1 15 hhcurveto
          12 16 -1 -2 13 hvcurveto
          -2 -29 -1 -34 -26 vvcurveto
          hintmask 10110100
          -160 45 -69 160 vhcurveto
          84 42 95 93 17 93 -44 -7 -37 -3 -44 -1 -7 -5 rcurveline
          2 -9 1 -14 -8 vvcurveto
          -33 -8 -35 -19 -27 vhcurveto
          -88 -5 98 88 14 1 16 1 17 hvcurveto
          2 11 8 0 13 hhcurveto
          40 34 -4 -6 42 hvcurveto
          3 23 4 39 8 22 -5 6 rcurveline
          -11 -33 -33 -6 -34 hhcurveto
          -18 -18 0 4 -19 hvcurveto
          5 77 7 84 8 55 rrcurveto
          3 15 11 2 18 hhcurveto
          36 27 -6 -15 33 hvcurveto
          4 -29 3 -20 9 -27 rrcurveto
          17 hlineto
          2 49 12 72 33 37 -6 11 rcurveline
          -11 -64 -116 -4 -115 hhcurveto
          hintmask 10101100
          -128 -72 12 8 -36 hvcurveto
          -100 -37 -87 -78 -107 vvcurveto
          -23 9 -27 25 vhcurveto
          15 29 29 36 24 20 rrcurveto
          8 vlineto
          -10 15 -4 19 19 vvcurveto
          5 1 7 1 4 vhcurveto
          hintmask 10110100
          29 31 92 4 42 hhcurveto
          -1 -7 -18 -4 -19 -5 -17 -6 rlinecurve
          92 -203 rmoveto
          -12 -17 1 2 -13 hvcurveto
          28 131 7 31 10 42 11 16 rlinecurve
          1 3 4 1 6 hhcurveto
          4 7 -1 -1 2 hvcurveto
          2 -43 1 -50 -42 vvcurveto
          -28 -1 -28 -1 -30 vhcurveto
          -2 -12 -17 0 -12 hhcurveto
          endchar
        </CharString>
        <CharString name="Aacute">
          74 6 -21 35 -21 595 57 20 -20 96 -21 hstemhm
          338 155 hintmask 10010100
          184 671 rmoveto
          -100 -37 -87 -78 -107 vvcurveto
          -23 9 -27 25 vhcurveto
          15 29 29 36 24 20 rrcurveto
          8 vlineto
          -10 15 -4 19 19 vvcurveto
          5 1 7 1 4 vhcurveto
          hintmask 10100100
          29 31 92 4 42 hhcurveto
          -1 -7 -18 -4 -19 -5 -17 -6 rlinecurve
          -198 -579 12 -8 rlineto
          hintmask 01100100
          10 57 71 4 59 hhcurveto
          -4 20 -3 22 20 vvcurveto
          43 5 44 16 65 vhcurveto
          16 4 31 3 22 -1 rrcurveto
          20 23 -2 -4 14 hvcurveto
          -6 -92 -9 -77 -12 -54 rrcurveto
          hintmask 10010100
          6 -5 45 9 80 4 62 2 rlinecurve
          -7 37 -4 92 65 vvcurveto
          167 15 216 19 80 vhcurveto
          -6 5 rlineto
          -7 -41 -63 -4 -57 hhcurveto
          -68 -72 12 8 -36 hvcurveto
          91 -168 rmoveto
          5 25 11 42 14 21 rrcurveto
          hintmask 10100100
          2 4 8 1 7 hhcurveto
          6 9 -1 -2 3 hvcurveto
          3 -37 1 -29 -48 vvcurveto
          -51 -2 -71 -3 -65 vhcurveto
          -6 -14 -22 -2 -21 hhcurveto
          -18 -27 2 5 -13 hvcurveto
          hintmask 00001000
          365 513 rmoveto
          18 -13 71 -14 14 vhcurveto
          -12 2 -26 0 -16 -1 -39 -69 -95 -49 -70 -37 11 -25 rcurveline
          endchar
        </CharString>
        <CharString name="Acircumflex">
          74 6 -21 35 -21 595 57 20 -20 96 -21 180 -20 hstemhm
          338 155 hintmask 10010010
          184 671 rmoveto
          -100 -37 -87 -78 -107 vvcurveto
          -23 9 -27 25 vhcurveto
          15 29 29 36 24 20 rrcurveto
          8 vlineto
          -10 15 -4 19 19 vvcurveto
          5 1 7 1 4 vhcurveto
          hintmask 10100010
          29 31 92 4 42 hhcurveto
          -1 -7 -18 -4 -19 -5 -17 -6 rlinecurve
          -198 -579 12 -8 rlineto
          hintmask 01100010
          10 57 71 4 59 hhcurveto
          -4 20 -3 22 20 vvcurveto
          43 5 44 16 65 vhcurveto
          16 4 31 3 22 -1 rrcurveto
          20 23 -2 -4 14 hvcurveto
          -6 -92 -9 -77 -12 -54 rrcurveto
          hintmask 10010010
          6 -5 45 9 80 4 62 2 rlinecurve
          -7 37 -4 92 65 vvcurveto
          167 15 216 19 80 vhcurveto
          -6 5 rlineto
          -7 -41 -63 -4 -57 hhcurveto
          -68 -72 12 8 -36 hvcurveto
          91 -168 rmoveto
          5 25 11 42 14 21 rrcurveto
          hintmask 10100010
          2 4 8 1 7 hhcurveto
          6 9 -1 -2 3 hvcurveto
          3 -37 1 -29 -48 vvcurveto
          -51 -2 -71 -3 -65 vhcurveto
          -6 -14 -22 -2 -21 hhcurveto
          -18 -27 2 5 -13 hvcurveto
          hintmask 00001100
          340 437 rmoveto
          11 25 -73 38 -62 51 -39 66 rlinecurve
          -46 hlineto
          -39 -66 -82 -51 -73 -38 11 -25 rcurveline
          186 60 rlineto
          endchar
        </CharString>
        <CharString name="Adieresis">
          74 6 -21 35 -21 595 57 20 -20 82 -21 184 -20 hstemhm
          338 155 hintmask 10010010
          184 671 rmoveto
          -100 -37 -87 -78 -107 vvcurveto
          -23 9 -27 25 vhcurveto
          15 29 29 36 24 20 rrcurveto
          8 vlineto
          -10 15 -4 19 19 vvcurveto
          5 1 7 1 4 vhcurveto
          hintmask 10100010
          29 31 92 4 42 hhcurveto
          -1 -7 -18 -4 -19 -5 -17 -6 rlinecurve
          -198 -579 12 -8 rlineto
          hintmask 01100010
          10 57 71 4 59 hhcurveto
          -4 20 -3 22 20 vvcurveto
          43 5 44 16 65 vhcurveto
          16 4 31 3 22 -1 rrcurveto
          20 23 -2 -4 14 hvcurveto
          -6 -92 -9 -77 -12 -54 rrcurveto
          hintmask 10010010
          6 -5 45 9 80 4 62 2 rlinecurve
          -7 37 -4 92 65 vvcurveto
          167 15 216 19 80 vhcurveto
          -6 5 rlineto
          -7 -41 -63 -4 -57 hhcurveto
          -68 -72 12 8 -36 hvcurveto
          91 -168 rmoveto
          5 25 11 42 14 21 rrcurveto
          hintmask 10100010
          2 4 8 1 7 hhcurveto
          6 9 -1 -2 3 hvcurveto
          3 -37 1 -29 -48 vvcurveto
          -51 -2 -71 -3 -65 vhcurveto
          -6 -14 -22 -2 -21 hhcurveto
          -18 -27 2 5 -13 hvcurveto
          hintmask 00001100
          116 525 rmoveto
          -19 29 -34 38 -24 15 -29 -15 -48 -38 -16 -29 14 -29 33 -52 28 -21 30 21 46 52 19 29 rrcurveto
          221 hmoveto
          -19 29 -34 38 -24 15 -29 -15 -48 -38 -16 -29 14 -29 33 -52 28 -21 30 21 46 52 19 29 rrcurveto
          endchar
        </CharString>
        <CharString name="Agrave">
          74 6 -21 35 -21 595 57 20 -20 96 -21 hstemhm
          338 155 hintmask 10010100
          184 671 rmoveto
          -100 -37 -87 -78 -107 vvcurveto
          -23 9 -27 25 vhcurveto
          15 29 29 36 24 20 rrcurveto
          8 vlineto
          -10 15 -4 19 19 vvcurveto
          5 1 7 1 4 vhcurveto
          hintmask 10100100
          29 31 92 4 42 hhcurveto
          -1 -7 -18 -4 -19 -5 -17 -6 rlinecurve
          -198 -579 12 -8 rlineto
          hintmask 01100100
          10 57 71 4 59 hhcurveto
          -4 20 -3 22 20 vvcurveto
          43 5 44 16 65 vhcurveto
          16 4 31 3 22 -1 rrcurveto
          20 23 -2 -4 14 hvcurveto
          -6 -92 -9 -77 -12 -54 rrcurveto
          hintmask 10010100
          6 -5 45 9 80 4 62 2 rlinecurve
          -7 37 -4 92 65 vvcurveto
          167 15 216 19 80 vhcurveto
          -6 5 rlineto
          -7 -41 -63 -4 -57 hhcurveto
          -68 -72 12 8 -36 hvcurveto
          91 -168 rmoveto
          5 25 11 42 14 21 rrcurveto
          hintmask 10100100
          2 4 8 1 7 hhcurveto
          6 9 -1 -2 3 hvcurveto
          3 -37 1 -29 -48 vvcurveto
          -51 -2 -71 -3 -65 vhcurveto
          -6 -14 -22 -2 -21 hhcurveto
          -18 -27 2 5 -13 hvcurveto
          hintmask 00001000
          178 437 rmoveto
          11 25 -70 37 -95 49 -39 69 rlinecurve
          -16 1 -26 0 -12 -2 rrcurveto
          -14 -14 -13 -71 -18 vvcurveto
          endchar
        </CharString>
        <CharString name="Aring">
          74 6 -21 35 -21 595 57 20 -20 50 47 111 45 hstemhm
          251 65 22 155 -82 63 hintmask 1001000100000000
          184 671 rmoveto
          -100 -37 -87 -78 -107 vvcurveto
          -23 9 -27 25 vhcurveto
          15 29 29 36 24 20 rrcurveto
          8 vlineto
          -10 15 -4 19 19 vvcurveto
          5 1 7 1 4 vhcurveto
          hintmask 1010000100000000
          29 31 92 4 42 hhcurveto
          -1 -7 -18 -4 -19 -5 -17 -6 rlinecurve
          -198 -579 12 -8 rlineto
          hintmask 0110000100000000
          10 57 71 4 59 hhcurveto
          -4 20 -3 22 20 vvcurveto
          43 5 44 16 65 vhcurveto
          16 4 31 3 22 -1 rrcurveto
          20 23 -2 -4 14 hvcurveto
          -6 -92 -9 -77 -12 -54 rrcurveto
          hintmask 1001000100000000
          6 -5 45 9 80 4 62 2 rlinecurve
          -7 37 -4 92 65 vvcurveto
          167 15 216 19 80 vhcurveto
          -6 5 rlineto
          -7 -41 -63 -4 -57 hhcurveto
          -68 -72 12 8 -36 hvcurveto
          91 -168 rmoveto
          5 25 11 42 14 21 rrcurveto
          hintmask 1010000100000000
          2 4 8 1 7 hhcurveto
          6 9 -1 -2 3 hvcurveto
          3 -37 1 -29 -48 vvcurveto
          -51 -2 -71 -3 -65 vhcurveto
          -6 -14 -22 -2 -21 hhcurveto
          -18 -27 2 5 -13 hvcurveto
          hintmask 0000111010000000
          25 483 rmoveto
          -49 47 -22 53 vhcurveto
          65 19 58 46 70 vvcurveto
          49 -38 19 -55 vhcurveto
          -67 -19 -63 -46 -67 vvcurveto
          115 -24 rmoveto
          -30 -20 19 30 20 4 16 10 17 hvcurveto
          6 9 12 3 10 hhcurveto
          30 20 -19 -30 -20 -4 -16 -10 -17 hvcurveto
          -6 -9 -12 -3 -10 hhcurveto
          endchar
        </CharString>
        <CharString name="Atilde">
          74 6 -21 35 -21 595 57 20 -20 80 101 -53 53 48 -20 hstemhm
          338 155 hintmask 10010001
          184 671 rmoveto
          -100 -37 -87 -78 -107 vvcurveto
          -23 9 -27 25 vhcurveto
          15 29 29 36 24 20 rrcurveto
          8 vlineto
          -10 15 -4 19 19 vvcurveto
          5 1 7 1 4 vhcurveto
          hintmask 10100001
          29 31 92 4 42 hhcurveto
          -1 -7 -18 -4 -19 -5 -17 -6 rlinecurve
          -198 -579 12 -8 rlineto
          hintmask 01100001
          10 57 71 4 59 hhcurveto
          -4 20 -3 22 20 vvcurveto
          43 5 44 16 65 vhcurveto
          16 4 31 3 22 -1 rrcurveto
          20 23 -2 -4 14 hvcurveto
          -6 -92 -9 -77 -12 -54 rrcurveto
          hintmask 10010001
          6 -5 45 9 80 4 62 2 rlinecurve
          -7 37 -4 92 65 vvcurveto
          167 15 216 19 80 vhcurveto
          -6 5 rlineto
          -7 -41 -63 -4 -57 hhcurveto
          -68 -72 12 8 -36 hvcurveto
          91 -168 rmoveto
          5 25 11 42 14 21 rrcurveto
          hintmask 10100001
          2 4 8 1 7 hhcurveto
          6 9 -1 -2 3 hvcurveto
          3 -37 1 -29 -48 vvcurveto
          -51 -2 -71 -3 -65 vhcurveto
          -6 -14 -22 -2 -21 hhcurveto
          -18 -27 2 5 -13 hvcurveto
          hintmask 00000110
          -52 455 rmoveto
          23 22 26 12 33 hhcurveto
          hintmask 00001010
          50 83 -48 50 hhcurveto
          56 23 49 48 35 48 -24 17 rcurveline
          -24 -23 -28 -11 -32 hhcurveto
          -52 -57 21 27 -41 hvcurveto
          -66 -21 -71 -50 -35 -48 rrcurveto
          endchar
        </CharString>
        <CharString name="B">
          63 6 -21 355 24 219 -20 30 58 9 -20 hstemhm
          113 146 -146 160 78 167 -136 136 -136 169 hintmask 1111010100000000
          353 651 rmoveto
          hintmask 1110110001000000
          -78 -112 0 9 -46 hvcurveto
          -100 -37 -91 -78 -107 vvcurveto
          -23 9 -26 25 vhcurveto
          15 29 29 36 24 20 rrcurveto
          8 vlineto
          -10 15 -4 19 19 vvcurveto
          5 1 7 1 4 vhcurveto
          26 28 82 6 38 hhcurveto
          -1 -7 -18 -4 -19 -5 -17 -6 rlinecurve
          3 -38 1 -42 -35 vvcurveto
          -112 -6 -123 -12 -112 vhcurveto
          -5 -40 -9 -24 -14 -15 6 -13 rcurveline
          3 15 12 1 16 hhcurveto
          29 58 -11 -7 27 hvcurveto
          32 -8 rlineto
          120 37 169 90 125 vvcurveto
          92 -69 35 -92 vhcurveto
          4 vlineto
          hintmask 1111010100000000
          71 32 57 55 78 vvcurveto
          90 -75 28 -90 vhcurveto
          -47 -58 rmoveto
          43 2 -47 -43 -34 -10 -53 -17 -30 hvcurveto
          -13 -6 -14 -2 -13 -1 -4 -37 rcurveline
          hintmask 1111010010000000
          91 11 -51 -91 -34 -6 -45 -10 -30 hvcurveto
          -11 -14 -25 -5 -17 hhcurveto
          -17 -17 4 9 -15 hvcurveto
          -1 42 -1 33 31 vvcurveto
          hintmask 1111001100000000
          121 5 160 9 114 vhcurveto
          4 9 15 2 9 hhcurveto
          endchar
        </CharString>
        <CharString name="C">
          -43 -115 86 599 -20 101 -20 35 -20 hstemhm
          30 167 hintmask 11101000
          270 -115 rmoveto
          93 48 83 107 20 103 -44 -7 -37 -3 -44 -1 -7 -5 rcurveline
          2 -9 1 -14 -8 vvcurveto
          -38 -8 -53 -19 -34 vhcurveto
          -97 -16 156 97 104 10 148 45 94 hvcurveto
          38 47 -37 -21 28 hvcurveto
          21 -16 5 -29 4 -22 10 -25 rlinecurve
          17 hlineto
          62 19 109 39 52 vhcurveto
          -7 14 rlineto
          -6 -19 -21 0 -19 hhcurveto
          hintmask 11011000
          -31 -44 4 11 -30 hvcurveto
          -185 -105 -94 -168 -209 vvcurveto
          -170 70 -129 170 vhcurveto
          endchar
        </CharString>
        <CharString name="CR">
          -344 endchar
        </CharString>
        <CharString name="Ccedilla">
          -43 -314 -21 59 -20 181 86 -52 -20 671 -20 101 -20 35 -20 hstemhm
          30 167 hintmask 11011101
          202 -201 rmoveto
          41 46 -4 -41 -8 -1 -11 -5 -7 hvcurveto
          -3 -7 -12 -1 -8 hhcurveto
          -32 -25 13 27 -18 hvcurveto
          -5 -2 -8 -18 -19 -38 -11 -16 rlinecurve
          -14 27 42 -11 32 hhcurveto
          48 15 45 37 28 43 rrcurveto
          62 7 -41 36 -62 hhcurveto
          -4 4 18 27 90 50 78 104 20 100 rlinecurve
          -44 -7 -37 -3 -44 -1 -7 -5 rcurveline
          2 -9 1 -14 -8 vvcurveto
          hintmask 11101101
          -38 -8 -53 -19 -34 vhcurveto
          -97 -16 156 97 104 10 148 45 94 hvcurveto
          38 47 -37 -21 28 hvcurveto
          21 -16 5 -29 4 -22 10 -25 rlinecurve
          17 hlineto
          62 19 109 39 52 vhcurveto
          -7 14 rlineto
          -6 -19 -21 0 -19 hhcurveto
          hintmask 11011011
          -31 -44 4 11 -30 hvcurveto
          -185 -105 -94 -168 -209 vvcurveto
          -159 61 -123 146 -15 vhcurveto
          -42 -83 rlineto
          endchar
        </CharString>
        <CharString name="D">
          107 6 -21 598 -20 30 58 9 -20 hstemhm
          113 147 162 164 hintmask 11101100
          338 651 rmoveto
          hintmask 11011100
          -64 -111 0 9 -46 hvcurveto
          -100 -37 -91 -78 -107 vvcurveto
          -23 9 -26 25 vhcurveto
          15 29 29 36 24 20 rrcurveto
          8 vlineto
          -10 15 -4 19 19 vvcurveto
          5 1 7 1 4 vhcurveto
          26 28 82 6 38 hhcurveto
          -1 -7 -18 -4 -19 -5 -17 -6 rlinecurve
          3 -38 1 -42 -35 vvcurveto
          -112 -6 -123 -12 -112 vhcurveto
          -5 -40 -9 -24 -14 -15 6 -13 rcurveline
          3 15 12 1 16 hhcurveto
          28 61 -11 -7 27 hvcurveto
          31 -8 rlineto
          189 51 134 150 195 vvcurveto
          hintmask 11101100
          179 -69 91 -179 vhcurveto
          -31 -578 rmoveto
          -14 -16 2 7 -12 hvcurveto
          -3 30 -2 50 30 vvcurveto
          115 7 165 11 115 vhcurveto
          4 10 17 2 10 hhcurveto
          105 2 -159 -105 -70 -13 -104 -29 -61 hvcurveto
          -16 -18 -31 -5 -24 hhcurveto
          endchar
        </CharString>
        <CharString name="E">
          59 -72 88 551 99 hstemhm
          14 168 -84 84 -84 160 -13 81 64 148 hintmask 11010110
          439 324 rmoveto
          -110 -10 -84 -63 -110 vvcurveto
          -31 4 -32 31 vhcurveto
          15 27 29 32 24 14 rrcurveto
          8 vlineto
          -18 18 -4 19 25 vvcurveto
          8 1 9 2 7 vhcurveto
          1 4 7 1 5 hhcurveto
          41 4 -40 -41 -43 -10 -57 -25 -35 hvcurveto
          -12 -16 -29 -3 -20 hhcurveto
          -74 -34 67 74 117 65 59 117 hvcurveto
          6 38 rlineto
          hintmask 11001010
          -88 13 -24 51 89 vvcurveto
          11 2 19 4 10 vhcurveto
          2 10 9 1 10 hhcurveto
          56 42 -38 -40 39 hvcurveto
          9 hlineto
          10 50 20 49 28 42 rrcurveto
          26 -44 -53 10 -55 hhcurveto
          -96 -28 -91 -83 -60 -79 rrcurveto
          -78 81 -35 77 -15 vhcurveto
          -1 -7 rlineto
          2 -13 -17 3 -15 hhcurveto
          hintmask 11100110
          -110 -23 -86 -80 -114 vvcurveto
          -127 96 -74 152 vhcurveto
          119 42 157 104 126 vvcurveto
          71 -30 36 -69 17 vhcurveto
          endchar
        </CharString>
        <CharString name="Eacute">
          59 -72 88 551 99 81 -21 hstemhm
          14 168 -84 84 -84 160 -13 81 64 148 hintmask 11001011
          439 324 rmoveto
          -110 -10 -84 -63 -110 vvcurveto
          -31 4 -32 31 vhcurveto
          15 27 29 32 24 14 rrcurveto
          8 vlineto
          -18 18 -4 19 25 vvcurveto
          8 1 9 2 7 vhcurveto
          1 4 7 1 5 hhcurveto
          41 4 -40 -41 -43 -10 -57 -25 -35 hvcurveto
          -12 -16 -29 -3 -20 hhcurveto
          -74 -34 67 74 117 65 59 117 hvcurveto
          6 38 rlineto
          hintmask 11000101
          -88 13 -24 51 89 vvcurveto
          11 2 19 4 10 vhcurveto
          2 10 9 1 10 hhcurveto
          56 42 -38 -40 39 hvcurveto
          9 hlineto
          10 50 20 49 28 42 rrcurveto
          26 -44 -53 10 -55 hhcurveto
          -96 -28 -91 -83 -60 -79 rrcurveto
          -78 81 -35 77 -15 vhcurveto
          -1 -7 rlineto
          2 -13 -17 3 -15 hhcurveto
          hintmask 11010011
          -110 -23 -86 -80 -114 vvcurveto
          -127 96 -74 152 vhcurveto
          119 42 157 104 126 vvcurveto
          71 -30 36 -69 17 vhcurveto
          hintmask 00100000
          123 478 rmoveto
          18 -13 71 -14 14 vhcurveto
          -12 2 -26 0 -16 -1 -39 -69 -95 -49 -70 -37 11 -25 rcurveline
          endchar
        </CharString>
        <CharString name="Ecircumflex">
          59 -72 88 551 99 81 -21 180 -20 hstemhm
          14 168 -84 84 -84 160 -13 81 64 148 hintmask 1100010110000000
          439 324 rmoveto
          -110 -10 -84 -63 -110 vvcurveto
          -31 4 -32 31 vhcurveto
          15 27 29 32 24 14 rrcurveto
          8 vlineto
          -18 18 -4 19 25 vvcurveto
          8 1 9 2 7 vhcurveto
          1 4 7 1 5 hhcurveto
          41 4 -40 -41 -43 -10 -57 -25 -35 hvcurveto
          -12 -16 -29 -3 -20 hhcurveto
          -74 -34 67 74 117 65 59 117 hvcurveto
          6 38 rlineto
          hintmask 1100001010000000
          -88 13 -24 51 89 vvcurveto
          11 2 19 4 10 vhcurveto
          2 10 9 1 10 hhcurveto
          56 42 -38 -40 39 hvcurveto
          9 hlineto
          10 50 20 49 28 42 rrcurveto
          26 -44 -53 10 -55 hhcurveto
          -96 -28 -91 -83 -60 -79 rrcurveto
          -78 81 -35 77 -15 vhcurveto
          -1 -7 rlineto
          2 -13 -17 3 -15 hhcurveto
          hintmask 1100100110000000
          -110 -23 -86 -80 -114 vvcurveto
          -127 96 -74 152 vhcurveto
          119 42 157 104 126 vvcurveto
          71 -30 36 -69 17 vhcurveto
          hintmask 0011000000000000
          98 402 rmoveto
          11 25 -73 38 -62 51 -39 66 rlinecurve
          -46 hlineto
          -39 -66 -82 -51 -73 -38 11 -25 rcurveline
          186 60 rlineto
          endchar
        </CharString>
        <CharString name="Edieresis">
          59 -72 88 551 99 67 -21 184 -20 hstemhm
          14 168 -84 84 -84 160 -13 81 64 148 hintmask 1100010110000000
          439 324 rmoveto
          -110 -10 -84 -63 -110 vvcurveto
          -31 4 -32 31 vhcurveto
          15 27 29 32 24 14 rrcurveto
          8 vlineto
          -18 18 -4 19 25 vvcurveto
          8 1 9 2 7 vhcurveto
          1 4 7 1 5 hhcurveto
          41 4 -40 -41 -43 -10 -57 -25 -35 hvcurveto
          -12 -16 -29 -3 -20 hhcurveto
          -74 -34 67 74 117 65 59 117 hvcurveto
          6 38 rlineto
          hintmask 1100001010000000
          -88 13 -24 51 89 vvcurveto
          11 2 19 4 10 vhcurveto
          2 10 9 1 10 hhcurveto
          56 42 -38 -40 39 hvcurveto
          9 hlineto
          10 50 20 49 28 42 rrcurveto
          26 -44 -53 10 -55 hhcurveto
          -96 -28 -91 -83 -60 -79 rrcurveto
          -78 81 -35 77 -15 vhcurveto
          -1 -7 rlineto
          2 -13 -17 3 -15 hhcurveto
          hintmask 1100100110000000
          -110 -23 -86 -80 -114 vvcurveto
          -127 96 -74 152 vhcurveto
          119 42 157 104 126 vvcurveto
          71 -30 36 -69 17 vhcurveto
          hintmask 0011000000000000
          -126 490 rmoveto
          -19 29 -34 38 -24 15 -29 -15 -48 -38 -16 -29 14 -29 33 -52 28 -21 30 21 46 52 19 29 rrcurveto
          221 hmoveto
          -19 29 -34 38 -24 15 -29 -15 -48 -38 -16 -29 14 -29 33 -52 28 -21 30 21 46 52 19 29 rrcurveto
          endchar
        </CharString>
        <CharString name="Egrave">
          59 -72 88 551 99 81 -21 hstemhm
          14 168 -84 84 -84 160 -13 81 64 148 hintmask 11001011
          439 324 rmoveto
          -110 -10 -84 -63 -110 vvcurveto
          -31 4 -32 31 vhcurveto
          15 27 29 32 24 14 rrcurveto
          8 vlineto
          -18 18 -4 19 25 vvcurveto
          8 1 9 2 7 vhcurveto
          1 4 7 1 5 hhcurveto
          41 4 -40 -41 -43 -10 -57 -25 -35 hvcurveto
          -12 -16 -29 -3 -20 hhcurveto
          -74 -34 67 74 117 65 59 117 hvcurveto
          6 38 rlineto
          hintmask 11000101
          -88 13 -24 51 89 vvcurveto
          11 2 19 4 10 vhcurveto
          2 10 9 1 10 hhcurveto
          56 42 -38 -40 39 hvcurveto
          9 hlineto
          10 50 20 49 28 42 rrcurveto
          26 -44 -53 10 -55 hhcurveto
          -96 -28 -91 -83 -60 -79 rrcurveto
          -78 81 -35 77 -15 vhcurveto
          -1 -7 rlineto
          2 -13 -17 3 -15 hhcurveto
          hintmask 11010011
          -110 -23 -86 -80 -114 vvcurveto
          -127 96 -74 152 vhcurveto
          119 42 157 104 126 vvcurveto
          71 -30 36 -69 17 vhcurveto
          hintmask 00100000
          -64 402 rmoveto
          11 25 -70 37 -95 49 -39 69 rlinecurve
          -16 1 -26 0 -12 -2 rrcurveto
          -14 -14 -13 -71 -18 vvcurveto
          endchar
        </CharString>
        <CharString name="Eth">
          93 6 -21 619 58 -11 -20 hstemhm
          99 151 158 164 hintmask 11011000
          34 633 rmoveto
          14 -7 25 -7 18 -3 rrcurveto
          7 -47 1 -62 -50 vvcurveto
          -32 -1 -33 -1 -34 vhcurveto
          -55 hlineto
          -7 -16 -15 -21 -13 -12 8 -6 rcurveline
          81 7 -3 -72 -5 -73 -7 -66 rlinecurve
          -5 -40 -9 -24 -14 -15 6 -13 rcurveline
          3 15 12 1 16 hhcurveto
          28 61 -11 -7 27 hvcurveto
          31 -8 rlineto
          191 51 132 153 197 vvcurveto
          188 -75 88 -188 vhcurveto
          hintmask 10111000
          -86 -102 -11 -86 hhcurveto
          320 -268 rmoveto
          -26 -5 -47 -6 -32 -3 3 81 5 83 6 65 rrcurveto
          hintmask 11011000
          4 10 17 2 10 hhcurveto
          107 0 -163 -107 -70 -13 -109 -29 -61 hvcurveto
          -16 -18 -31 -5 -24 hhcurveto
          -14 -16 2 7 -12 hvcurveto
          -3 30 -2 50 30 vvcurveto
          38 0 46 2 48 vhcurveto
          88 8 7 15 9 17 9 14 rlinecurve
          endchar
        </CharString>
        <CharString name="Euro">
          -94 6 -21 235 33 34 26 225 -20 hstem
          68 155 vstem
          73 245 rmoveto
          -34 -1 -10 -13 -11 -9 -11 -10 rlinecurve
          3 -4 59 5 rlineto
          1 hlineto
          -2 -12 0 -11 -11 vvcurveto
          -114 63 -77 114 -3 vhcurveto
          71 50 44 90 20 85 -24 5 rcurveline
          -17 -44 -26 -50 -34 -33 -42 4 -13 64 -1 63 89 2 rcurveline
          3 10 7 13 7 10 -3 4 rcurveline
          -29 -3 -45 -1 -29 -1 3 33 rcurveline
          93 3 3 10 7 13 7 9 rlinecurve
          -3 4 -29 -3 -45 -1 -29 -1 rlinecurve
          7 49 10 53 10 35 20 -1 33 -28 11 -17 14 -21 rcurveline
          3 -17 3 -16 5 -17 rrcurveto
          18 hlineto
          3 53 13 79 36 40 -6 15 rcurveline
          -3 -8 -11 -1 -10 hhcurveto
          -27 -28 7 8 -25 hvcurveto
          -85 -50 -77 -82 -41 -92 rrcurveto
          -1 hlineto
          -51 -2 -10 -13 -11 -9 -11 -11 rlinecurve
          3 -4 16 2 24 2 28 1 rlinecurve
          -4 -12 -3 -11 -3 -12 rrcurveto
          endchar
        </CharString>
        <CharString name="F">
          -17 6 -21 331 63 192 77 -65 -20 114 -20 hstemhm
          111 143 hintmask 11101100
          333 648 rmoveto
          -66 -84 4 8 -66 hvcurveto
          -100 -37 -91 -78 -107 vvcurveto
          -23 9 -26 25 vhcurveto
          15 29 29 36 24 20 rrcurveto
          8 vlineto
          -10 15 -4 19 19 vvcurveto
          5 1 7 1 4 vhcurveto
          hintmask 11011100
          26 28 82 6 38 hhcurveto
          -1 -7 -18 -4 -19 -5 -17 -6 rlinecurve
          2 -38 0 -41 -36 vvcurveto
          -167 -16 -209 -19 -80 vhcurveto
          6 -5 43 9 71 4 73 2 rlinecurve
          -8 36 -7 99 50 vvcurveto
          40 1 44 2 45 vhcurveto
          2 11 8 0 13 hhcurveto
          40 44 -4 -6 42 hvcurveto
          3 23 4 39 8 22 -5 6 rcurveline
          -11 -33 -43 -6 -34 hhcurveto
          -18 -18 0 4 -19 hvcurveto
          5 77 7 64 8 55 rrcurveto
          hintmask 11101100
          -5 30 30 -3 30 hhcurveto
          18 27 2 7 13 hvcurveto
          3 -34 5 -27 10 -32 rrcurveto
          17 hlineto
          1 62 14 65 35 52 -12 11 rcurveline
          -24 -36 -69 -5 -63 hhcurveto
          endchar
        </CharString>
        <CharString name="G">
          35 -200 85 100 86 499 -20 101 -20 35 -20 hstemhm
          30 167 142 120 hintmask 11110110
          270 -15 rmoveto
          24 13 23 16 22 19 -2 -58 -7 -47 -21 -37 rrcurveto
          -5 -9 -16 -1 -10 hhcurveto
          -25 -24 11 18 -18 hvcurveto
          -8 hlineto
          -19 -32 -32 -26 -34 -17 rrcurveto
          -31 33 -8 31 94 128 82 69 59 vhcurveto
          1 99 6 107 12 99 2 19 5 21 8 18 -10 7 rcurveline
          -68 -33 -87 -3 -61 10 -2 -21 rcurveline
          22 -10 26 -10 23 -6 rrcurveto
          4 -22 2 -23 -22 vvcurveto
          -2 -87 -10 -10 -11 -9 -9 -4 rlinecurve
          -92 -21 111 92 88 20 127 35 81 hvcurveto
          48 52 -33 -25 33 hvcurveto
          21 -16 5 -29 4 -22 10 -25 rlinecurve
          17 hlineto
          62 19 109 39 52 vhcurveto
          -7 14 rlineto
          -6 -19 -21 0 -19 hhcurveto
          hintmask 11101110
          -31 -64 4 11 -30 hvcurveto
          -171 -98 -108 -137 -197 vvcurveto
          -150 90 -99 150 vhcurveto
          endchar
        </CharString>
        <CharString name="H">
          168 6 -21 337 63 198 -20 90 -20 140 85 hstem
          110 152 179 146 vstem
          748 744 rmoveto
          8 hlineto
          19 32 32 26 34 17 rrcurveto
          31 -33 8 -31 -119 -150 -120 -89 -79 vhcurveto
          8 -35 4 -99 -50 vvcurveto
          -22 -1 -24 -1 -25 vhcurveto
          -7 -30 -29 -2 -28 hhcurveto
          -30 -30 3 7 -30 hvcurveto
          6 101 10 102 14 61 -6 5 rcurveline
          -7 -27 -37 -4 -27 hhcurveto
          -19 -40 3 4 -19 hvcurveto
          -100 -37 -91 -78 -107 vvcurveto
          -23 9 -26 25 vhcurveto
          15 29 29 36 24 20 rrcurveto
          8 vlineto
          -10 15 -4 19 19 vvcurveto
          5 1 7 1 4 vhcurveto
          26 28 82 6 38 hhcurveto
          -1 -7 -18 -4 -20 -5 -17 -6 rlinecurve
          1 -35 1 -37 -32 vvcurveto
          -167 -16 -220 -19 -80 vhcurveto
          6 -5 43 9 71 4 73 2 rlinecurve
          -8 36 -7 99 50 vvcurveto
          38 1 55 5 37 vhcurveto
          5 30 32 2 30 hhcurveto
          30 26 -2 -5 30 hvcurveto
          -4 -119 -12 -134 -16 -72 6 -5 rcurveline
          47 9 71 4 69 2 rrcurveto
          -8 37 -3 103 52 vvcurveto
          143 12 175 16 141 vhcurveto
          6 52 8 35 17 29 rrcurveto
          4 11 14 2 10 hhcurveto
          25 24 -11 -18 18 hvcurveto
          endchar
        </CharString>
        <CharString name="I">
          6 -21 598 -20 90 -20 31 -20 hstemhm
          110 143 hintmask 11011000
          292 659 rmoveto
          -6 5 rlineto
          hintmask 11101000
          -7 -27 -37 -4 -27 hhcurveto
          -19 -40 3 4 -19 hvcurveto
          -100 -37 -91 -78 -107 vvcurveto
          -23 9 -26 25 vhcurveto
          15 29 29 36 24 20 rrcurveto
          8 vlineto
          -10 15 -4 19 19 vvcurveto
          5 1 7 1 4 vhcurveto
          26 28 82 6 38 hhcurveto
          -1 -7 -18 -4 -20 -5 -17 -6 rlinecurve
          1 -35 1 -37 -32 vvcurveto
          -167 -16 -220 -19 -80 vhcurveto
          6 -5 43 9 71 4 73 2 rlinecurve
          -8 36 -7 99 50 vvcurveto
          167 20 227 19 80 vhcurveto
          endchar
        </CharString>
        <CharString name="IJ">
          179 -180 -21 207 -21 598 -20 90 -20 31 -20 hstemhm
          110 143 201 143 hintmask 10101010
          636 659 rmoveto
          -6 5 rlineto
          hintmask 10110010
          -7 -27 -37 -4 -27 hhcurveto
          -19 -40 3 4 -19 hvcurveto
          -95 -37 -75 -83 -102 vvcurveto
          -23 9 -26 25 vhcurveto
          15 29 29 36 24 20 rrcurveto
          8 vlineto
          -10 15 -4 19 19 vvcurveto
          5 1 7 1 4 vhcurveto
          26 28 61 6 38 hhcurveto
          -1 -7 -18 -4 -20 -5 -17 -6 rlinecurve
          1 -35 1 -37 -32 vvcurveto
          -95 -5 -114 -6 -94 vhcurveto
          -8 -132 -21 -116 -96 -91 12 -16 rcurveline
          104 49 112 79 71 86 rrcurveto
          -15 58 -5 63 58 vvcurveto
          137 16 227 23 103 vhcurveto
          hintmask 01101100
          -344 hmoveto
          -6 5 rlineto
          hintmask 01110100
          -7 -27 -37 -4 -27 hhcurveto
          -19 -40 3 4 -19 hvcurveto
          -100 -37 -91 -78 -107 vvcurveto
          -23 9 -26 25 vhcurveto
          15 29 29 36 24 20 rrcurveto
          8 vlineto
          -10 15 -4 19 19 vvcurveto
          5 1 7 1 4 vhcurveto
          26 28 82 6 38 hhcurveto
          -1 -7 -18 -4 -20 -5 -17 -6 rlinecurve
          1 -35 1 -37 -32 vvcurveto
          -167 -16 -220 -19 -80 vhcurveto
          6 -5 43 9 71 4 73 2 rlinecurve
          -8 36 -7 99 50 vvcurveto
          167 20 227 19 80 vhcurveto
          endchar
        </CharString>
        <CharString name="Iacute">
          6 -21 598 -20 90 -20 31 -20 103 -21 hstemhm
          110 143 hintmask 11010100
          292 659 rmoveto
          -6 5 rlineto
          hintmask 11100100
          -7 -27 -37 -4 -27 hhcurveto
          -19 -40 3 4 -19 hvcurveto
          -100 -37 -91 -78 -107 vvcurveto
          -23 9 -26 25 vhcurveto
          15 29 29 36 24 20 rrcurveto
          8 vlineto
          -10 15 -4 19 19 vvcurveto
          5 1 7 1 4 vhcurveto
          26 28 82 6 38 hhcurveto
          -1 -7 -18 -4 -20 -5 -17 -6 rlinecurve
          1 -35 1 -37 -32 vvcurveto
          -167 -16 -220 -19 -80 vhcurveto
          6 -5 43 9 71 4 73 2 rlinecurve
          -8 36 -7 99 50 vvcurveto
          167 20 227 19 80 vhcurveto
          hintmask 00001000
          107 143 rmoveto
          18 -13 71 -14 14 vhcurveto
          -12 2 -26 0 -16 -1 -39 -69 -95 -49 -70 -37 11 -25 rcurveline
          endchar
        </CharString>
        <CharString name="Icircumflex">
          6 -21 598 -20 90 -20 31 -20 103 -21 180 -20 hstemhm
          110 143 hintmask 11010010
          292 659 rmoveto
          -6 5 rlineto
          hintmask 11100010
          -7 -27 -37 -4 -27 hhcurveto
          -19 -40 3 4 -19 hvcurveto
          -100 -37 -91 -78 -107 vvcurveto
          -23 9 -26 25 vhcurveto
          15 29 29 36 24 20 rrcurveto
          8 vlineto
          -10 15 -4 19 19 vvcurveto
          5 1 7 1 4 vhcurveto
          26 28 82 6 38 hhcurveto
          -1 -7 -18 -4 -20 -5 -17 -6 rlinecurve
          1 -35 1 -37 -32 vvcurveto
          -167 -16 -220 -19 -80 vhcurveto
          6 -5 43 9 71 4 73 2 rlinecurve
          -8 36 -7 99 50 vvcurveto
          167 20 227 19 80 vhcurveto
          hintmask 00001100
          102 67 rmoveto
          11 25 -73 38 -62 51 -39 66 rlinecurve
          -46 hlineto
          -39 -66 -82 -51 -73 -38 11 -25 rcurveline
          186 60 rlineto
          endchar
        </CharString>
        <CharString name="Idieresis">
          6 -21 598 -20 90 -20 31 -20 89 -21 184 -20 hstemhm
          110 143 hintmask 11010010
          292 659 rmoveto
          -6 5 rlineto
          hintmask 11100010
          -7 -27 -37 -4 -27 hhcurveto
          -19 -40 3 4 -19 hvcurveto
          -100 -37 -91 -78 -107 vvcurveto
          -23 9 -26 25 vhcurveto
          15 29 29 36 24 20 rrcurveto
          8 vlineto
          -10 15 -4 19 19 vvcurveto
          5 1 7 1 4 vhcurveto
          26 28 82 6 38 hhcurveto
          -1 -7 -18 -4 -20 -5 -17 -6 rlinecurve
          1 -35 1 -37 -32 vvcurveto
          -167 -16 -220 -19 -80 vhcurveto
          6 -5 43 9 71 4 73 2 rlinecurve
          -8 36 -7 99 50 vvcurveto
          167 20 227 19 80 vhcurveto
          hintmask 00001100
          -122 155 rmoveto
          -19 29 -34 38 -24 15 -29 -15 -48 -38 -16 -29 14 -29 33 -52 28 -21 30 21 46 52 19 29 rrcurveto
          221 hmoveto
          -19 29 -34 38 -24 15 -29 -15 -48 -38 -16 -29 14 -29 33 -52 28 -21 30 21 46 52 19 29 rrcurveto
          endchar
        </CharString>
        <CharString name="Igrave">
          6 -21 598 -20 90 -20 31 -20 103 -21 hstemhm
          110 143 hintmask 11010100
          292 659 rmoveto
          -6 5 rlineto
          hintmask 11100100
          -7 -27 -37 -4 -27 hhcurveto
          -19 -40 3 4 -19 hvcurveto
          -100 -37 -91 -78 -107 vvcurveto
          -23 9 -26 25 vhcurveto
          15 29 29 36 24 20 rrcurveto
          8 vlineto
          -10 15 -4 19 19 vvcurveto
          5 1 7 1 4 vhcurveto
          26 28 82 6 38 hhcurveto
          -1 -7 -18 -4 -20 -5 -17 -6 rlinecurve
          1 -35 1 -37 -32 vvcurveto
          -167 -16 -220 -19 -80 vhcurveto
          6 -5 43 9 71 4 73 2 rlinecurve
          -8 36 -7 99 50 vvcurveto
          167 20 227 19 80 vhcurveto
          hintmask 00001000
          -40 67 rmoveto
          11 25 -70 37 -95 49 -39 69 rlinecurve
          -16 1 -26 0 -12 -2 rrcurveto
          -14 -14 -13 -71 -18 vvcurveto
          endchar
        </CharString>
        <CharString name="Itilde">
          6 -21 598 -20 90 -20 31 -20 87 101 -53 53 48 -20 hstemhm
          110 143 hintmask 11010001
          292 659 rmoveto
          -6 5 rlineto
          hintmask 11100001
          -7 -27 -37 -4 -27 hhcurveto
          -19 -40 3 4 -19 hvcurveto
          -100 -37 -91 -78 -107 vvcurveto
          -23 9 -26 25 vhcurveto
          15 29 29 36 24 20 rrcurveto
          8 vlineto
          -10 15 -4 19 19 vvcurveto
          5 1 7 1 4 vhcurveto
          26 28 82 6 38 hhcurveto
          -1 -7 -18 -4 -20 -5 -17 -6 rlinecurve
          1 -35 1 -37 -32 vvcurveto
          -167 -16 -220 -19 -80 vhcurveto
          6 -5 43 9 71 4 73 2 rlinecurve
          -8 36 -7 99 50 vvcurveto
          167 20 227 19 80 vhcurveto
          hintmask 00000110
          -290 85 rmoveto
          23 22 26 12 33 hhcurveto
          hintmask 00001010
          50 83 -48 50 hhcurveto
          56 23 49 48 35 48 -24 17 rcurveline
          -24 -23 -28 -11 -32 hhcurveto
          -52 -57 21 27 -41 hvcurveto
          -66 -21 -71 -50 -35 -48 rrcurveto
          endchar
        </CharString>
        <CharString name="J">
          -180 -21 784 -20 90 -20 31 -20 hstemhm
          110 143 hintmask 11011000
          292 659 rmoveto
          -6 5 rlineto
          hintmask 11101000
          -7 -27 -37 -4 -27 hhcurveto
          -19 -40 3 4 -19 hvcurveto
          -100 -37 -91 -78 -107 vvcurveto
          -23 9 -26 25 vhcurveto
          15 29 29 36 24 20 rrcurveto
          8 vlineto
          -10 15 -4 19 19 vvcurveto
          5 1 7 1 4 vhcurveto
          26 28 82 6 38 hhcurveto
          -1 -7 -18 -4 -20 -5 -17 -6 rlinecurve
          1 -35 1 -37 -32 vvcurveto
          -95 -5 -114 -6 -94 vhcurveto
          -8 -132 -21 -116 -96 -91 12 -16 rcurveline
          104 49 112 79 71 86 rrcurveto
          -15 58 -5 63 58 vvcurveto
          137 16 227 23 103 vhcurveto
          endchar
        </CharString>
        <CharString name="Jcircumflex">
          -180 -21 784 -20 90 -20 31 -20 103 -21 180 -20 hstemhm
          110 143 hintmask 11010010
          292 659 rmoveto
          -6 5 rlineto
          hintmask 11100010
          -7 -27 -37 -4 -27 hhcurveto
          -19 -40 3 4 -19 hvcurveto
          -100 -37 -91 -78 -107 vvcurveto
          -23 9 -26 25 vhcurveto
          15 29 29 36 24 20 rrcurveto
          8 vlineto
          -10 15 -4 19 19 vvcurveto
          5 1 7 1 4 vhcurveto
          26 28 82 6 38 hhcurveto
          -1 -7 -18 -4 -20 -5 -17 -6 rlinecurve
          1 -35 1 -37 -32 vvcurveto
          -95 -5 -114 -6 -94 vhcurveto
          -8 -132 -21 -116 -96 -91 12 -16 rcurveline
          104 49 112 79 71 86 rrcurveto
          -15 58 -5 63 58 vvcurveto
          137 16 227 23 103 vhcurveto
          hintmask 00001100
          102 67 rmoveto
          11 25 -73 38 -62 51 -39 66 rlinecurve
          -46 hlineto
          -39 -66 -82 -51 -73 -38 11 -25 rcurveline
          186 60 rlineto
          endchar
        </CharString>
        <CharString name="K">
          89 -125 75 56 -21 598 -20 88 -20 22 -20 31 -20 hstemhm
          110 146 hintmask 11110010
          397 11 rmoveto
          -58 92 181 -78 120 hhcurveto
          31 33 8 31 hvcurveto
          -33 13 -40 29 -20 29 rrcurveto
          -8 hlineto
          -23 -17 -24 -12 -28 hhcurveto
          -11 -13 2 4 -11 hvcurveto
          -55 45 -55 101 -38 71 -29 53 -37 78 -36 81 81 71 75 102 35 102 rrcurveto
          -7 -58 -69 -2 -63 hhcurveto
          -7 -5 rlineto
          1 -12 1 -7 -11 vvcurveto
          -77 -25 -73 -51 -58 vhcurveto
          -63 -73 7 133 15 133 14 58 rlinecurve
          hintmask 11100110
          -6 5 rlineto
          hintmask 11101010
          -7 -27 -37 -4 -27 hhcurveto
          -19 -40 3 4 -19 hvcurveto
          -100 -37 -91 -78 -107 vvcurveto
          -23 9 -26 25 vhcurveto
          15 29 29 36 24 20 rrcurveto
          8 vlineto
          -10 15 -4 19 19 vvcurveto
          5 1 7 1 4 vhcurveto
          26 28 82 6 38 hhcurveto
          -1 -7 -18 -4 -20 -5 -17 -6 rlinecurve
          1 -35 1 -37 -32 vvcurveto
          -167 -16 -220 -19 -80 vhcurveto
          6 -5 43 9 71 4 73 2 rlinecurve
          -8 36 -7 99 50 vvcurveto
          30 0 32 1 32 vhcurveto
          35 26 65 -122 30 -111 13 -61 rlinecurve
          endchar
        </CharString>
        <CharString name="L">
          12 0 62 -56 -21 598 -20 90 -20 31 -20 hstemhm
          110 143 hintmask 10101100
          292 659 rmoveto
          -6 5 rlineto
          hintmask 01110100
          -7 -27 -37 -4 -27 hhcurveto
          -19 -40 3 4 -19 hvcurveto
          -100 -37 -91 -78 -107 vvcurveto
          -23 9 -26 25 vhcurveto
          15 29 29 36 24 20 rrcurveto
          8 vlineto
          -10 15 -4 19 19 vvcurveto
          5 1 7 1 4 vhcurveto
          26 28 82 6 38 hhcurveto
          -1 -7 -18 -4 -20 -5 -17 -6 rlinecurve
          1 -35 1 -37 -32 vvcurveto
          -167 -16 -220 -19 -80 vhcurveto
          6 -5 rlineto
          hintmask 10101100
          9 43 71 6 63 hhcurveto
          hintmask 01101100
          40 35 -5 -10 28 hvcurveto
          90 37 77 98 97 vvcurveto
          23 -9 27 -25 vhcurveto
          -15 -29 -29 -36 -24 -20 rrcurveto
          -8 vlineto
          10 -15 4 -19 -19 vvcurveto
          -5 -1 -7 -1 -4 vhcurveto
          hintmask 10101100
          -30 -27 -52 -13 -51 hhcurveto
          -18 -19 2 2 -10 hvcurveto
          -5 35 -3 49 45 vvcurveto
          167 20 217 19 80 vhcurveto
          endchar
        </CharString>
        <CharString name="Ldotaccent">
          -65 0 62 -56 -21 304 -21 184 -20 151 -20 90 -20 31 -20 hstemhm
          110 143 hintmask 10001011
          292 659 rmoveto
          -6 5 rlineto
          hintmask 01001101
          -7 -27 -37 -4 -27 hhcurveto
          -19 -40 3 4 -19 hvcurveto
          -100 -37 -91 -78 -107 vvcurveto
          -23 9 -26 25 vhcurveto
          15 29 29 36 24 20 rrcurveto
          8 vlineto
          -10 15 -4 19 19 vvcurveto
          5 1 7 1 4 vhcurveto
          26 28 82 6 38 hhcurveto
          -1 -7 -18 -4 -20 -5 -17 -6 rlinecurve
          1 -35 1 -37 -32 vvcurveto
          -167 -16 -220 -19 -80 vhcurveto
          6 -5 rlineto
          hintmask 10001011
          9 43 71 6 63 hhcurveto
          hintmask 01001011
          40 35 -5 -10 28 hvcurveto
          90 37 77 98 97 vvcurveto
          23 -9 27 -25 vhcurveto
          -15 -29 -29 -36 -24 -20 rrcurveto
          -8 vlineto
          10 -15 4 -19 -19 vvcurveto
          -5 -1 -7 -1 -4 vhcurveto
          hintmask 10001011
          -30 -27 -52 -13 -51 hhcurveto
          -18 -19 2 2 -10 hvcurveto
          -5 35 -3 49 45 vvcurveto
          167 20 217 19 80 vhcurveto
          hintmask 00110000
          174 -289 rmoveto
          -19 29 -34 38 -24 15 -29 -15 -48 -38 -16 -29 14 -29 33 -52 28 -21 30 21 46 52 19 29 rrcurveto
          endchar
        </CharString>
        <CharString name="Lslash">
          -65 0 62 -56 -21 297 -21 201 -20 141 -20 90 -20 31 -20 hstemhm
          110 143 hintmask 10111011
          292 659 rmoveto
          -6 5 rlineto
          hintmask 01111101
          -7 -27 -37 -4 -27 hhcurveto
          -19 -40 3 4 -19 hvcurveto
          -100 -37 -91 -78 -107 vvcurveto
          -23 9 -26 25 vhcurveto
          15 29 29 36 24 20 rrcurveto
          8 vlineto
          -10 15 -4 19 19 vvcurveto
          5 1 7 1 4 vhcurveto
          26 28 82 6 38 hhcurveto
          -1 -7 -18 -4 -20 -5 -17 -6 rlinecurve
          1 -35 1 -37 -32 vvcurveto
          -38 -1 -40 -2 -41 vhcurveto
          -24 -11 -21 -8 -14 -6 rrcurveto
          -15 -5 -20 -5 -13 vhcurveto
          9 -4 58 28 -6 -124 -11 -120 -13 -55 rlinecurve
          6 -5 rlineto
          hintmask 10111011
          9 43 71 6 63 hhcurveto
          hintmask 01111011
          40 35 -5 -10 28 hvcurveto
          90 37 77 98 97 vvcurveto
          23 -9 27 -25 vhcurveto
          -15 -29 -29 -36 -24 -20 rrcurveto
          -8 vlineto
          10 -15 4 -19 -19 vvcurveto
          -5 -1 -7 -1 -4 vhcurveto
          hintmask 10111011
          -30 -27 -52 -13 -51 hhcurveto
          -18 -19 2 2 -10 hvcurveto
          -5 35 -3 49 45 vvcurveto
          53 2 58 3 57 vhcurveto
          110 53 rlineto
          -3 13 -1 17 13 vvcurveto
          -7 3 -96 -50 8 104 12 95 11 48 rlinecurve
          endchar
        </CharString>
        <CharString name="M">
          232 6 -21 598 -20 88 -20 22 -20 33 -20 hstemhm
          264 147 101 144 hintmask 11001110
          323 661 rmoveto
          -5 5 rlineto
          hintmask 11010110
          -9 -26 -45 -4 -27 hhcurveto
          -31 -40 3 4 -19 hvcurveto
          -100 -37 -91 -78 -107 vvcurveto
          -23 9 -26 25 vhcurveto
          15 29 29 36 24 20 rrcurveto
          8 vlineto
          -10 15 -4 19 19 vvcurveto
          5 1 7 1 4 vhcurveto
          26 28 82 6 42 hhcurveto
          -1 -7 -18 -4 -20 -5 -17 -6 rlinecurve
          -22 -162 -64 -294 -38 -114 6 -5 rcurveline
          34 8 67 5 36 1 1 108 8 164 37 223 4 1 rcurveline
          1 vlineto
          38 -144 32 -150 -83 vvcurveto
          -12 -1 -10 -1 -11 vhcurveto
          12 -8 27 17 79 16 31 10 rlinecurve
          67 3 58 83 256 vhcurveto
          4 hlineto
          8 -68 3 -32 -79 vvcurveto
          -123 -9 -136 -14 -75 vhcurveto
          7 -5 34 8 111 5 36 2 rlinecurve
          -11 46 -10 116 113 vvcurveto
          136 5 159 17 90 vhcurveto
          -7 5 rlineto
          hintmask 11100110
          -8 -27 -78 -6 -28 hhcurveto
          -13 -55 1 2 -13 hvcurveto
          -3 -7 rlineto
          2 -4 1 -6 -7 vvcurveto
          -11 -2 -10 -4 -13 vhcurveto
          -65 -224 -6 -22 -5 -27 4 -32 rlinecurve
          -7 -2 -21 98 rlineto
          -20 92 -14 104 31 vvcurveto
          14 2 19 4 14 vhcurveto
          endchar
        </CharString>
        <CharString name="N">
          132 6 -21 598 -20 90 -20 33 -20 hstemhm
          110 70 318 68 hintmask 11101100
          307 659 rmoveto
          -6 5 rlineto
          -7 -27 -38 -4 -34 hhcurveto
          -26 -40 3 4 -19 hvcurveto
          -100 -37 -91 -78 -107 vvcurveto
          -23 9 -26 25 vhcurveto
          15 29 29 36 24 20 rrcurveto
          8 vlineto
          -10 15 -4 19 19 vvcurveto
          5 1 7 1 4 vhcurveto
          26 28 82 6 38 hhcurveto
          -1 -7 -18 -4 -20 -5 -17 -6 rlinecurve
          1 -35 1 -37 -32 vvcurveto
          -167 -15 -220 -19 -80 vhcurveto
          6 -5 35 9 53 4 36 2 rlinecurve
          -8 37 -18 179 267 vvcurveto
          4 2 15 -20 16 -32 12 -26 rlinecurve
          64 -139 65 -167 32 -111 7 -3 rcurveline
          21 6 144 5 21 2 rrcurveto
          -8 47 -7 87 72 vvcurveto
          172 17 203 19 80 vhcurveto
          hintmask 11011100
          -6 5 -34 -9 -54 -4 -36 -2 rlinecurve
          8 -37 18 -167 -267 vvcurveto
          -3 -1 -34 60 -64 112 -68 196 -22 112 rlinecurve
          endchar
        </CharString>
        <CharString name="Nacute">
          115 6 -21 598 -20 90 -20 33 -20 101 -21 hstemhm
          93 70 318 68 hintmask 11100110
          290 659 rmoveto
          -6 5 rlineto
          -7 -27 -38 -4 -34 hhcurveto
          -26 -40 3 4 -19 hvcurveto
          -100 -37 -91 -78 -107 vvcurveto
          -23 9 -26 25 vhcurveto
          15 29 29 36 24 20 rrcurveto
          8 vlineto
          -10 15 -4 19 19 vvcurveto
          5 1 7 1 4 vhcurveto
          26 28 82 6 38 hhcurveto
          -1 -7 -18 -4 -20 -5 -17 -6 rlinecurve
          1 -35 1 -37 -32 vvcurveto
          -167 -15 -220 -19 -80 vhcurveto
          6 -5 35 9 53 4 36 2 rlinecurve
          -8 37 -18 179 267 vvcurveto
          4 2 15 -20 16 -32 12 -26 rlinecurve
          64 -139 65 -167 32 -111 7 -3 rcurveline
          21 6 144 5 21 2 rrcurveto
          -8 47 -7 87 72 vvcurveto
          172 17 203 19 80 vhcurveto
          hintmask 11010110
          -6 5 -34 -9 -54 -4 -36 -2 rlinecurve
          8 -37 18 -167 -267 vvcurveto
          -3 -1 -34 60 -64 112 -68 196 -22 112 rlinecurve
          hintmask 00001000
          290 143 rmoveto
          18 -13 71 -14 14 vhcurveto
          -12 2 -26 0 -16 -1 -39 -69 -95 -49 -70 -37 11 -25 rcurveline
          endchar
        </CharString>
        <CharString name="Ntilde">
          115 6 -21 598 -20 90 -20 33 -20 85 101 -53 53 48 -20 hstemhm
          93 70 318 68 hintmask 1110000110000000
          290 659 rmoveto
          -6 5 rlineto
          -7 -27 -38 -4 -34 hhcurveto
          -26 -40 3 4 -19 hvcurveto
          -100 -37 -91 -78 -107 vvcurveto
          -23 9 -26 25 vhcurveto
          15 29 29 36 24 20 rrcurveto
          8 vlineto
          -10 15 -4 19 19 vvcurveto
          5 1 7 1 4 vhcurveto
          26 28 82 6 38 hhcurveto
          -1 -7 -18 -4 -20 -5 -17 -6 rlinecurve
          1 -35 1 -37 -32 vvcurveto
          -167 -15 -220 -19 -80 vhcurveto
          6 -5 35 9 53 4 36 2 rlinecurve
          -8 37 -18 179 267 vvcurveto
          4 2 15 -20 16 -32 12 -26 rlinecurve
          64 -139 65 -167 32 -111 7 -3 rcurveline
          21 6 144 5 21 2 rrcurveto
          -8 47 -7 87 72 vvcurveto
          172 17 203 19 80 vhcurveto
          hintmask 1101000110000000
          -6 5 -34 -9 -54 -4 -36 -2 rlinecurve
          8 -37 18 -167 -267 vvcurveto
          -3 -1 -34 60 -64 112 -68 196 -22 112 rlinecurve
          hintmask 0000011000000000
          -127 85 rmoveto
          23 22 26 12 33 hhcurveto
          hintmask 0000101000000000
          50 83 -48 50 hhcurveto
          56 23 49 48 35 48 -24 17 rcurveline
          -24 -23 -28 -11 -32 hhcurveto
          -52 -57 21 27 -41 hvcurveto
          -66 -21 -71 -50 -35 -48 rrcurveto
          endchar
        </CharString>
        <CharString name="O">
          79 -15 83 514 84 hstemhm
          30 90 -90 167 -60 78 64 82 30 167 hintmask 11101110
          198 282 rmoveto
          96 21 67 63 98 vvcurveto
          29 -7 31 -29 vhcurveto
          -16 -29 -24 -25 -28 -19 rrcurveto
          -8 vlineto
          18 -18 4 -19 -25 vvcurveto
          -8 -1 -9 -2 -7 vhcurveto
          -1 -4 -7 -1 -5 hhcurveto
          -41 -4 40 41 43 10 57 25 35 hvcurveto
          8 14 20 3 16 hhcurveto
          72 19 -84 -102 -88 -15 -150 -39 -79 hvcurveto
          -8 -14 -19 -3 -16 hhcurveto
          hintmask 11010110
          -66 -25 95 92 hvcurveto
          hintmask 11101110
          -55 35 -22 57 65 vvcurveto
          34 10 40 16 30 vhcurveto
          -15 7 -19 -24 -16 -26 -14 -27 rlinecurve
          -33 -64 -19 -71 -73 vvcurveto
          -151 84 -102 151 vhcurveto
          169 57 124 193 178 vvcurveto
          162 -72 91 -162 vhcurveto
          -109 -37 -78 -102 -115 vvcurveto
          -53 17 -54 44 -23 vhcurveto
          endchar
        </CharString>
        <CharString name="OE">
          273 -15 86 235 63 213 69 -57 57 15 -20 hstemhm
          30 167 176 153 hintmask 11010110
          30 238 rmoveto
          -151 84 -102 151 vhcurveto
          54 15 47 24 37 42 rrcurveto
          6 hlineto
          -56 27 45 -25 98 hhcurveto
          84 42 95 93 17 93 -44 -7 -37 -3 -44 -1 -7 -5 rcurveline
          2 -9 1 -14 -8 vvcurveto
          -33 -8 -35 -19 -27 vhcurveto
          -88 -5 98 88 14 1 16 1 17 hvcurveto
          2 11 8 0 13 hhcurveto
          40 34 -4 -6 42 hvcurveto
          3 23 4 39 8 22 -5 6 rcurveline
          -11 -33 -33 -6 -34 hhcurveto
          -18 -18 0 4 -19 hvcurveto
          5 77 7 84 8 55 rrcurveto
          3 15 11 2 18 hhcurveto
          36 27 -6 -15 33 hvcurveto
          4 -29 3 -20 9 -27 rrcurveto
          17 hlineto
          2 49 12 72 33 37 rrcurveto
          hintmask 11001110
          -6 11 rlineto
          hintmask 11100110
          -11 -64 -89 -4 -55 hhcurveto
          hintmask 11001110
          -123 -64 5 10 -59 hvcurveto
          1 -1 -2 1 rlineto
          -175 -66 -105 -178 -184 vvcurveto
          340 -53 rmoveto
          -1 -50 -5 -33 -17 -24 rrcurveto
          -5 -11 -14 -2 -14 hhcurveto
          -76 -35 72 112 98 17 126 36 92 hvcurveto
          hintmask 11100110
          9 15 17 2 18 hhcurveto
          22 26 -5 -13 18 hvcurveto
          7 -33 4 -43 -53 vvcurveto
          endchar
        </CharString>
        <CharString name="Oacute">
          79 -15 83 514 84 81 -21 hstemhm
          30 90 -90 167 -60 78 64 82 30 167 hintmask 11010111
          198 282 rmoveto
          96 21 67 63 98 vvcurveto
          29 -7 31 -29 vhcurveto
          -16 -29 -24 -25 -28 -19 rrcurveto
          -8 vlineto
          18 -18 4 -19 -25 vvcurveto
          -8 -1 -9 -2 -7 vhcurveto
          -1 -4 -7 -1 -5 hhcurveto
          -41 -4 40 41 43 10 57 25 35 hvcurveto
          8 14 20 3 16 hhcurveto
          72 19 -84 -102 -88 -15 -150 -39 -79 hvcurveto
          -8 -14 -19 -3 -16 hhcurveto
          hintmask 11001011
          -66 -25 95 92 hvcurveto
          hintmask 11010111
          -55 35 -22 57 65 vvcurveto
          34 10 40 16 30 vhcurveto
          -15 7 -19 -24 -16 -26 -14 -27 rlinecurve
          -33 -64 -19 -71 -73 vvcurveto
          -151 84 -102 151 vhcurveto
          169 57 124 193 178 vvcurveto
          162 -72 91 -162 vhcurveto
          -109 -37 -78 -102 -115 vvcurveto
          -53 17 -54 44 -23 vhcurveto
          hintmask 00100000
          357 520 rmoveto
          18 -13 71 -14 14 vhcurveto
          -12 2 -26 0 -16 -1 -39 -69 -95 -49 -70 -37 11 -25 rcurveline
          endchar
        </CharString>
        <CharString name="Ocircumflex">
          79 -15 83 514 84 81 -21 180 -20 hstemhm
          30 90 -90 167 -60 78 64 82 30 167 hintmask 1100101110000000
          198 282 rmoveto
          96 21 67 63 98 vvcurveto
          29 -7 31 -29 vhcurveto
          -16 -29 -24 -25 -28 -19 rrcurveto
          -8 vlineto
          18 -18 4 -19 -25 vvcurveto
          -8 -1 -9 -2 -7 vhcurveto
          -1 -4 -7 -1 -5 hhcurveto
          -41 -4 40 41 43 10 57 25 35 hvcurveto
          8 14 20 3 16 hhcurveto
          72 19 -84 -102 -88 -15 -150 -39 -79 hvcurveto
          -8 -14 -19 -3 -16 hhcurveto
          hintmask 1100010110000000
          -66 -25 95 92 hvcurveto
          hintmask 1100101110000000
          -55 35 -22 57 65 vvcurveto
          34 10 40 16 30 vhcurveto
          -15 7 -19 -24 -16 -26 -14 -27 rlinecurve
          -33 -64 -19 -71 -73 vvcurveto
          -151 84 -102 151 vhcurveto
          169 57 124 193 178 vvcurveto
          162 -72 91 -162 vhcurveto
          -109 -37 -78 -102 -115 vvcurveto
          -53 17 -54 44 -23 vhcurveto
          hintmask 0011000000000000
          332 444 rmoveto
          11 25 -73 38 -62 51 -39 66 rlinecurve
          -46 hlineto
          -39 -66 -82 -51 -73 -38 11 -25 rcurveline
          186 60 rlineto
          endchar
        </CharString>
        <CharString name="Odieresis">
          79 -15 83 514 84 67 -21 184 -20 hstemhm
          30 90 -90 167 -60 78 64 82 30 167 hintmask 1100101110000000
          198 282 rmoveto
          96 21 67 63 98 vvcurveto
          29 -7 31 -29 vhcurveto
          -16 -29 -24 -25 -28 -19 rrcurveto
          -8 vlineto
          18 -18 4 -19 -25 vvcurveto
          -8 -1 -9 -2 -7 vhcurveto
          -1 -4 -7 -1 -5 hhcurveto
          -41 -4 40 41 43 10 57 25 35 hvcurveto
          8 14 20 3 16 hhcurveto
          72 19 -84 -102 -88 -15 -150 -39 -79 hvcurveto
          -8 -14 -19 -3 -16 hhcurveto
          hintmask 1100010110000000
          -66 -25 95 92 hvcurveto
          hintmask 1100101110000000
          -55 35 -22 57 65 vvcurveto
          34 10 40 16 30 vhcurveto
          -15 7 -19 -24 -16 -26 -14 -27 rlinecurve
          -33 -64 -19 -71 -73 vvcurveto
          -151 84 -102 151 vhcurveto
          169 57 124 193 178 vvcurveto
          162 -72 91 -162 vhcurveto
          -109 -37 -78 -102 -115 vvcurveto
          -53 17 -54 44 -23 vhcurveto
          hintmask 0011000000000000
          108 532 rmoveto
          -19 29 -34 38 -24 15 -29 -15 -48 -38 -16 -29 14 -29 33 -52 28 -21 30 21 46 52 19 29 rrcurveto
          221 hmoveto
          -19 29 -34 38 -24 15 -29 -15 -48 -38 -16 -29 14 -29 33 -52 28 -21 30 21 46 52 19 29 rrcurveto
          endchar
        </CharString>
        <CharString name="Ograve">
          79 -15 83 514 84 81 -21 hstemhm
          30 90 -90 167 -60 78 64 82 30 167 hintmask 11010111
          198 282 rmoveto
          96 21 67 63 98 vvcurveto
          29 -7 31 -29 vhcurveto
          -16 -29 -24 -25 -28 -19 rrcurveto
          -8 vlineto
          18 -18 4 -19 -25 vvcurveto
          -8 -1 -9 -2 -7 vhcurveto
          -1 -4 -7 -1 -5 hhcurveto
          -41 -4 40 41 43 10 57 25 35 hvcurveto
          8 14 20 3 16 hhcurveto
          72 19 -84 -102 -88 -15 -150 -39 -79 hvcurveto
          -8 -14 -19 -3 -16 hhcurveto
          hintmask 11001011
          -66 -25 95 92 hvcurveto
          hintmask 11010111
          -55 35 -22 57 65 vvcurveto
          34 10 40 16 30 vhcurveto
          -15 7 -19 -24 -16 -26 -14 -27 rlinecurve
          -33 -64 -19 -71 -73 vvcurveto
          -151 84 -102 151 vhcurveto
          169 57 124 193 178 vvcurveto
          162 -72 91 -162 vhcurveto
          -109 -37 -78 -102 -115 vvcurveto
          -53 17 -54 44 -23 vhcurveto
          hintmask 00100000
          170 444 rmoveto
          11 25 -70 37 -95 49 -39 69 rlinecurve
          -16 1 -26 0 -12 -2 rrcurveto
          -14 -14 -13 -71 -18 vvcurveto
          endchar
        </CharString>
        <CharString name="Oslash">
          79 -66 -21 93 -21 597 -20 104 -20 95 -20 hstem
          30 167 194 167 vstem
          30 238 rmoveto
          -105 40 -81 74 -40 vhcurveto
          -31 -67 6 -12 16 -12 12 -8 rlinecurve
          6 hlineto
          30 84 rlineto
          -7 24 28 -5 30 hhcurveto
          169 57 124 193 178 vvcurveto
          119 -39 82 -86 34 vhcurveto
          12 30 15 35 11 24 -4 4 rcurveline
          -15 -6 -17 -2 -15 -1 -8 -26 -6 -25 -8 -23 rrcurveto
          5 -22 -25 3 -27 hhcurveto
          -175 -66 -119 -178 -184 vvcurveto
          361 158 rmoveto
          -88 -15 -150 -39 -79 vhcurveto
          -8 -14 -19 -3 -16 hhcurveto
          -28 -20 16 26 -14 hvcurveto
          153 397 rlineto
          8 -31 4 -39 -41 vvcurveto
          -194 -141 rmoveto
          98 17 126 36 92 vhcurveto
          8 14 20 3 16 hhcurveto
          25 19 -11 -18 14 hvcurveto
          -152 -388 rlineto
          -6 28 -3 31 31 vvcurveto
          endchar
        </CharString>
        <CharString name="Otilde">
          79 -15 83 514 84 65 101 -53 53 48 -20 hstemhm
          30 90 -90 167 -60 78 64 82 30 167 hintmask 1100010111000000
          198 282 rmoveto
          96 21 67 63 98 vvcurveto
          29 -7 31 -29 vhcurveto
          -16 -29 -24 -25 -28 -19 rrcurveto
          -8 vlineto
          18 -18 4 -19 -25 vvcurveto
          -8 -1 -9 -2 -7 vhcurveto
          -1 -4 -7 -1 -5 hhcurveto
          -41 -4 40 41 43 10 57 25 35 hvcurveto
          8 14 20 3 16 hhcurveto
          72 19 -84 -102 -88 -15 -150 -39 -79 hvcurveto
          -8 -14 -19 -3 -16 hhcurveto
          hintmask 1100001011000000
          -66 -25 95 92 hvcurveto
          hintmask 1100010111000000
          -55 35 -22 57 65 vvcurveto
          34 10 40 16 30 vhcurveto
          -15 7 -19 -24 -16 -26 -14 -27 rlinecurve
          -33 -64 -19 -71 -73 vvcurveto
          -151 84 -102 151 vhcurveto
          169 57 124 193 178 vvcurveto
          162 -72 91 -162 vhcurveto
          -109 -37 -78 -102 -115 vvcurveto
          -53 17 -54 44 -23 vhcurveto
          hintmask 0001100000000000
          -60 462 rmoveto
          23 22 26 12 33 hhcurveto
          hintmask 0010100000000000
          50 83 -48 50 hhcurveto
          56 23 49 48 35 48 -24 17 rcurveline
          -24 -23 -28 -11 -32 hhcurveto
          -52 -57 21 27 -41 hvcurveto
          -66 -21 -71 -50 -35 -48 rrcurveto
          endchar
        </CharString>
        <CharString name="P">
          49 6 -21 310 37 251 -20 30 58 9 -20 hstemhm
          113 143 132 169 hintmask 11110110
          78 -10 rmoveto
          6 -5 43 9 71 4 73 2 rlinecurve
          -8 36 -7 99 50 vvcurveto
          135 5 162 15 105 vhcurveto
          4 14 15 2 15 hhcurveto
          58 10 -61 -58 -97 -35 -45 -70 hvcurveto
          -3 -37 rlineto
          142 135 67 142 120 -89 27 -120 hvcurveto
          hintmask 11101110
          -78 -107 0 9 -46 hvcurveto
          -100 -37 -91 -78 -107 vvcurveto
          -23 9 -26 25 vhcurveto
          15 29 29 36 24 20 rrcurveto
          8 vlineto
          -10 15 -4 19 19 vvcurveto
          5 1 7 1 4 vhcurveto
          26 28 82 6 38 hhcurveto
          -1 -7 -18 -4 -19 -5 -17 -6 rlinecurve
          3 -38 1 -42 -35 vvcurveto
          -167 -16 -209 -19 -80 vhcurveto
          endchar
        </CharString>
        <CharString name="Q">
          79 -244 82 42 188 514 84 hstem
          11 167 194 167 vstem
          11 238 rmoveto
          -112 50 -102 109 -28 vhcurveto
          -65 -32 -72 -58 -46 -57 19 -15 rcurveline
          29 29 30 17 41 hhcurveto
          92 106 -62 -62 68 hvcurveto
          88 243 84 88 8 -5 9 -7 5 hvcurveto
          -29 -15 -44 -13 -32 -2 -4 -7 rcurveline
          -30 -10 -45 -30 -102 -84 96 21 -110 vhcurveto
          -47 -4 -47 -16 -36 -23 -5 6 rcurveline
          32 28 58 23 45 16 rrcurveto
          171 61 122 189 178 vvcurveto
          162 -72 91 -162 vhcurveto
          -175 -66 -119 -178 -184 vvcurveto
          361 158 rmoveto
          -88 -15 -150 -39 -79 vhcurveto
          -8 -14 -19 -3 -16 hhcurveto
          -66 -25 95 92 98 17 126 36 92 hvcurveto
          8 14 20 3 16 hhcurveto
          72 19 -84 -102 hvcurveto
          endchar
        </CharString>
        <CharString name="R">
          102 6 -21 598 -20 30 58 9 -20 hstemhm
          113 143 132 169 hintmask 11101100
          78 -10 rmoveto
          6 -5 43 9 71 4 73 2 rlinecurve
          -8 36 -7 99 50 vvcurveto
          135 5 162 15 105 vhcurveto
          4 14 15 2 15 hhcurveto
          58 10 -62 -58 -94 -42 -43 -67 hvcurveto
          -3 -37 rlineto
          25 hlineto
          63 -120 47 -132 13 -60 7 -2 rcurveline
          65 10 64 4 65 1 -28 38 -57 93 -23 42 -23 42 -31 53 -31 63 rrcurveto
          72 34 53 53 85 vvcurveto
          120 -93 28 -120 vhcurveto
          hintmask 11011100
          -78 -103 0 9 -46 hvcurveto
          -100 -37 -91 -78 -107 vvcurveto
          -23 9 -26 25 vhcurveto
          15 29 29 36 24 20 rrcurveto
          8 vlineto
          -10 15 -4 19 19 vvcurveto
          5 1 7 1 4 vhcurveto
          26 28 82 6 38 hhcurveto
          -1 -7 -18 -4 -19 -5 -17 -6 rlinecurve
          3 -38 1 -42 -35 vvcurveto
          -167 -16 -209 -19 -80 vhcurveto
          endchar
        </CharString>
        <CharString name="Racute">
          102 6 -21 598 -20 30 58 9 -20 107 -21 hstemhm
          113 143 132 169 hintmask 11100110
          78 -10 rmoveto
          6 -5 43 9 71 4 73 2 rlinecurve
          -8 36 -7 99 50 vvcurveto
          135 5 162 15 105 vhcurveto
          4 14 15 2 15 hhcurveto
          58 10 -62 -58 -94 -42 -43 -67 hvcurveto
          -3 -37 rlineto
          25 hlineto
          63 -120 47 -132 13 -60 7 -2 rcurveline
          65 10 64 4 65 1 -28 38 -57 93 -23 42 -23 42 -31 53 -31 63 rrcurveto
          72 34 53 53 85 vvcurveto
          120 -93 28 -120 vhcurveto
          hintmask 11010110
          -78 -103 0 9 -46 hvcurveto
          -100 -37 -91 -78 -107 vvcurveto
          -23 9 -26 25 vhcurveto
          15 29 29 36 24 20 rrcurveto
          8 vlineto
          -10 15 -4 19 19 vvcurveto
          5 1 7 1 4 vhcurveto
          26 28 82 6 38 hhcurveto
          -1 -7 -18 -4 -19 -5 -17 -6 rlinecurve
          3 -38 1 -42 -35 vvcurveto
          -167 -16 -209 -19 -80 vhcurveto
          hintmask 00001000
          473 812 rmoveto
          18 -13 71 -14 14 vhcurveto
          -12 2 -26 0 -16 -1 -39 -69 -95 -49 -70 -37 11 -25 rcurveline
          endchar
        </CharString>
        <CharString name="Rcaron">
          102 6 -21 598 -20 30 58 9 -20 99 -21 180 -20 hstemhm
          113 143 132 169 hintmask 11100011
          78 -10 rmoveto
          6 -5 43 9 71 4 73 2 rlinecurve
          -8 36 -7 99 50 vvcurveto
          135 5 162 15 105 vhcurveto
          4 14 15 2 15 hhcurveto
          58 10 -62 -58 -94 -42 -43 -67 hvcurveto
          -3 -37 rlineto
          25 hlineto
          63 -120 47 -132 13 -60 7 -2 rcurveline
          65 10 64 4 65 1 -28 38 -57 93 -23 42 -23 42 -31 53 -31 63 rrcurveto
          72 34 53 53 85 vvcurveto
          120 -93 28 -120 vhcurveto
          hintmask 11010011
          -78 -103 0 9 -46 hvcurveto
          -100 -37 -91 -78 -107 vvcurveto
          -23 9 -26 25 vhcurveto
          15 29 29 36 24 20 rrcurveto
          8 vlineto
          -10 15 -4 19 19 vvcurveto
          5 1 7 1 4 vhcurveto
          26 28 82 6 38 hhcurveto
          -1 -7 -18 -4 -19 -5 -17 -6 rlinecurve
          3 -38 1 -42 -35 vvcurveto
          -167 -16 -209 -19 -80 vhcurveto
          hintmask 00001100
          56 908 rmoveto
          -11 -25 73 -38 62 -51 39 -66 rlinecurve
          46 hlineto
          39 66 82 51 73 38 -11 25 rcurveline
          -186 -60 rlineto
          endchar
        </CharString>
        <CharString name="Rcommaaccent">
          102 -230 -21 217 -20 60 -21 598 -20 30 58 9 -20 hstemhm
          113 143 132 169 hintmask 00111011
          78 -10 rmoveto
          6 -5 43 9 71 4 73 2 rlinecurve
          -8 36 -7 99 50 vvcurveto
          135 5 162 15 105 vhcurveto
          4 14 15 2 15 hhcurveto
          58 10 -62 -58 -94 -42 -43 -67 hvcurveto
          -3 -37 rlineto
          25 hlineto
          63 -120 47 -132 13 -60 7 -2 rcurveline
          65 10 64 4 65 1 -28 38 -57 93 -23 42 -23 42 -31 53 -31 63 rrcurveto
          72 34 53 53 85 vvcurveto
          120 -93 28 -120 vhcurveto
          hintmask 00110111
          -78 -103 0 9 -46 hvcurveto
          -100 -37 -91 -78 -107 vvcurveto
          -23 9 -26 25 vhcurveto
          15 29 29 36 24 20 rrcurveto
          8 vlineto
          -10 15 -4 19 19 vvcurveto
          5 1 7 1 4 vhcurveto
          26 28 82 6 38 hhcurveto
          -1 -7 -18 -4 -19 -5 -17 -6 rlinecurve
          3 -38 1 -42 -35 vvcurveto
          -167 -16 -209 -19 -80 vhcurveto
          hintmask 11000000
          333 -94 rmoveto
          -16 24 -29 33 -21 13 -24 -13 -42 -33 -12 -24 8 -21 13 -20 15 -19 -10 -28 -21 -19 -29 -20 13 -20 rcurveline
          68 26 75 50 12 71 rrcurveto
          endchar
        </CharString>
        <CharString name="S">
          -47 -94 -21 256 85 351 -20 94 -20 35 -20 hstemhm
          -21 124 -59 128 131 134 hintmask 11110101
          103 119 rmoveto
          6 1 8 1 5 vhcurveto
          2 7 9 1 8 hhcurveto
          25 17 -9 -20 15 hvcurveto
          8 hlineto
          12 24 24 33 19 18 rrcurveto
          31 -33 8 -31 -71 -91 -88 -83 -44 vhcurveto
          -114 93 -56 114 vhcurveto
          110 74 141 174 132 vvcurveto
          hintmask 11101011
          119 -265 41 116 vvcurveto
          12 2 15 9 9 vhcurveto
          50 51 -21 -21 34 hvcurveto
          30 -18 5 -29 5 -22 10 -25 rlinecurve
          17 hlineto
          62 18 91 39 52 vhcurveto
          -6 13 rlineto
          hintmask 11110101
          -6 -19 -29 -2 -21 hhcurveto
          hintmask 11101011
          -43 -55 4 11 -40 hvcurveto
          -80 -33 -105 -122 -86 -119 259 -40 -116 vvcurveto
          -52 -52 -85 -39 -35 vhcurveto
          hintmask 11110101
          -67 17 -42 55 69 vvcurveto
          endchar
        </CharString>
        <CharString name="T">
          19 6 -21 599 82 38 -20 hstem
          222 143 vstem
          191 666 rmoveto
          -100 -37 -77 -82 -107 vvcurveto
          -23 9 -27 25 vhcurveto
          15 29 29 36 24 20 rrcurveto
          8 vlineto
          -10 15 -4 19 19 vvcurveto
          5 1 7 1 4 vhcurveto
          31 29 40 7 99 -4 -1 -7 rcurveline
          -18 -2 -18 -4 -17 -5 rrcurveto
          1 -36 1 -40 -33 vvcurveto
          -167 -16 -220 -19 -80 vhcurveto
          6 -5 43 9 71 4 73 2 rlinecurve
          -8 36 -7 99 50 vvcurveto
          125 11 158 14 105 vhcurveto
          49 -4 36 -6 21 -6 23 -7 rcurveline
          7 46 10 46 30 56 -13 6 rcurveline
          -21 -17 -16 -16 -19 -20 rrcurveto
          -3 -9 -19 -1 -9 hhcurveto
          -74 -121 14 5 -74 hvcurveto
          endchar
        </CharString>
        <CharString name="Thorn">
          47 6 -21 666 -20 33 -20 hstemhm
          93 143 121 169 hintmask 10111000
          275 659 rmoveto
          -6 5 rlineto
          hintmask 11011000
          -13 -86 -58 0 -93 hhcurveto
          -1 -18 14 -7 25 -7 18 -3 rlinecurve
          4 -47 1 -62 -50 vvcurveto
          -167 -16 -220 -19 -80 vhcurveto
          6 -5 43 9 71 4 73 2 rlinecurve
          -8 36 -7 99 50 vvcurveto
          85 5 101 8 90 vhcurveto
          3 12 14 2 14 hhcurveto
          58 10 -62 -58 -87 -25 -55 -70 hvcurveto
          -3 -37 rlineto
          142 125 77 132 120 -93 28 -120 -19 -19 -1 -1 -21 hvcurveto
          6 59 8 49 7 29 rrcurveto
          endchar
        </CharString>
        <CharString name="U">
          142 6 -21 598 -20 90 -20 31 -20 hstemhm
          95 157 -142 142 161 147 hintmask 11011010
          290 659 rmoveto
          -6 5 rlineto
          hintmask 11100110
          -7 -27 -35 -4 -27 hhcurveto
          -19 -40 3 4 -19 hvcurveto
          -100 -37 -91 -78 -107 vvcurveto
          -23 9 -26 25 vhcurveto
          15 29 29 36 24 20 rrcurveto
          8 vlineto
          -10 15 -4 19 19 vvcurveto
          5 1 7 1 4 vhcurveto
          26 28 82 6 38 hhcurveto
          -1 -7 -18 -4 -20 -5 -17 -6 rlinecurve
          1 -35 1 -37 -32 vvcurveto
          hintmask 11011010
          -64 -15 -124 -64 vvcurveto
          -136 42 -81 136 -3 vhcurveto
          65 29 40 49 34 63 4 -1 rcurveline
          -7 -62 -9 -35 -10 -38 7 -5 rcurveline
          44 9 88 4 42 2 rrcurveto
          -8 37 -3 103 52 vvcurveto
          137 12 227 23 103 vhcurveto
          -6 5 -43 -9 -74 -4 -70 -2 rlinecurve
          8 -37 3 -103 -52 vvcurveto
          -65 -2 -109 -5 -83 vhcurveto
          -23 -50 -41 -46 -34 -24 rrcurveto
          -55 10 -1 90 91 vvcurveto
          133 19 170 19 85 vhcurveto
          endchar
        </CharString>
        <CharString name="Uacute">
          132 6 -21 598 -20 90 -20 31 -20 103 -21 hstemhm
          85 157 -142 142 161 147 hintmask 11010101
          280 659 rmoveto
          -6 5 rlineto
          hintmask 11100011
          -7 -27 -35 -4 -27 hhcurveto
          -19 -40 3 4 -19 hvcurveto
          -100 -37 -91 -78 -107 vvcurveto
          -23 9 -26 25 vhcurveto
          15 29 29 36 24 20 rrcurveto
          8 vlineto
          -10 15 -4 19 19 vvcurveto
          5 1 7 1 4 vhcurveto
          26 28 82 6 38 hhcurveto
          -1 -7 -18 -4 -20 -5 -17 -6 rlinecurve
          1 -35 1 -37 -32 vvcurveto
          hintmask 11010101
          -64 -15 -124 -64 vvcurveto
          -136 42 -81 136 -3 vhcurveto
          65 29 40 49 34 63 4 -1 rcurveline
          -7 -62 -9 -35 -10 -38 7 -5 rcurveline
          44 9 88 4 42 2 rrcurveto
          -8 37 -3 103 52 vvcurveto
          137 12 227 23 103 vhcurveto
          -6 5 -43 -9 -74 -4 -70 -2 rlinecurve
          8 -37 3 -103 -52 vvcurveto
          -65 -2 -109 -5 -83 vhcurveto
          -23 -50 -41 -46 -34 -24 rrcurveto
          -55 10 -1 90 91 vvcurveto
          133 19 170 19 85 vhcurveto
          hintmask 00001000
          284 143 rmoveto
          18 -13 71 -14 14 vhcurveto
          -12 2 -26 0 -16 -1 -39 -69 -95 -49 -70 -37 11 -25 rcurveline
          endchar
        </CharString>
        <CharString name="Ucircumflex">
          132 6 -21 598 -20 90 -20 31 -20 103 -21 180 -20 hstemhm
          85 157 -142 142 161 147 hintmask 1101001010000000
          280 659 rmoveto
          -6 5 rlineto
          hintmask 1110000110000000
          -7 -27 -35 -4 -27 hhcurveto
          -19 -40 3 4 -19 hvcurveto
          -100 -37 -91 -78 -107 vvcurveto
          -23 9 -26 25 vhcurveto
          15 29 29 36 24 20 rrcurveto
          8 vlineto
          -10 15 -4 19 19 vvcurveto
          5 1 7 1 4 vhcurveto
          26 28 82 6 38 hhcurveto
          -1 -7 -18 -4 -20 -5 -17 -6 rlinecurve
          1 -35 1 -37 -32 vvcurveto
          hintmask 1101001010000000
          -64 -15 -124 -64 vvcurveto
          -136 42 -81 136 -3 vhcurveto
          65 29 40 49 34 63 4 -1 rcurveline
          -7 -62 -9 -35 -10 -38 7 -5 rcurveline
          44 9 88 4 42 2 rrcurveto
          -8 37 -3 103 52 vvcurveto
          137 12 227 23 103 vhcurveto
          -6 5 -43 -9 -74 -4 -70 -2 rlinecurve
          8 -37 3 -103 -52 vvcurveto
          -65 -2 -109 -5 -83 vhcurveto
          -23 -50 -41 -46 -34 -24 rrcurveto
          -55 10 -1 90 91 vvcurveto
          133 19 170 19 85 vhcurveto
          hintmask 0000110000000000
          259 67 rmoveto
          11 25 -73 38 -62 51 -39 66 rlinecurve
          -46 hlineto
          -39 -66 -82 -51 -73 -38 11 -25 rcurveline
          186 60 rlineto
          endchar
        </CharString>
        <CharString name="Udieresis">
          132 6 -21 598 -20 90 -20 31 -20 89 -21 184 -20 hstemhm
          85 157 -142 142 161 147 hintmask 1101001010000000
          280 659 rmoveto
          -6 5 rlineto
          hintmask 1110000110000000
          -7 -27 -35 -4 -27 hhcurveto
          -19 -40 3 4 -19 hvcurveto
          -100 -37 -91 -78 -107 vvcurveto
          -23 9 -26 25 vhcurveto
          15 29 29 36 24 20 rrcurveto
          8 vlineto
          -10 15 -4 19 19 vvcurveto
          5 1 7 1 4 vhcurveto
          26 28 82 6 38 hhcurveto
          -1 -7 -18 -4 -20 -5 -17 -6 rlinecurve
          1 -35 1 -37 -32 vvcurveto
          hintmask 1101001010000000
          -64 -15 -124 -64 vvcurveto
          -136 42 -81 136 -3 vhcurveto
          65 29 40 49 34 63 4 -1 rcurveline
          -7 -62 -9 -35 -10 -38 7 -5 rcurveline
          44 9 88 4 42 2 rrcurveto
          -8 37 -3 103 52 vvcurveto
          137 12 227 23 103 vhcurveto
          -6 5 -43 -9 -74 -4 -70 -2 rlinecurve
          8 -37 3 -103 -52 vvcurveto
          -65 -2 -109 -5 -83 vhcurveto
          -23 -50 -41 -46 -34 -24 rrcurveto
          -55 10 -1 90 91 vvcurveto
          133 19 170 19 85 vhcurveto
          hintmask 0000110000000000
          35 155 rmoveto
          -19 29 -34 38 -24 15 -29 -15 -48 -38 -16 -29 14 -29 33 -52 28 -21 30 21 46 52 19 29 rrcurveto
          221 hmoveto
          -19 29 -34 38 -24 15 -29 -15 -48 -38 -16 -29 14 -29 33 -52 28 -21 30 21 46 52 19 29 rrcurveto
          endchar
        </CharString>
        <CharString name="Ugrave">
          132 6 -21 598 -20 90 -20 31 -20 103 -21 hstemhm
          85 157 -142 142 161 147 hintmask 11010101
          280 659 rmoveto
          -6 5 rlineto
          hintmask 11100011
          -7 -27 -35 -4 -27 hhcurveto
          -19 -40 3 4 -19 hvcurveto
          -100 -37 -91 -78 -107 vvcurveto
          -23 9 -26 25 vhcurveto
          15 29 29 36 24 20 rrcurveto
          8 vlineto
          -10 15 -4 19 19 vvcurveto
          5 1 7 1 4 vhcurveto
          26 28 82 6 38 hhcurveto
          -1 -7 -18 -4 -20 -5 -17 -6 rlinecurve
          1 -35 1 -37 -32 vvcurveto
          hintmask 11010101
          -64 -15 -124 -64 vvcurveto
          -136 42 -81 136 -3 vhcurveto
          65 29 40 49 34 63 4 -1 rcurveline
          -7 -62 -9 -35 -10 -38 7 -5 rcurveline
          44 9 88 4 42 2 rrcurveto
          -8 37 -3 103 52 vvcurveto
          137 12 227 23 103 vhcurveto
          -6 5 -43 -9 -74 -4 -70 -2 rlinecurve
          8 -37 3 -103 -52 vvcurveto
          -65 -2 -109 -5 -83 vhcurveto
          -23 -50 -41 -46 -34 -24 rrcurveto
          -55 10 -1 90 91 vvcurveto
          133 19 170 19 85 vhcurveto
          hintmask 00001000
          97 67 rmoveto
          11 25 -70 37 -95 49 -39 69 rlinecurve
          -16 1 -26 0 -12 -2 rrcurveto
          -14 -14 -13 -71 -18 vvcurveto
          endchar
        </CharString>
        <CharString name="V">
          53 6 -21 598 -20 90 -20 57 -20 hstem
          111 143 136 168 vstem
          293 659 rmoveto
          -6 5 rlineto
          -7 -27 -37 -4 -27 hhcurveto
          -19 -40 3 4 -19 hvcurveto
          -100 -37 -91 -78 -107 vvcurveto
          -23 9 -26 25 vhcurveto
          15 29 29 36 24 20 rrcurveto
          8 vlineto
          -10 15 -4 19 19 vvcurveto
          5 1 7 1 4 vhcurveto
          26 28 82 6 38 hhcurveto
          -1 -7 -18 -4 -20 -5 -17 -6 rlinecurve
          1 -35 1 -37 -32 vvcurveto
          -98 -5 -105 -9 -110 vhcurveto
          -3 -35 -9 -26 -20 -16 5 -14 rcurveline
          3 10 11 1 11 hhcurveto
          59 53 -34 -22 48 hvcurveto
          34 -16 9 2 rlineto
          130 158 123 205 204 vvcurveto
          58 -11 52 -52 26 vhcurveto
          -45 -28 -40 -13 -51 -14 rrcurveto
          -9 vlineto
          24 -22 7 -58 -32 vvcurveto
          -154 -27 -140 -48 -136 vhcurveto
          -20 8 -28 20 -12 21 rrcurveto
          -1 22 0 21 16 vvcurveto
          3 212 17 170 19 85 rrcurveto
          endchar
        </CharString>
        <CharString name="W">
          299 6 -21 598 -20 59 29 2 -20 70 -20 hstemhm
          111 143 136 148 88 168 hintmask 11011111
          293 659 rmoveto
          -6 5 rlineto
          -7 -27 -37 -4 -27 hhcurveto
          -19 -40 3 4 -19 hvcurveto
          -100 -37 -91 -78 -107 vvcurveto
          -23 9 -26 25 vhcurveto
          15 29 29 36 24 20 rrcurveto
          8 vlineto
          -10 15 -4 19 19 vvcurveto
          5 1 7 1 4 vhcurveto
          26 28 82 6 38 hhcurveto
          -1 -7 -18 -4 -20 -5 -17 -6 rlinecurve
          1 -35 1 -37 -32 vvcurveto
          -98 -5 -105 -9 -110 vhcurveto
          -3 -35 -9 -26 -20 -16 5 -14 rcurveline
          3 10 11 1 11 hhcurveto
          55 57 -34 -22 48 hvcurveto
          34 -16 9 2 25 30 24 32 22 33 rlinecurve
          31 -33 45 -29 42 -19 34 -16 rcurveline
          9 2 rlineto
          147 144 110 218 205 vvcurveto
          33 -3 30 -13 25 vhcurveto
          20 13 26 19 15 18 -9 11 rcurveline
          hintmask 11101111
          -39 -70 -144 -13 -82 hhcurveto
          -102 -46 2 3 -46 hvcurveto
          -2 -14 rlineto
          46 -16 6 -64 -48 vvcurveto
          -154 -27 -140 -48 -136 vhcurveto
          -20 8 -28 20 -12 21 rrcurveto
          -1 22 0 21 16 vvcurveto
          3 212 17 170 19 85 rrcurveto
          264 -575 rmoveto
          -40 8 -53 78 -13 42 rrcurveto
          53 108 34 117 117 vvcurveto
          13 -2 43 -6 10 vhcurveto
          1 11 4 1 9 hhcurveto
          55 17 -36 -72 -154 -21 -140 -48 -136 hvcurveto
          endchar
        </CharString>
        <CharString name="X">
          37 6 -21 598 -20 88 -20 21 -20 34 -20 hstemhm
          25 153 216 153 hintmask 11010110
          263 653 rmoveto
          -5 5 rlineto
          -3 -12 -25 -3 -18 hhcurveto
          -39 -30 3 5 -22 hvcurveto
          -95 -37 -86 -83 -102 vvcurveto
          -23 9 -26 25 vhcurveto
          15 29 29 36 24 20 rrcurveto
          8 vlineto
          -10 15 -4 19 19 vvcurveto
          5 1 7 1 4 vhcurveto
          26 28 62 6 42 hhcurveto
          -1 -7 -18 -4 -20 -5 -17 -6 rlinecurve
          19 -32 19 -31 11 -20 28 -54 25 -54 22 -54 -72 -86 -118 -144 -6 -100 rrcurveto
          11 43 67 4 44 hhcurveto
          4 5 rlineto
          -4 11 -1 12 11 vvcurveto
          47 33 108 30 67 vhcurveto
          32 -90 26 -92 27 -93 7 -2 rcurveline
          65 10 84 4 65 1 -28 38 -57 93 -23 42 -38 66 -26 55 -22 55 rrcurveto
          hintmask 11001110
          72 85 116 125 6 107 rrcurveto
          hintmask 11100110
          -11 -43 -67 -4 -44 hhcurveto
          hintmask 11001110
          -4 -5 rlineto
          4 -11 1 -12 -11 vvcurveto
          -54 -32 -97 -29 -56 vhcurveto
          -25 73 -21 71 -24 104 rrcurveto
          endchar
        </CharString>
        <CharString name="Y">
          17 6 -21 666 -20 101 75 hstem
          194 144 36 153 vstem
          243 645 rmoveto
          52 -87 -201 110 -98 hhcurveto
          -31 -33 -8 -31 hvcurveto
          34 -17 22 -26 19 -32 rrcurveto
          8 hlineto
          25 17 23 14 30 hhcurveto
          9 9 -2 -3 9 hvcurveto
          54 -43 31 -66 32 -75 25 -59 43 -109 36 -81 -4 -108 -14 -130 -16 -66 6 -5 rcurveline
          43 9 71 4 73 2 rrcurveto
          -8 36 -7 59 50 vvcurveto
          49 1 78 4 55 vhcurveto
          72 87 106 150 6 102 rrcurveto
          -11 -43 -67 -4 -44 hhcurveto
          -4 -5 rlineto
          4 -11 1 -12 -11 vvcurveto
          -54 -32 -131 -29 -56 vhcurveto
          -41 128 -22 75 -7 71 rrcurveto
          endchar
        </CharString>
        <CharString name="Yacute">
          17 6 -21 666 -20 101 75 -59 -21 hstemhm
          194 144 36 153 hintmask 11101100
          243 645 rmoveto
          52 -87 -201 110 -98 hhcurveto
          -31 -33 -8 -31 hvcurveto
          34 -17 22 -26 19 -32 rrcurveto
          8 hlineto
          25 17 23 14 30 hhcurveto
          9 9 -2 -3 9 hvcurveto
          54 -43 31 -66 32 -75 25 -59 43 -109 36 -81 -4 -108 -14 -130 -16 -66 6 -5 rcurveline
          43 9 71 4 73 2 rrcurveto
          -8 36 -7 59 50 vvcurveto
          49 1 78 4 55 vhcurveto
          72 87 106 150 6 102 rrcurveto
          -11 -43 -67 -4 -44 hhcurveto
          -4 -5 rlineto
          4 -11 1 -12 -11 vvcurveto
          -54 -32 -131 -29 -56 vhcurveto
          -41 128 -22 75 -7 71 rrcurveto
          hintmask 00010000
          301 158 rmoveto
          18 -13 71 -14 14 vhcurveto
          -12 2 -26 0 -16 -1 -39 -69 -95 -49 -70 -37 11 -25 rcurveline
          endchar
        </CharString>
        <CharString name="Z">
          -59 -208 82 777 -20 52 -20 hstem
          25 115 vstem
          260 683 rmoveto
          -73 -35 -162 -149 -81 vvcurveto
          -10 4 -12 12 -6 vhcurveto
          26 20 41 20 31 8 3 7 rcurveline
          -1 8 -1 9 9 vvcurveto
          25 3 30 25 31 25 -17 -17 34 vhcurveto
          8 2 8 2 7 4 3 -3 rcurveline
          -169 -277 -92 -151 -33 -42 -35 -42 rlinecurve
          19 -15 rlineto
          29 29 30 17 41 hhcurveto
          92 66 -87 -137 88 hvcurveto
          98 253 74 98 8 -5 9 -7 5 hvcurveto
          -29 -15 -44 -13 -32 -2 -4 -7 rcurveline
          -30 -10 -45 -30 -92 -128 226 31 -110 vhcurveto
          129 244 69 131 90 141 18 23 rlinecurve
          -16 10 rlineto
          -23 -26 -32 -6 -35 hhcurveto
          -38 -46 11 21 -33 hvcurveto
          endchar
        </CharString>
        <CharString name="a">
          17 6 -21 33 -21 179 60 304 -20 31 -20 hstemhm
          173 123 0 149 hintmask 10101100
          278 -15 rmoveto
          hintmask 01101010
          7 38 76 5 62 hhcurveto
          -6 31 -3 77 54 vvcurveto
          139 12 182 16 67 vhcurveto
          -5 4 rlineto
          hintmask 10110100
          -7 -44 -67 -4 -57 hhcurveto
          -69 -51 3 6 -41 hvcurveto
          -5 -19 12 -9 19 -9 14 -6 rlinecurve
          -186 -514 10 -7 rlineto
          hintmask 01101100
          8 48 59 4 69 hhcurveto
          -3 16 -3 19 16 vvcurveto
          36 3 33 14 54 vhcurveto
          3 13 27 2 18 hhcurveto
          17 19 -2 -3 12 hvcurveto
          -5 -77 -8 -60 -10 -45 rrcurveto
          hintmask 10101100
          -30 428 rmoveto
          5 22 7 27 10 15 rrcurveto
          2 5 6 1 8 hhcurveto
          5 7 -1 -2 3 hvcurveto
          2 -31 1 -15 -40 vvcurveto
          -43 -1 -55 -3 -54 vhcurveto
          -5 -12 -18 -2 -17 hhcurveto
          -15 -22 2 4 -11 hvcurveto
          endchar
        </CharString>
        <CharString name="aacute">
          10 6 -21 33 -21 179 60 304 -20 31 -20 69 -21 hstemhm
          166 123 0 149 hintmask 10101010
          271 -15 rmoveto
          hintmask 01101001
          7 38 76 5 62 hhcurveto
          -6 31 -3 77 54 vvcurveto
          139 12 182 16 67 vhcurveto
          -5 4 rlineto
          hintmask 10110010
          -7 -44 -67 -4 -57 hhcurveto
          -69 -51 3 6 -41 hvcurveto
          -5 -19 12 -9 19 -9 14 -6 rlinecurve
          -186 -514 10 -7 rlineto
          hintmask 01101010
          8 48 59 4 69 hhcurveto
          -3 16 -3 19 16 vvcurveto
          36 3 33 14 54 vhcurveto
          3 13 27 2 18 hhcurveto
          17 19 -2 -3 12 hvcurveto
          -5 -77 -8 -60 -10 -45 rrcurveto
          hintmask 10101010
          -30 428 rmoveto
          5 22 7 27 10 15 rrcurveto
          2 5 6 1 8 hhcurveto
          5 7 -1 -2 3 hvcurveto
          2 -31 1 -15 -40 vvcurveto
          -43 -1 -55 -3 -54 vhcurveto
          -5 -12 -18 -2 -17 hhcurveto
          -15 -22 2 4 -11 hvcurveto
          hintmask 00000100
          335 442 rmoveto
          -1 18 -19 65 -14 14 -12 2 -26 0 -16 -1 -39 -71 -85 -64 -66 -44 14 -24 rcurveline
          endchar
        </CharString>
        <CharString name="acircumflex">
          10 6 -21 33 -21 179 60 304 -20 31 -20 69 -21 203 -20 hstemhm
          166 123 0 149 hintmask 1010100100000000
          271 -15 rmoveto
          hintmask 0110100010000000
          7 38 76 5 62 hhcurveto
          -6 31 -3 77 54 vvcurveto
          139 12 182 16 67 vhcurveto
          -5 4 rlineto
          hintmask 1011000100000000
          -7 -44 -67 -4 -57 hhcurveto
          -69 -51 3 6 -41 hvcurveto
          -5 -19 12 -9 19 -9 14 -6 rlinecurve
          -186 -514 10 -7 rlineto
          hintmask 0110100100000000
          8 48 59 4 69 hhcurveto
          -3 16 -3 19 16 vvcurveto
          36 3 33 14 54 vhcurveto
          3 13 27 2 18 hhcurveto
          17 19 -2 -3 12 hvcurveto
          -5 -77 -8 -60 -10 -45 rrcurveto
          hintmask 1010100100000000
          -30 428 rmoveto
          5 22 7 27 10 15 rrcurveto
          2 5 6 1 8 hhcurveto
          5 7 -1 -2 3 hvcurveto
          2 -31 1 -15 -40 vvcurveto
          -43 -1 -55 -3 -54 vhcurveto
          -5 -12 -18 -2 -17 hhcurveto
          -15 -22 2 4 -11 hvcurveto
          hintmask 0000011000000000
          325 337 rmoveto
          14 24 -66 44 -65 64 -39 71 rlinecurve
          -44 hlineto
          -47 -73 -80 -60 -73 -46 14 -24 rcurveline
          183 80 rlineto
          endchar
        </CharString>
        <CharString name="acute">
          -231 564 -21 hstem
          318 648 rmoveto
          -1 18 -19 65 -14 14 -12 2 -26 0 -16 -1 -39 -71 -85 -64 -66 -44 14 -24 rcurveline
          endchar
        </CharString>
        <CharString name="acute.cap">
          -224 747 -21 hstem
          339 802 rmoveto
          18 -13 71 -14 14 vhcurveto
          -12 2 -26 0 -16 -1 -39 -69 -95 -49 -70 -37 11 -25 rcurveline
          endchar
        </CharString>
        <CharString name="adieresis">
          10 6 -21 33 -21 179 60 304 -20 31 -20 76 -21 184 -20 hstemhm
          166 123 0 149 hintmask 1010100100000000
          271 -15 rmoveto
          hintmask 0110100010000000
          7 38 76 5 62 hhcurveto
          -6 31 -3 77 54 vvcurveto
          139 12 182 16 67 vhcurveto
          -5 4 rlineto
          hintmask 1011000100000000
          -7 -44 -67 -4 -57 hhcurveto
          -69 -51 3 6 -41 hvcurveto
          -5 -19 12 -9 19 -9 14 -6 rlinecurve
          -186 -514 10 -7 rlineto
          hintmask 0110100100000000
          8 48 59 4 69 hhcurveto
          -3 16 -3 19 16 vvcurveto
          36 3 33 14 54 vhcurveto
          3 13 27 2 18 hhcurveto
          17 19 -2 -3 12 hvcurveto
          -5 -77 -8 -60 -10 -45 rrcurveto
          hintmask 1010100100000000
          -30 428 rmoveto
          5 22 7 27 10 15 rrcurveto
          2 5 6 1 8 hhcurveto
          5 7 -1 -2 3 hvcurveto
          2 -31 1 -15 -40 vvcurveto
          -43 -1 -55 -3 -54 vhcurveto
          -5 -12 -18 -2 -17 hhcurveto
          -15 -22 2 4 -11 hvcurveto
          hintmask 0000011000000000
          103 446 rmoveto
          -19 29 -34 38 -24 15 -29 -15 -48 -38 -16 -29 14 -29 33 -52 28 -21 30 21 46 52 19 29 rrcurveto
          221 hmoveto
          -19 29 -34 38 -24 15 -29 -15 -48 -38 -16 -29 14 -29 33 -52 28 -21 30 21 46 52 19 29 rrcurveto
          endchar
        </CharString>
        <CharString name="ae">
          136 -15 82 -49 -21 253 61 174 55 13 -20 hstemhm
          173 106 0 149 0 114 0 102 hintmask 1011001010000000
          279 153 rmoveto
          -127 71 -41 127 vhcurveto
          86 30 81 72 90 vvcurveto
          19 -10 16 -20 4 vhcurveto
          -19 -24 -34 -19 -31 -10 -2 -7 rcurveline
          10 -11 4 -16 -14 vvcurveto
          -13 -1 -14 -4 -14 vhcurveto
          -5 -9 -18 -2 -10 hhcurveto
          -60 -12 45 60 hvcurveto
          75 vlineto
          2 9 9 1 11 hhcurveto
          33 29 -4 -5 33 hvcurveto
          2 24 4 34 9 21 -5 5 rcurveline
          -9 -28 -31 -5 -28 hhcurveto
          -15 -15 1 3 -15 hvcurveto
          4 64 5 55 6 47 rrcurveto
          3 12 12 1 14 hhcurveto
          28 24 -5 -11 26 hvcurveto
          3 -21 3 -17 7 -19 rrcurveto
          18 hlineto
          2 40 10 61 27 31 rrcurveto
          hintmask 1010110100000000
          -5 9 rlineto
          hintmask 1011010100000000
          -9 -53 -94 -4 -106 hhcurveto
          -119 -91 3 6 -41 hvcurveto
          -5 -19 12 -9 19 -9 14 -6 rlinecurve
          -169 -514 10 -7 rlineto
          hintmask 0111001010000000
          8 48 59 4 69 hhcurveto
          -3 16 -3 19 16 vvcurveto
          36 4 32 10 55 vhcurveto
          13 73 rlineto
          1 12 15 1 11 hhcurveto
          15 16 -1 -3 12 hvcurveto
          -40 64 rmoveto
          -9 -12 1 1 -10 hvcurveto
          17 108 3 22 8 28 10 15 rlinecurve
          2 5 6 1 8 hhcurveto
          5 7 -1 -2 3 hvcurveto
          2 -31 1 -15 -40 vvcurveto
          -25 0 -29 -1 -30 vhcurveto
          -4 -12 -16 -1 -15 hhcurveto
          endchar
        </CharString>
        <CharString name="agrave">
          10 6 -21 33 -21 179 60 304 -20 31 -20 69 -21 hstemhm
          166 123 0 149 hintmask 10101010
          271 -15 rmoveto
          hintmask 01101001
          7 38 76 5 62 hhcurveto
          -6 31 -3 77 54 vvcurveto
          139 12 182 16 67 vhcurveto
          -5 4 rlineto
          hintmask 10110010
          -7 -44 -67 -4 -57 hhcurveto
          -69 -51 3 6 -41 hvcurveto
          -5 -19 12 -9 19 -9 14 -6 rlinecurve
          -186 -514 10 -7 rlineto
          hintmask 01101010
          8 48 59 4 69 hhcurveto
          -3 16 -3 19 16 vvcurveto
          36 3 33 14 54 vhcurveto
          3 13 27 2 18 hhcurveto
          17 19 -2 -3 12 hvcurveto
          -5 -77 -8 -60 -10 -45 rrcurveto
          hintmask 10101010
          -30 428 rmoveto
          5 22 7 27 10 15 rrcurveto
          2 5 6 1 8 hhcurveto
          5 7 -1 -2 3 hvcurveto
          2 -31 1 -15 -40 vvcurveto
          -43 -1 -55 -3 -54 vhcurveto
          -5 -12 -18 -2 -17 hhcurveto
          -15 -22 2 4 -11 hvcurveto
          hintmask 00000100
          173 337 rmoveto
          14 24 -66 44 -85 64 -39 71 rlinecurve
          -16 1 -26 0 -12 -2 -14 -14 -19 -65 -1 -18 rrcurveto
          endchar
        </CharString>
        <CharString name="ampersand">
          171 -15 84 0 233 273 -20 111 -20 hstemhm
          21 168 -73 73 -73 158 161 154 hintmask 01110101
          462 387 rmoveto
          -107 -35 -84 -57 -112 vvcurveto
          -23 9 -26 25 vhcurveto
          15 29 29 36 24 20 rrcurveto
          8 vlineto
          -10 15 -4 19 19 vvcurveto
          5 1 7 1 4 vhcurveto
          4 9 9 2 10 hhcurveto
          38 8 -34 -38 -43 -15 -61 -22 -37 hvcurveto
          -14 -25 -34 -6 -28 hhcurveto
          -84 -38 59 84 109 60 56 107 21 hvcurveto
          5 37 rlineto
          hintmask 10110011
          -56 7 -31 31 56 vvcurveto
          13 2 15 4 13 vhcurveto
          4 12 18 1 12 hhcurveto
          51 45 -30 -40 31 hvcurveto
          7 hlineto
          10 38 23 57 25 30 rrcurveto
          23 -36 -63 13 -42 hhcurveto
          -94 -25 -106 -66 -57 -79 rrcurveto
          -47 48 -33 47 -3 vhcurveto
          -4 vlineto
          hintmask 10111001
          -111 -29 -79 -72 -114 vvcurveto
          -150 129 -59 150 vhcurveto
          118 27 171 114 121 vvcurveto
          26 -9 37 -20 17 vhcurveto
          68 42 51 63 80 vvcurveto
          23 -9 26 -25 vhcurveto
          -15 -29 -29 -36 -24 -20 rrcurveto
          -8 vlineto
          10 -15 4 -19 -19 vvcurveto
          -5 -1 -7 -1 -4 vhcurveto
          -11 -15 -30 -5 -31 hhcurveto
          -18 -18 1 3 -15 hvcurveto
          endchar
        </CharString>
        <CharString name="aring">
          10 6 -21 33 -21 179 60 304 -20 31 -20 48 46 111 46 hstemhm
          166 123 -79 65 14 149 -68 63 hintmask 1010100100000000
          271 -15 rmoveto
          hintmask 0110100001000000
          7 38 76 5 62 hhcurveto
          -6 31 -3 77 54 vvcurveto
          139 12 182 16 67 vhcurveto
          -5 4 rlineto
          hintmask 1011000100000000
          -7 -44 -67 -4 -57 hhcurveto
          -69 -51 3 6 -41 hvcurveto
          -5 -19 12 -9 19 -9 14 -6 rlinecurve
          -186 -514 10 -7 rlineto
          hintmask 0110100100000000
          8 48 59 4 69 hhcurveto
          -3 16 -3 19 16 vvcurveto
          36 3 33 14 54 vhcurveto
          3 13 27 2 18 hhcurveto
          17 19 -2 -3 12 hvcurveto
          -5 -77 -8 -60 -10 -45 rrcurveto
          hintmask 1010100100000000
          -30 428 rmoveto
          5 22 7 27 10 15 rrcurveto
          2 5 6 1 8 hhcurveto
          5 7 -1 -2 3 hvcurveto
          2 -31 1 -15 -40 vvcurveto
          -43 -1 -55 -3 -54 vhcurveto
          -5 -12 -18 -2 -17 hhcurveto
          -15 -22 2 4 -11 hvcurveto
          hintmask 0000011010100000
          14 408 rmoveto
          -49 47 -22 53 vhcurveto
          65 19 58 46 70 vvcurveto
          49 -38 19 -55 vhcurveto
          -67 -19 -63 -46 -67 vvcurveto
          115 -25 rmoveto
          -30 -20 19 30 20 4 16 10 17 hvcurveto
          6 9 12 3 10 hhcurveto
          30 20 -19 -30 -20 -4 -16 -10 -17 hvcurveto
          -6 -9 -12 -3 -10 hhcurveto
          endchar
        </CharString>
        <CharString name="asciicircum">
          9 299 -21 418 -20 hstem
          259 550 rmoveto
          180 -272 34 18 -75 132 -38 80 -76 188 rlinecurve
          -53 -10 -76 -188 -35 -70 -75 -132 rlinecurve
          34 -18 rlineto
          endchar
        </CharString>
        <CharString name="asciitilde">
          215 170 107 94 -20 hstem
          44 179 rmoveto
          48 37 51 31 58 90 108 -88 89 hhcurveto
          81 23 100 79 45 71 -23 19 rcurveline
          -49 -50 -51 -36 -71 hhcurveto
          -88 -82 42 52 -77 hvcurveto
          -86 -10 -107 -91 -47 -72 rrcurveto
          endchar
        </CharString>
        <CharString name="asterisk">
          -138 404 -21 144 41 92 -20 21 -20 70 -20 hstemhm
          hintmask 11101000
          246 681 rmoveto
          -2 2 rlineto
          -6 -20 -5 -1 -7 hvcurveto
          -3 11 -7 20 -5 3 -7 -4 -9 -19 -5 -11 rrcurveto
          1 -4 -21 5 -6 hhcurveto
          -2 -2 15 -29 11 -38 2 -38 rlinecurve
          -28 23 -21 31 -14 30 rrcurveto
          -3 hlineto
          -3 -6 -5 -20 -3 -6 -11 2 -22 3 -7 -4 rrcurveto
          -8 13 -18 6 -9 vhcurveto
          -4 -5 -14 -13 -3 -6 rrcurveto
          -2 vlineto
          34 1 35 -7 34 -15 -36 -16 -38 -5 -33 1 -1 -2 rcurveline
          2 -6 14 -13 3 -5 -7 -9 -14 -20 -1 -7 7 -4 22 3 10 2 2 -6 3 -20 2 -6 rrcurveto
          3 hlineto
          18 29 25 32 31 23 -7 -39 -18 -36 -18 -29 2 -2 rcurveline
          6 19 6 1 6 hvcurveto
          3 -11 9 -22 5 -3 8 4 9 20 5 11 rrcurveto
          -1 5 20 -7 6 hhcurveto
          1 2 -15 29 -12 38 -1 39 rlinecurve
          27 -23 23 -31 13 -29 rrcurveto
          3 hlineto
          3 6 7 18 2 6 11 -2 22 -2 6 4 rrcurveto
          8 -12 17 -7 9 vhcurveto
          5 5 14 13 4 6 -1 2 rcurveline
          -33 -1 -37 7 -34 16 36 15 39 8 32 -1 1 2 rcurveline
          -2 6 -14 13 -4 5 rrcurveto
          8 9 15 18 7 vvcurveto
          -6 4 -22 -3 -10 -2 rrcurveto
          hintmask 11011000
          -1 6 -4 21 -3 6 rrcurveto
          -3 hlineto
          -17 -30 -26 -32 -31 -23 6 38 18 38 19 29 rrcurveto
          endchar
        </CharString>
        <CharString name="at">
          344 -190 61 150 -21 170 57 235 53 109 61 hstem
          30 80 364 142 130 77 vstem
          616 193 rmoveto
          122 11 143 15 64 vhcurveto
          -4 4 rlineto
          -7 -42 -64 -4 -54 hhcurveto
          -66 -48 3 6 -39 hvcurveto
          -5 -18 12 -9 18 -8 13 -6 rlinecurve
          -177 -488 10 -7 rlineto
          8 45 56 4 66 hhcurveto
          -3 15 -3 18 15 vvcurveto
          34 3 32 13 51 vhcurveto
          3 13 25 2 18 hhcurveto
          16 18 -2 -3 11 hvcurveto
          -71 9 -99 67 -10 vhcurveto
          172 56 101 183 185 vvcurveto
          195 -151 81 -195 vhcurveto
          -290 -46 -157 -243 -294 vvcurveto
          -194 116 -98 195 vhcurveto
          46 10 56 34 39 26 -6 14 rcurveline
          -15 -38 -46 -8 -39 hhcurveto
          -153 -90 100 153 161 65 195 121 106 hvcurveto
          27 50 73 11 56 hhcurveto
          170 101 -78 -171 -103 -38 -140 -84 -74 hvcurveto
          -6 34 -2 61 40 vvcurveto
          -192 206 rmoveto
          27 6 4 36 29 hhcurveto
          5 6 -1 -2 3 hvcurveto
          2 -29 1 -14 -38 vvcurveto
          -41 -1 -52 -3 -52 vhcurveto
          -5 -11 -17 -1 -17 hhcurveto
          -14 -21 1 4 -10 hvcurveto
          endchar
        </CharString>
        <CharString name="atilde">
          10 6 -21 33 -21 179 60 304 -20 31 -20 76 101 -53 53 48 -20 hstemhm
          166 123 0 149 hintmask 1010100010000000
          271 -15 rmoveto
          hintmask 0110100001000000
          7 38 76 5 62 hhcurveto
          -6 31 -3 77 54 vvcurveto
          139 12 182 16 67 vhcurveto
          -5 4 rlineto
          hintmask 1011000010000000
          -7 -44 -67 -4 -57 hhcurveto
          -69 -51 3 6 -41 hvcurveto
          -5 -19 12 -9 19 -9 14 -6 rlinecurve
          -186 -514 10 -7 rlineto
          hintmask 0110100010000000
          8 48 59 4 69 hhcurveto
          -3 16 -3 19 16 vvcurveto
          36 3 33 14 54 vhcurveto
          3 13 27 2 18 hhcurveto
          17 19 -2 -3 12 hvcurveto
          -5 -77 -8 -60 -10 -45 rrcurveto
          hintmask 1010100010000000
          -30 428 rmoveto
          5 22 7 27 10 15 rrcurveto
          2 5 6 1 8 hhcurveto
          5 7 -1 -2 3 hvcurveto
          2 -31 1 -15 -40 vvcurveto
          -43 -1 -55 -3 -54 vhcurveto
          -5 -12 -18 -2 -17 hhcurveto
          -15 -22 2 4 -11 hvcurveto
          hintmask 0000001100000000
          -42 378 rmoveto
          23 22 26 12 33 hhcurveto
          hintmask 0000010100000000
          50 63 -48 50 hhcurveto
          56 23 49 48 35 48 -24 17 rcurveline
          -24 -23 -28 -11 -32 hhcurveto
          -52 -37 21 27 -41 hvcurveto
          -66 -21 -71 -50 -35 -48 rrcurveto
          endchar
        </CharString>
        <CharString name="b">
          4 6 -21 297 23 187 57 -9 -20 hstemhm
          87 142 77 159 -133 133 -133 160 hintmask 11101001
          100 5 rmoveto
          34 48 -7 -6 22 hvcurveto
          27 -7 rlineto
          91 31 170 74 105 vvcurveto
          88 -67 22 -88 vhcurveto
          3 vlineto
          hintmask 11101100
          69 28 59 43 72 vvcurveto
          84 -73 14 -85 vhcurveto
          hintmask 11011100
          -72 -101 -9 -92 hhcurveto
          -1 -19 12 -6 16 -5 12 -3 rlinecurve
          4 -38 2 -49 -42 vvcurveto
          -94 -5 -111 -10 -94 vhcurveto
          -4 -32 -8 -20 -12 -13 6 -13 rcurveline
          3 12 21 1 13 hhcurveto
          hintmask 11101100
          168 487 rmoveto
          34 4 -37 -33 -29 -9 -44 -13 -24 hvcurveto
          -11 -5 -13 -2 -10 -1 -4 -35 rcurveline
          hintmask 11101010
          74 12 -42 -74 -28 -5 -39 -9 -24 hvcurveto
          -8 -11 -20 -3 -16 hhcurveto
          -14 -14 3 8 -13 hvcurveto
          34 -1 26 26 vvcurveto
          102 4 130 7 94 vhcurveto
          3 8 11 2 9 hhcurveto
          endchar
        </CharString>
        <CharString name="backslash">
          -225 -27 -21 770 -20 hstem
          219 -48 rmoveto
          20 8 23 13 15 16 -26 77 -11 34 -21 79 -85 301 rcurveline
          -28 108 -5 24 -21 110 rrcurveto
          -6 hlineto
          -21 -12 -22 -8 -24 -8 21 -66 10 -33 37 -135 137 -508 rcurveline
          endchar
        </CharString>
        <CharString name="bar">
          -248 -197 -21 973 -20 hstem
          101 65 vstem
          166 -195 rmoveto
          688 2 165 1 96 vhcurveto
          -7 1 -19 -13 -28 -14 -23 -9 rlinecurve
          7 -144 2 -115 -674 vvcurveto
          10 -4 17 5 26 11 12 7 rlinecurve
          endchar
        </CharString>
        <CharString name="braceleft">
          -209 -194 -21 926 -20 hstemhm
          69 73 -28 78 -78 100 hintmask 11001000
          273 711 rmoveto
          -60 -17 -94 -63 -5 -62 -6 -95 22 -70 -7 -95 -2 -31 -42 -16 -32 -7 3 -19 rcurveline
          30 -5 37 -15 -2 -29 rrcurveto
          hintmask 11100000
          -7 -95 -32 -70 -7 -95 -4 -62 86 -63 57 -17 9 19 rcurveline
          -33 18 -33 42 -9 37 6 92 48 92 6 82 -11 31 -48 31 -28 17 rrcurveto
          4 vlineto
          hintmask 11001000
          30 17 53 31 16 31 rrcurveto
          hintmask 11010000
          5 82 -34 93 7 92 14 37 38 42 36 18 rrcurveto
          endchar
        </CharString>
        <CharString name="braceright">
          -215 -194 -21 926 -20 hstemhm
          86 100 -78 78 -28 73 hintmask 11100000
          27 -215 rmoveto
          60 17 94 63 5 62 6 95 -22 70 7 95 2 31 42 16 32 7 -3 19 rcurveline
          -30 5 -37 15 2 29 rrcurveto
          hintmask 11001000
          7 95 32 70 7 95 4 62 -86 63 -57 17 -9 -19 rcurveline
          33 -18 33 -42 9 -37 -6 -92 -48 -92 -6 -82 11 -31 48 -31 28 -17 rrcurveto
          -4 vlineto
          hintmask 11100000
          -30 -17 -53 -31 -16 -31 rrcurveto
          hintmask 11010000
          -5 -82 34 -93 -7 -92 -14 -37 -38 -42 -36 -18 rrcurveto
          endchar
        </CharString>
        <CharString name="bracketleft">
          -189 -187 -21 912 -20 hstem
          106 73 vstem
          271 -168 rmoveto
          -33 1 -55 11 -32 9 56 791 rcurveline
          34 9 55 10 34 1 2 25 rcurveline
          -61 -1 -77 1 -59 15 -8 -5 rcurveline
          4 -48 -11 -196 -14 -206 -14 -206 -17 -198 -11 -48 7 -5 rcurveline
          61 15 77 1 61 -1 rrcurveto
          endchar
        </CharString>
        <CharString name="bracketright">
          -189 -187 -21 912 -20 hstem
          141 73 vstem
          49 664 rmoveto
          33 -1 55 -11 32 -9 -56 -791 rcurveline
          -34 -9 -55 -10 -34 -1 -2 -25 rcurveline
          61 1 77 -1 59 -15 8 5 rcurveline
          -4 48 11 196 14 206 14 206 17 198 11 48 -7 5 rcurveline
          -61 -15 -77 -1 -61 1 rrcurveto
          endchar
        </CharString>
        <CharString name="brokenbar">
          -248 -196 -21 979 -20 hstem
          101 65 vstem
          166 345 rmoveto
          311 2 9 1 96 vhcurveto
          -7 1 -19 -13 -28 -14 -23 -9 rlinecurve
          4 -143 4 29 1 -286 10 -4 rcurveline
          17 5 26 11 12 7 rrcurveto
          -539 vmoveto
          310 2 6 1 96 vhcurveto
          -7 1 -19 -14 -28 -13 -23 -10 rlinecurve
          4 -143 4 34 1 -286 10 -4 rcurveline
          17 5 26 11 12 7 rrcurveto
          endchar
        </CharString>
        <CharString name="bullet">
          -173 135 -21 320 -20 hstem
          315 290 rmoveto
          -51 41 -40 35 -29 68 rrcurveto
          -16 hlineto
          -43 -68 -47 -35 -65 -42 -3 -15 rcurveline
          53 -47 40 -44 27 -69 rrcurveto
          15 hlineto
          44 69 49 44 64 48 rrcurveto
          endchar
        </CharString>
        <CharString name="c">
          -91 -15 80 475 -20 32 -20 hstemhm
          28 159 hintmask 11010000
          248 -15 rmoveto
          84 43 73 87 17 93 -41 -7 -35 -2 -41 -1 -6 -4 rcurveline
          1 -7 1 -15 -7 vvcurveto
          -31 -6 -41 -14 -28 vhcurveto
          -77 -17 84 76 72 15 100 28 67 hvcurveto
          31 38 -25 -23 28 hvcurveto
          16 -13 4 -21 5 -17 6 -17 rlinecurve
          19 hlineto
          51 16 91 32 43 vhcurveto
          -7 13 rlineto
          -5 -15 -19 -1 -16 hhcurveto
          hintmask 10110000
          -25 -38 3 9 -25 hvcurveto
          -144 -81 -108 -114 -165 vvcurveto
          -135 85 -72 135 vhcurveto
          endchar
        </CharString>
        <CharString name="caron">
          -95 564 -21 203 -20 hstem
          14 746 rmoveto
          -14 -24 66 -44 65 -64 39 -71 rlinecurve
          44 hlineto
          47 73 80 60 73 46 -14 24 rcurveline
          -183 -80 rlineto
          endchar
        </CharString>
        <CharString name="caron.cap">
          -95 739 -21 180 -20 hstem
          11 898 rmoveto
          -11 -25 73 -38 62 -51 39 -66 rlinecurve
          46 hlineto
          39 66 82 51 73 38 -11 25 rcurveline
          -186 -60 rlineto
          endchar
        </CharString>
        <CharString name="ccedilla">
          -91 -214 -21 59 -20 181 80 -46 -20 541 -20 32 -20 hstemhm
          28 159 hintmask 11011010
          177 -101 rmoveto
          41 46 -4 -41 -8 -1 -11 -5 -7 hvcurveto
          -3 -7 -12 -1 -8 hhcurveto
          -32 -25 13 27 -18 hvcurveto
          -5 -2 -8 -18 -19 -38 -11 -16 rlinecurve
          -14 27 42 -11 32 hhcurveto
          48 15 45 37 28 43 rrcurveto
          62 7 -41 36 -62 hhcurveto
          -4 4 16 25 83 43 71 86 17 92 rlinecurve
          -41 -7 -35 -2 -41 -1 -6 -4 rcurveline
          1 -7 1 -15 -7 vvcurveto
          hintmask 11101010
          -31 -6 -41 -14 -28 vhcurveto
          -77 -17 84 76 72 15 100 28 67 hvcurveto
          31 38 -25 -23 28 hvcurveto
          16 -13 4 -21 5 -17 6 -17 rlinecurve
          19 hlineto
          51 16 91 32 43 vhcurveto
          -7 13 rlineto
          -5 -15 -19 -1 -16 hhcurveto
          hintmask 11010110
          -25 -38 3 9 -25 hvcurveto
          -144 -81 -108 -114 -165 vvcurveto
          -123 70 -70 114 -12 vhcurveto
          -42 -83 rlineto
          endchar
        </CharString>
        <CharString name="cedilla">
          -283 -214 -21 59 -20 215 -20 hstem
          65 -101 rmoveto
          41 46 -4 -41 -8 -1 -11 -5 -7 hvcurveto
          -3 -7 -12 -1 -8 hhcurveto
          -32 -25 13 27 -18 hvcurveto
          -5 -2 -8 -18 -19 -38 -11 -16 rlinecurve
          -14 27 42 -11 32 hhcurveto
          48 15 45 37 28 43 rrcurveto
          62 7 -41 36 -62 hhcurveto
          -4 4 38 57 -45 -2 -58 -113 rlineto
          endchar
        </CharString>
        <CharString name="cent">
          -154 -71 -21 113 -21 594 -20 hstemhm
          20 155 41 27 -27 97 -79 28 hintmask 11111000
          20 175 rmoveto
          -109 68 -64 109 -3 vhcurveto
          0 0 1 1 vhcurveto
          -10 -77 7 -6 13 -6 9 -3 rlinecurve
          5 1 5 114 53 52 35 76 17 73 rlinecurve
          -24 5 rlineto
          hintmask 11110010
          -17 -43 -24 -48 -33 -33 19 294 rcurveline
          7 -6 6 -6 4 -5 14 -21 rcurveline
          3 -17 3 -16 5 -17 rrcurveto
          hintmask 11110100
          18 hlineto
          3 53 13 75 36 40 -6 15 rcurveline
          -3 -8 -11 -1 -10 hhcurveto
          hintmask 11110010
          -22 -24 4 6 -22 hvcurveto
          4 54 2 17 3 20 -4 3 rcurveline
          -9 -3 -12 -2 -9 -1 -5 -91 rcurveline
          -118 -73 -94 -112 -137 vvcurveto
          155 46 rmoveto
          60 11 85 16 58 vhcurveto
          7 -1 9 -2 9 -5 -21 -304 rcurveline
          -24 20 -7 45 44 vvcurveto
          endchar
        </CharString>
        <CharString name="circumflex">
          -95 564 -21 203 -20 hstem
          400 543 rmoveto
          14 24 -66 44 -65 64 -39 71 rlinecurve
          -44 hlineto
          -47 -73 -80 -60 -73 -46 14 -24 rcurveline
          183 80 rlineto
          endchar
        </CharString>
        <CharString name="circumflex.cap">
          -95 747 -21 180 -20 hstem
          403 726 rmoveto
          11 25 -73 38 -62 51 -39 66 rlinecurve
          -46 hlineto
          -39 -66 -82 -51 -73 -38 11 -25 rcurveline
          186 60 rlineto
          endchar
        </CharString>
        <CharString name="colon">
          -277 6 -21 520 -20 hstem
          211 419 rmoveto
          -19 30 -36 40 -26 16 -30 -16 -51 -40 -16 -30 14 -31 35 -55 30 -22 31 22 49 55 19 31 rrcurveto
          -12 -326 rmoveto
          -19 30 -36 40 -26 16 -30 -16 -51 -40 -16 -30 14 -31 35 -55 30 -22 31 22 49 55 19 31 rrcurveto
          endchar
        </CharString>
        <CharString name="comma">
          -289 -148 -21 348 -20 hstem
          199 93 rmoveto
          -19 30 -36 40 -26 16 -30 -16 -51 -40 -16 -30 11 -26 26 -42 26 -26 -11 -52 -41 -60 -37 -39 15 -17 rcurveline
          85 57 87 104 17 101 rrcurveto
          endchar
        </CharString>
        <CharString name="commaaccent">
          -341 -230 -21 217 -20 hstem
          168 -104 rmoveto
          -16 24 -29 33 -21 13 -24 -13 -42 -33 -12 -24 8 -21 13 -20 15 -19 -10 -28 -21 -19 -29 -20 13 -20 rcurveline
          68 26 75 50 12 71 rrcurveto
          endchar
        </CharString>
        <CharString name="copyright">
          232 -15 51 83 56 440 51 hstem
          30 53 123 115 337 53 vstem
          365 119 rmoveto
          67 33 62 70 15 73 -16 -6 -57 -10 -17 -1 -3 -3 rcurveline
          1 -6 1 -4 -5 vvcurveto
          -32 -2 -33 -25 -20 vhcurveto
          -53 -17 51 70 59 16 71 22 51 hvcurveto
          19 1 35 -16 16 -15 11 -11 rcurveline
          4 -19 4 -13 7 -17 rrcurveto
          18 hlineto
          38 6 63 27 30 vhcurveto
          -5 8 rlineto
          -3 -12 -11 -1 -13 hhcurveto
          -28 -42 6 8 -28 hvcurveto
          -82 -49 -79 -114 -102 vvcurveto
          -98 61 -54 98 vhcurveto
          -335 193 rmoveto
          -182 144 -145 184 197 156 170 181 183 -145 147 -184 -201 -151 -174 -180 vhcurveto
          350 303 rmoveto
          155 123 -125 -154 -164 -137 -136 -162 -155 -121 124 154 168 142 133 155 hvcurveto
          endchar
        </CharString>
        <CharString name="currency">
          58 81 -21 56 66 275 66 48 -20 hstem
          74 88 245 87 vstem
          74 279 rmoveto
          -37 9 -30 16 -23 vhcurveto
          -32 -26 -34 -28 -28 -21 2 -16 13 -27 10 -11 rrcurveto
          6 hlineto
          103 88 rlineto
          -22 35 46 -10 51 hhcurveto
          39 8 37 15 32 21 101 -99 rcurveline
          17 6 30 10 20 3 2 4 rcurveline
          -33 28 -38 35 -55 50 3 2 rcurveline
          42 42 26 54 62 vvcurveto
          38 -8 31 -16 25 vhcurveto
          109 95 -2 5 -20 4 -25 8 -19 7 rlinecurve
          -80 -78 rlineto
          20 -31 -42 11 -49 hhcurveto
          -48 -9 -45 -19 -39 -27 -96 103 rcurveline
          -6 hlineto
          -12 -12 -23 -27 -5 -17 28 -26 34 -32 32 -31 rrcurveto
          -36 -41 -21 -51 -55 vvcurveto
          205 178 rmoveto
          88 40 -52 -88 -34 -10 -48 -24 -31 hvcurveto
          -14 -20 -38 -8 -26 hhcurveto
          -86 -41 54 86 34 10 48 23 31 hvcurveto
          14 20 38 8 26 hhcurveto
          endchar
        </CharString>
        <CharString name="d">
          41 6 -21 508 56 -9 -20 hstemhm
          88 142 135 157 hintmask 11011000
          73 79 rmoveto
          -4 -32 -8 -20 -12 -13 6 -13 rcurveline
          3 12 21 1 13 hhcurveto
          33 50 -7 -6 23 hvcurveto
          26 -7 rlineto
          159 43 130 117 174 vvcurveto
          157 -72 73 -157 vhcurveto
          hintmask 10111000
          -72 -87 -9 -92 hhcurveto
          -1 -19 12 -6 16 -5 12 -3 rlinecurve
          6 -40 1 -48 -40 vvcurveto
          -94 -3 -113 -12 -93 vhcurveto
          197 -15 rmoveto
          -12 -13 1 6 -10 hvcurveto
          -3 25 -2 36 25 vvcurveto
          96 6 139 9 95 vhcurveto
          hintmask 11011000
          4 9 14 2 8 hhcurveto
          89 0 -128 -89 -57 -10 -90 -22 -50 hvcurveto
          -12 -15 -28 -3 -20 hhcurveto
          endchar
        </CharString>
        <CharString name="degree">
          -145 396 53 165 53 hstem
          45 69 139 69 vstem
          45 509 rmoveto
          -75 64 -38 75 vhcurveto
          81 17 57 58 81 vvcurveto
          75 -55 40 -75 vhcurveto
          -83 -14 -64 -60 -84 vvcurveto
          129 105 rmoveto
          55 24 -35 -54 -20 -5 -27 -8 -17 hvcurveto
          -8 -10 -22 -4 -15 hhcurveto
          -54 -25 36 53 20 5 27 8 17 hvcurveto
          8 10 22 4 15 hhcurveto
          endchar
        </CharString>
        <CharString name="dieresis">
          -104 571 -21 184 -20 hstem
          184 652 rmoveto
          -19 29 -34 38 -24 15 -29 -15 -48 -38 -16 -29 14 -29 33 -52 28 -21 30 21 46 52 19 29 rrcurveto
          221 hmoveto
          -19 29 -34 38 -24 15 -29 -15 -48 -38 -16 -29 14 -29 33 -52 28 -21 30 21 46 52 19 29 rrcurveto
          endchar
        </CharString>
        <CharString name="dieresis.cap">
          -104 733 -21 184 -20 hstem
          184 814 rmoveto
          -19 29 -34 38 -24 15 -29 -15 -48 -38 -16 -29 14 -29 33 -52 28 -21 30 21 46 52 19 29 rrcurveto
          221 hmoveto
          -19 29 -34 38 -24 15 -29 -15 -48 -38 -16 -29 14 -29 33 -52 28 -21 30 21 46 52 19 29 rrcurveto
          endchar
        </CharString>
        <CharString name="divide">
          67 50 113 54 64 52 113 hstem
          232 111 vstem
          343 390 rmoveto
          28 -27 28 -28 -27 -29 -28 -28 -27 29 -30 27 28 27 30 27 vhcurveto
          -283 vmoveto
          28 -27 28 -28 -27 -29 -28 -28 -27 29 -30 27 28 27 30 27 vhcurveto
          177 171 rmoveto
          -6 6 rlineto
          -2 -26 -33 -1 -26 hhcurveto
          -113 -137 3 6 -113 hvcurveto
          -9 -66 8 -7 rlineto
          446 hlineto
          endchar
        </CharString>
        <CharString name="dollar">
          -122 -71 -21 686 -20 hstemhm
          39 207 -79 29 45 116 hintmask 11011000
          121 168 rmoveto
          10 1 9 3 10 vhcurveto
          -14 8 -23 -42 -47 -50 -37 -33 rlinecurve
          9 -12 26 -36 59 -35 55 -10 rlinecurve
          -7 -64 7 -7 14 -5 10 -3 rlinecurve
          5 1 5 89 rlineto
          74 54 96 100 83 vvcurveto
          45 -61 36 -53 31 vhcurveto
          6 80 35 -23 26 -19 10 3 14 43 27 42 25 29 rlinecurve
          -10 11 rlineto
          -7 -10 -13 -2 -18 hhcurveto
          -27 -27 4 7 -24 hvcurveto
          4 41 3 17 4 18 -4 3 rcurveline
          -8 -3 -15 -2 -9 -1 -6 -76 rcurveline
          hintmask 11100000
          -71 -31 -116 -73 -65 vvcurveto
          -49 75 -42 59 -35 vhcurveto
          -11 -138 rlineto
          -24 25 -17 35 29 vvcurveto
          hintmask 11011000
          120 -11 rmoveto
          -32 -25 -46 -25 -22 vhcurveto
          11 142 rlineto
          23 -16 16 -14 -12 vvcurveto
          -74 253 rmoveto
          15 14 18 12 8 vhcurveto
          8 -1 10 -4 10 -4 -7 -79 rcurveline
          -27 16 -20 16 15 vvcurveto
          endchar
        </CharString>
        <CharString name="dotaccentcmb">
          -339 564 -21 184 -20 hstem
          170 645 rmoveto
          -19 29 -34 38 -24 15 -29 -15 -48 -38 -16 -29 14 -29 33 -52 28 -21 30 21 46 52 19 29 rrcurveto
          endchar
        </CharString>
        <CharString name="dotaccentcmb.cap">
          -339 733 -21 184 -20 hstem
          170 814 rmoveto
          -19 29 -34 38 -24 15 -29 -15 -48 -38 -16 -29 14 -29 33 -52 28 -21 30 21 46 52 19 29 rrcurveto
          endchar
        </CharString>
        <CharString name="dotlessi">
          -210 6 -21 34 -21 542 -20 31 -20 hstemhm
          88 139 hintmask 10011000
          260 547 rmoveto
          -5 4 rlineto
          hintmask 10101000
          -10 -71 -61 -1 -78 hhcurveto
          -1 -19 12 -6 16 -5 12 -3 rlinecurve
          3 -39 1 -49 -41 vvcurveto
          -139 -15 -183 -16 -67 vhcurveto
          5 -4 rlineto
          hintmask 01011000
          8 36 71 5 71 hhcurveto
          -7 30 -6 82 42 vvcurveto
          139 17 189 16 67 vhcurveto
          endchar
        </CharString>
        <CharString name="dotlessj">
          -188 -180 -21 741 -20 31 -20 hstemhm
          92 144 hintmask 10110000
          269 547 rmoveto
          -5 4 rlineto
          hintmask 11010000
          -10 -71 -66 -1 -78 hhcurveto
          -1 -19 12 -6 16 -5 12 -3 rlinecurve
          3 -39 1 -55 -41 vvcurveto
          -83 -6 -99 -4 -82 vhcurveto
          -7 -135 -25 -77 -84 -79 12 -18 rcurveline
          79 41 135 80 61 65 rrcurveto
          -13 51 -4 65 50 vvcurveto
          119 13 187 20 90 vhcurveto
          endchar
        </CharString>
        <CharString name="e">
          -93 -15 82 402 87 hstemhm
          21 160 -119 119 -119 155 99 102 hintmask 11010100
          419 525 rmoveto
          22 -37 -46 9 -46 hhcurveto
          -89 -29 -79 -60 -60 -70 rrcurveto
          -72 71 -31 74 vhcurveto
          -3 vlineto
          hintmask 11100100
          -98 -10 -88 -50 -98 vvcurveto
          -107 109 -41 107 vhcurveto
          86 30 95 78 90 vvcurveto
          19 -10 16 -20 4 vhcurveto
          -19 -24 -34 -19 -31 -10 -2 -7 rcurveline
          10 -11 4 -16 -14 vvcurveto
          -13 -1 -14 -4 -14 vhcurveto
          -10 -13 -20 -3 -18 hhcurveto
          -51 -28 34 52 84 61 36 84 hvcurveto
          5 39 rlineto
          hintmask 11001100
          -80 7 -34 33 81 vvcurveto
          9 1 16 4 8 vhcurveto
          2 8 8 1 8 hhcurveto
          47 34 -36 -33 33 hvcurveto
          9 hlineto
          9 42 18 48 23 35 rrcurveto
          endchar
        </CharString>
        <CharString name="eacute">
          -93 -15 82 402 87 44 -21 hstemhm
          21 160 -119 119 -119 155 99 102 hintmask 11001010
          419 525 rmoveto
          22 -37 -46 9 -46 hhcurveto
          -89 -29 -79 -60 -60 -70 rrcurveto
          -72 71 -31 74 vhcurveto
          -3 vlineto
          hintmask 11010010
          -98 -10 -88 -50 -98 vvcurveto
          -107 109 -41 107 vhcurveto
          86 30 95 78 90 vvcurveto
          19 -10 16 -20 4 vhcurveto
          -19 -24 -34 -19 -31 -10 -2 -7 rcurveline
          10 -11 4 -16 -14 vvcurveto
          -13 -1 -14 -4 -14 vhcurveto
          -10 -13 -20 -3 -18 hhcurveto
          -51 -28 34 52 84 61 36 84 hvcurveto
          5 39 rlineto
          hintmask 11000110
          -80 7 -34 33 81 vvcurveto
          9 1 16 4 8 vhcurveto
          2 8 8 1 8 hhcurveto
          47 34 -36 -33 33 hvcurveto
          9 hlineto
          9 42 18 48 23 35 rrcurveto
          hintmask 00100000
          40 159 rmoveto
          -1 18 -19 65 -14 14 -12 2 -26 0 -16 -1 -39 -71 -85 -64 -66 -44 14 -24 rcurveline
          endchar
        </CharString>
        <CharString name="ecircumflex">
          -93 -15 82 402 87 44 -21 203 -20 hstemhm
          21 160 -119 119 -119 155 99 102 hintmask 11000101
          419 525 rmoveto
          22 -37 -46 9 -46 hhcurveto
          -89 -29 -79 -60 -60 -70 rrcurveto
          -72 71 -31 74 vhcurveto
          -3 vlineto
          hintmask 11001001
          -98 -10 -88 -50 -98 vvcurveto
          -107 109 -41 107 vhcurveto
          86 30 95 78 90 vvcurveto
          19 -10 16 -20 4 vhcurveto
          -19 -24 -34 -19 -31 -10 -2 -7 rcurveline
          10 -11 4 -16 -14 vvcurveto
          -13 -1 -14 -4 -14 vhcurveto
          -10 -13 -20 -3 -18 hhcurveto
          -51 -28 34 52 84 61 36 84 hvcurveto
          5 39 rlineto
          hintmask 11000011
          -80 7 -34 33 81 vvcurveto
          9 1 16 4 8 vhcurveto
          2 8 8 1 8 hhcurveto
          47 34 -36 -33 33 hvcurveto
          9 hlineto
          9 42 18 48 23 35 rrcurveto
          hintmask 00110000
          30 54 rmoveto
          14 24 -66 44 -65 64 -39 71 rlinecurve
          -44 hlineto
          -47 -73 -80 -60 -73 -46 14 -24 rcurveline
          183 80 rlineto
          endchar
        </CharString>
        <CharString name="edieresis">
          -93 -15 82 402 87 51 -21 184 -20 hstemhm
          21 160 -119 119 -119 155 99 102 hintmask 11000101
          419 525 rmoveto
          22 -37 -46 9 -46 hhcurveto
          -89 -29 -79 -60 -60 -70 rrcurveto
          -72 71 -31 74 vhcurveto
          -3 vlineto
          hintmask 11001001
          -98 -10 -88 -50 -98 vvcurveto
          -107 109 -41 107 vhcurveto
          86 30 95 78 90 vvcurveto
          19 -10 16 -20 4 vhcurveto
          -19 -24 -34 -19 -31 -10 -2 -7 rcurveline
          10 -11 4 -16 -14 vvcurveto
          -13 -1 -14 -4 -14 vhcurveto
          -10 -13 -20 -3 -18 hhcurveto
          -51 -28 34 52 84 61 36 84 hvcurveto
          5 39 rlineto
          hintmask 11000011
          -80 7 -34 33 81 vvcurveto
          9 1 16 4 8 vhcurveto
          2 8 8 1 8 hhcurveto
          47 34 -36 -33 33 hvcurveto
          9 hlineto
          9 42 18 48 23 35 rrcurveto
          hintmask 00110000
          -192 163 rmoveto
          -19 29 -34 38 -24 15 -29 -15 -48 -38 -16 -29 14 -29 33 -52 28 -21 30 21 46 52 19 29 rrcurveto
          221 hmoveto
          -19 29 -34 38 -24 15 -29 -15 -48 -38 -16 -29 14 -29 33 -52 28 -21 30 21 46 52 19 29 rrcurveto
          endchar
        </CharString>
        <CharString name="egrave">
          -93 -15 82 402 87 44 -21 hstemhm
          21 160 -119 119 -119 155 99 102 hintmask 11001010
          419 525 rmoveto
          22 -37 -46 9 -46 hhcurveto
          -89 -29 -79 -60 -60 -70 rrcurveto
          -72 71 -31 74 vhcurveto
          -3 vlineto
          hintmask 11010010
          -98 -10 -88 -50 -98 vvcurveto
          -107 109 -41 107 vhcurveto
          86 30 95 78 90 vvcurveto
          19 -10 16 -20 4 vhcurveto
          -19 -24 -34 -19 -31 -10 -2 -7 rcurveline
          10 -11 4 -16 -14 vvcurveto
          -13 -1 -14 -4 -14 vhcurveto
          -10 -13 -20 -3 -18 hhcurveto
          -51 -28 34 52 84 61 36 84 hvcurveto
          5 39 rlineto
          hintmask 11000110
          -80 7 -34 33 81 vvcurveto
          9 1 16 4 8 vhcurveto
          2 8 8 1 8 hhcurveto
          47 34 -36 -33 33 hvcurveto
          9 hlineto
          9 42 18 48 23 35 rrcurveto
          hintmask 00100000
          -122 54 rmoveto
          14 24 -66 44 -85 64 -39 71 rlinecurve
          -16 1 -26 0 -12 -2 -14 -14 -19 -65 -1 -18 rrcurveto
          endchar
        </CharString>
        <CharString name="eight">
          -59 -15 70 432 69 hstemhm
          50 120 103 122 -122 137 hintmask 11101000
          276 556 rmoveto
          -68 -11 -95 -76 -41 -55 -5 -56 43 -48 48 -45 rrcurveto
          -52 -36 -56 -60 -59 vvcurveto
          -85 65 -40 84 vhcurveto
          91 33 89 68 31 91 -4 71 -52 40 -50 38 rrcurveto
          hintmask 11110000
          42 40 49 52 56 vvcurveto
          64 -56 18 -63 vhcurveto
          -106 -420 rmoveto
          32 4 38 16 30 vhcurveto
          44 -40 39 -38 -39 vvcurveto
          -16 -2 -19 -6 -15 vhcurveto
          -10 -11 -17 -4 -16 hhcurveto
          -39 -12 42 39 hvcurveto
          39 316 rmoveto
          9 2 13 5 8 vhcurveto
          4 9 7 1 8 hhcurveto
          29 8 -22 -29 -26 -3 -27 -8 -28 hvcurveto
          -32 27 -25 29 41 vvcurveto
          endchar
        </CharString>
        <CharString name="ellipsis">
          151 6 -21 193 -20 21 -20 hstemhm
          hintmask 11000000
          199 93 rmoveto
          -1 0 1 1 -1 hvcurveto
          -1 3 -2 2 -1 2 -7 10 -8 9 -8 10 -7 8 rcurveline
          -14 16 -16 14 -13 9 rrcurveto
          hintmask 10100000
          -1 -1 0 1 hvcurveto
          -6 -3 -7 -4 -7 -5 -9 -6 rcurveline
          -4 -4 -5 -3 -5 -4 -19 -16 rcurveline
          -4 -3 -3 -3 -3 -4 -11 -10 -9 -12 -5 -9 3 -6 3 -8 4 -7 4 -6 rcurveline
          6 -11 7 -12 8 -11 5 -6 rcurveline
          10 -14 11 -12 11 -9 7 -6 rcurveline
          2 2 19 13 23 24 21 24 rlinecurve
          9 10 8 10 6 9 3 4 3 3 2 4 rrcurveto
          443 5 rmoveto
          -19 30 -36 40 -26 16 -30 -16 -51 -40 -16 -30 14 -31 35 -55 30 -22 31 22 49 55 19 31 rrcurveto
          -220 hmoveto
          -19 30 -36 40 -26 16 -30 -16 -51 -40 -16 -30 14 -31 35 -55 30 -22 31 22 49 55 19 31 rrcurveto
          endchar
        </CharString>
        <CharString name="emdash">
          200 238 57 -57 69 hstemhm
          hintmask 10000000
          702 293 rmoveto
          -8 8 rlineto
          -4 -45 -107 -2 -45 hhcurveto
          hintmask 01000000
          -153 -175 4 8 -123 hvcurveto
          -39 -59 11 -10 rlineto
          645 hlineto
          endchar
        </CharString>
        <CharString name="endash">
          -30 238 57 12 -20 hstemhm
          hintmask 10000000
          472 292 rmoveto
          -8 8 rlineto
          -3 -35 -60 -2 -35 hhcurveto
          hintmask 01000000
          -153 -63 4 8 -72 hvcurveto
          -39 -59 rlineto
          hintmask 10000000
          11 -10 rlineto
          415 hlineto
          endchar
        </CharString>
        <CharString name="equal">
          67 135 64 95 64 9 -20 hstemhm
          hintmask 11000000
          519 196 rmoveto
          -6 6 rlineto
          -2 -26 -33 -1 -26 hhcurveto
          -113 -137 3 6 -113 hvcurveto
          -9 -66 8 -7 rlineto
          446 hlineto
          9 220 rmoveto
          -6 6 rlineto
          -2 -26 -33 -1 -26 hhcurveto
          hintmask 10100000
          -113 -137 3 6 -113 hvcurveto
          -9 -66 rlineto
          hintmask 11000000
          8 -7 rlineto
          446 hlineto
          endchar
        </CharString>
        <CharString name="eth">
          -66 6 -21 508 56 -9 -20 hstemhm
          97 142 135 157 hintmask 11011000
          82 79 rmoveto
          -4 -32 -8 -20 -12 -13 6 -13 rcurveline
          3 12 21 1 13 hhcurveto
          33 50 -7 -6 23 hvcurveto
          26 -7 rlineto
          159 43 130 117 174 vvcurveto
          157 -72 73 -157 vhcurveto
          hintmask 10111000
          -72 -87 -9 -92 hhcurveto
          -1 -19 12 -6 16 -5 12 -3 rlinecurve
          6 -40 1 -48 -40 vvcurveto
          -26 0 -28 -1 -28 vhcurveto
          -53 hlineto
          -7 -16 -15 -21 -13 -12 8 -6 rcurveline
          79 7 -2 -59 -4 -59 -7 -52 rlinecurve
          197 -15 rmoveto
          -12 -13 1 6 -10 hvcurveto
          -3 25 -2 36 25 vvcurveto
          31 1 37 1 37 vhcurveto
          61 6 7 15 9 17 9 14 rlinecurve
          -6 5 -20 -4 -31 -5 -28 -3 rlinecurve
          3 64 4 64 5 52 rrcurveto
          hintmask 11011000
          4 9 14 2 8 hhcurveto
          89 0 -128 -89 -57 -10 -90 -22 -50 hvcurveto
          -12 -15 -28 -3 -20 hhcurveto
          endchar
        </CharString>
        <CharString name="exclam">
          -250 6 -21 hstem
          199 93 rmoveto
          -19 30 -36 40 -26 16 -30 -16 -51 -40 -16 -30 14 -31 35 -55 30 -22 31 22 49 55 19 31 rrcurveto
          -103 145 rmoveto
          46 5 31 141 47 127 60 131 rlinecurve
          -11 23 -19 30 -17 16 -30 2 -60 -18 -31 -14 rrcurveto
          endchar
        </CharString>
        <CharString name="exclamdown">
          -250 505 -20 hstem
          238 419 rmoveto
          -19 30 -36 40 -26 16 -30 -16 -51 -40 -16 -30 14 -31 35 -55 30 -22 31 22 49 55 19 31 rrcurveto
          -75 -167 rmoveto
          -46 -5 -31 -141 -47 -123 -60 -131 rlinecurve
          11 -23 19 -30 17 -16 30 -2 60 18 31 14 rrcurveto
          endchar
        </CharString>
        <CharString name="f">
          -82 6 -21 33 -21 260 61 167 55 13 -20 hstemhm
          88 140 hintmask 10110100
          262 540 rmoveto
          -63 -91 1 8 -63 hvcurveto
          -1 -19 12 -7 16 -6 12 -3 rlinecurve
          3 -39 1 -46 -42 vvcurveto
          -149 -13 -183 -16 -66 vhcurveto
          5 -4 rlineto
          hintmask 01110100
          7 36 70 5 70 hhcurveto
          -7 30 -5 83 42 vvcurveto
          33 0 32 2 37 vhcurveto
          2 9 10 1 11 hhcurveto
          33 36 -4 -5 33 hvcurveto
          2 24 4 34 9 21 -5 5 rcurveline
          -9 -28 -38 -5 -28 hhcurveto
          -15 -15 1 3 -15 hvcurveto
          4 64 5 48 6 47 rrcurveto
          3 12 12 1 14 hhcurveto
          28 31 -5 -11 26 hvcurveto
          3 -21 3 -17 7 -19 rrcurveto
          18 hlineto
          2 40 10 61 27 31 rrcurveto
          hintmask 10101100
          -5 9 rlineto
          hintmask 10110100
          -9 -53 -76 -4 -45 hhcurveto
          endchar
        </CharString>
        <CharString name="five">
          -59 6 -21 286 90 79 100 23 -20 hstemhm
          99 250 -95 156 hintmask 11111000
          247 361 rmoveto
          -31 -28 -3 -8 -29 hvcurveto
          -9 -11 -3 1 16 96 rlineto
          2 18 25 2 28 hhcurveto
          30 41 -3 -9 16 hvcurveto
          10 -17 9 -16 12 -11 18 7 rcurveline
          -13 32 -8 38 33 vvcurveto
          18 3 25 9 15 vhcurveto
          -10 11 rlineto
          -20 -44 -66 -3 -53 hhcurveto
          -19 -42 1 5 -24 hvcurveto
          -9 -14 7 -20 8 -22 -3 -48 rlinecurve
          -13 -175 12 -7 rlineto
          6 22 26 5 22 hhcurveto
          hintmask 11110100
          56 23 -25 -56 -42 -15 -60 -28 -32 hvcurveto
          -33 18 -39 48 36 vvcurveto
          10 1 8 3 9 vhcurveto
          -20 11 -21 -40 -40 -47 -41 -32 rlinecurve
          8 -11 31 -43 61 -33 65 -5 rlinecurve
          96 44 128 98 105 vvcurveto
          92 -73 37 -90 vhcurveto
          endchar
        </CharString>
        <CharString name="four">
          -59 -1 213 -204 -21 151 74 343 -20 hstemhm
          222 135 hintmask 01111000
          393 551 rmoveto
          -7 4 -36 -11 -76 -9 -52 -3 rlinecurve
          -63 -125 -78 -147 -88 -109 4 -13 rcurveline
          212 hlineto
          -3 -41 -5 -34 -6 -28 -19 -6 -28 -10 -17 -11 5 -21 rcurveline
          hintmask 10011000
          8 35 35 4 62 hhcurveto
          59 55 -6 -5 27 hvcurveto
          5 22 -18 7 -20 11 -14 13 rlinecurve
          hintmask 01111000
          -5 33 -1 26 38 vvcurveto
          26 17 -2 -4 27 hvcurveto
          3 21 4 49 9 21 -5 5 rcurveline
          -11 -26 -24 -5 -30 hhcurveto
          3 156 15 125 18 58 rrcurveto
          -169 -109 rmoveto
          6 hlineto
          -15 -229 rlineto
          -27 -38 0 4 -28 hvcurveto
          38 67 38 85 26 73 rrcurveto
          endchar
        </CharString>
        <CharString name="g">
          -8 -200 79 106 81 474 -20 32 -20 hstemhm
          28 157 120 119 hintmask 11101100
          248 -15 rmoveto
          19 13 19 13 19 15 -1 -47 -6 -64 -16 -31 rrcurveto
          -4 -6 -15 -1 -8 hhcurveto
          -22 -20 9 15 -16 hvcurveto
          -9 hlineto
          -16 -26 -34 -30 -28 -15 rrcurveto
          -25 37 -7 25 82 127 92 46 45 vhcurveto
          1 83 5 110 10 80 2 16 4 17 6 15 -10 9 rcurveline
          -53 -23 -76 -8 -58 6 -4 -21 rcurveline
          16 -7 16 -5 19 -5 rrcurveto
          4 -18 2 -19 -18 vvcurveto
          -2 -65 -9 -8 -9 -8 -8 -3 rlinecurve
          -75 -20 87 73 71 17 101 27 66 hvcurveto
          41 47 -21 -26 32 hvcurveto
          17 -14 5 -25 4 -12 6 -18 rlinecurve
          19 hlineto
          2 57 21 84 35 44 -7 13 rcurveline
          -5 -16 -16 -1 -25 hhcurveto
          hintmask 11011100
          -26 -63 2 10 -26 hvcurveto
          -142 -82 -109 -114 -164 vvcurveto
          -133 84 -74 136 vhcurveto
          endchar
        </CharString>
        <CharString name="germandbls">
          298 6 -21 555 -20 32 -20 hstemhm
          48 74 -74 116 92 122 70 74 -74 116 92 122 hintmask 1101011010000000
          171 470 rmoveto
          41 54 -20 -20 29 hvcurveto
          22 -15 4 -18 4 -19 6 -16 rlinecurve
          20 hlineto
          52 15 79 33 43 vhcurveto
          -6 11 rlineto
          -5 -16 -27 -2 -18 hhcurveto
          hintmask 1011011010000000
          -37 -51 4 8 -33 hvcurveto
          -66 -27 -97 -102 -71 -83 208 -24 -80 vvcurveto
          -30 -24 -45 -22 -22 vhcurveto
          -41 16 -47 48 43 vvcurveto
          15 2 9 4 14 vhcurveto
          -23 8 -19 -46 -37 -45 -39 -36 rlinecurve
          14 -23 rlineto
          -59 36 57 -27 68 hhcurveto
          74 53 119 131 91 vvcurveto
          hintmask 1100111010000000
          82 -214 22 80 vvcurveto
          8 2 11 5 7 vhcurveto
          400 hmoveto
          41 54 -20 -20 29 hvcurveto
          22 -15 4 -18 4 -19 6 -16 rlinecurve
          20 hlineto
          52 15 79 33 43 vhcurveto
          -6 11 rlineto
          -5 -16 -27 -2 -18 hhcurveto
          hintmask 1011011010000000
          -37 -51 4 8 -33 hvcurveto
          -66 -27 -97 -102 -71 -83 208 -24 -80 vvcurveto
          -30 -24 -45 -22 -22 vhcurveto
          -41 16 -47 48 43 vvcurveto
          15 2 9 4 14 vhcurveto
          -23 8 -19 -46 -37 -45 -39 -36 rlinecurve
          14 -23 rlineto
          -59 36 57 -27 68 hhcurveto
          74 53 119 131 91 vvcurveto
          hintmask 1101010110000000
          82 -214 22 80 vvcurveto
          8 2 11 5 7 vhcurveto
          endchar
        </CharString>
        <CharString name="grave">
          -231 564 -21 hstem
          224 543 rmoveto
          14 24 -66 44 -85 64 -39 71 rlinecurve
          -16 1 -26 0 -12 -2 -14 -14 -19 -65 -1 -18 rrcurveto
          endchar
        </CharString>
        <CharString name="grave.cap">
          -224 747 -21 hstem
          220 726 rmoveto
          11 25 -70 37 -95 49 -39 69 rlinecurve
          -16 1 -26 0 -12 -2 rrcurveto
          -14 -14 -13 -71 -18 vvcurveto
          endchar
        </CharString>
        <CharString name="greater">
          67 66 -21 414 -20 hstem
          507 286 rmoveto
          -45 14 -50 18 -91 34 -85 32 -85 38 -72 37 -24 -66 rcurveline
          5 -10 349 -129 rlineto
          -4 vlineto
          -349 -128 -5 -10 26 -67 72 36 80 36 88 35 rlinecurve
          75 30 61 21 64 19 rrcurveto
          endchar
        </CharString>
        <CharString name="guillemotleft">
          -24 91 -21 410 -20 hstem
          164 285 rmoveto
          140 179 -23 16 -70 -73 -87 -70 -88 -45 rlinecurve
          -2 -25 80 -52 61 -69 56 -76 rlinecurve
          28 17 rlineto
          96 198 rmoveto
          123 156 -26 19 -70 -73 -67 -50 -88 -45 rlinecurve
          -2 -25 80 -52 48 -50 56 -76 rlinecurve
          31 18 rlineto
          endchar
        </CharString>
        <CharString name="guillemotright">
          -24 91 -21 410 -20 hstem
          321 265 rmoveto
          -140 -179 23 -16 70 73 87 70 88 45 rlinecurve
          2 25 -80 52 -61 69 -56 76 rlinecurve
          -28 -17 rlineto
          -96 -198 rmoveto
          -123 -156 26 -19 70 73 67 50 88 45 rlinecurve
          2 25 -80 52 -48 50 -56 76 rlinecurve
          -31 -18 rlineto
          endchar
        </CharString>
        <CharString name="guilsinglleft">
          -198 91 -21 410 -20 hstem
          164 285 rmoveto
          140 179 -23 16 -70 -73 -87 -70 -88 -45 rlinecurve
          -2 -25 80 -52 61 -69 56 -76 rlinecurve
          28 17 rlineto
          endchar
        </CharString>
        <CharString name="guilsinglright">
          -198 91 -21 410 -20 hstem
          147 265 rmoveto
          -140 -179 23 -16 70 73 87 70 88 45 rlinecurve
          2 25 -80 52 -61 69 -56 76 rlinecurve
          -28 -17 rlineto
          endchar
        </CharString>
        <CharString name="h">
          101 6 -21 34 -21 264 60 218 -20 31 -20 hstemhm
          88 147 146 145 hintmask 10101110
          232 256 rmoveto
          4 25 27 2 25 hhcurveto
          25 22 -2 -4 25 hvcurveto
          -4 -99 -10 -108 -13 -60 5 -4 rcurveline
          hintmask 01101110
          8 39 69 5 68 hhcurveto
          -7 30 -2 86 44 vvcurveto
          114 12 189 19 86 vhcurveto
          -5 4 rlineto
          -8 -36 -73 -5 -69 hhcurveto
          7 -29 3 -82 -42 vvcurveto
          -18 -1 -16 -1 -21 vhcurveto
          -6 -25 -24 -2 -23 hhcurveto
          -25 -25 3 6 -25 hvcurveto
          5 84 8 81 12 51 -5 4 rcurveline
          hintmask 10110110
          -9 -62 -60 -2 -88 hhcurveto
          -1 -19 12 -6 16 -5 12 -3 rlinecurve
          3 -39 1 -48 -42 vvcurveto
          -139 -15 -183 -16 -67 vhcurveto
          5 -4 rlineto
          hintmask 01101110
          8 36 71 5 71 hhcurveto
          -7 30 -6 82 42 vvcurveto
          31 1 42 4 31 vhcurveto
          endchar
        </CharString>
        <CharString name="hbar">
          139 6 -21 34 -21 264 60 86 41 -41 132 11 -20 hstemhm
          104 139 154 145 hintmask 10110111
          248 256 rmoveto
          4 25 27 2 25 hhcurveto
          25 22 -2 -4 25 hvcurveto
          -4 -99 -10 -108 -13 -60 5 -4 rcurveline
          hintmask 01110111
          8 39 69 5 68 hhcurveto
          -7 30 -2 86 44 vvcurveto
          71 5 100 8 86 vhcurveto
          92 2 rlineto
          6 vlineto
          -5 12 -4 16 -3 13 -21 -3 -29 -2 -26 -1 4 35 5 30 5 24 -5 4 rcurveline
          -8 -36 -73 -5 -69 hhcurveto
          4 -17 3 -35 1 -34 -138 -6 rcurveline
          4 39 5 35 7 27 -5 4 rcurveline
          hintmask 10101011
          -9 -62 -60 -2 -88 hhcurveto
          -1 -19 12 -6 16 -5 12 -3 rlinecurve
          1 -21 2 -23 -23 vvcurveto
          -68 -2 -1 -14 -4 -14 -4 -13 rlinecurve
          4 -6 17 3 27 3 30 2 rlinecurve
          -21 vlineto
          -139 -15 -183 -16 -67 vhcurveto
          5 -4 rlineto
          hintmask 01110111
          8 36 71 5 71 hhcurveto
          -7 30 -6 82 42 vvcurveto
          31 1 42 4 31 vhcurveto
          152 129 rmoveto
          -18 -1 -16 -1 -21 vhcurveto
          -6 -25 -24 -2 -23 hhcurveto
          -25 -25 3 6 -25 hvcurveto
          1 25 2 25 2 24 144 6 rcurveline
          endchar
        </CharString>
        <CharString name="hyphen">
          -209 233 65 -51 -21 82 -20 hstemhm
          hintmask 01100000
          276 303 rmoveto
          -8 5 rlineto
          hintmask 10000000
          -7 -59 -74 -3 -59 hhcurveto
          -46 hlineto
          -6 -66 rlineto
          hintmask 01100000
          9 -6 237 15 rlineto
          endchar
        </CharString>
        <CharString name="i">
          -196 6 -21 34 -21 542 -20 31 -20 hstemhm
          88 139 hintmask 10011000
          260 547 rmoveto
          -5 4 rlineto
          hintmask 10101000
          -10 -71 -61 -1 -78 hhcurveto
          -1 -19 12 -6 16 -5 12 -3 rlinecurve
          3 -39 1 -49 -41 vvcurveto
          -139 -15 -183 -16 -67 vhcurveto
          5 -4 rlineto
          hintmask 01011000
          8 36 71 5 71 hhcurveto
          -7 30 -6 82 42 vvcurveto
          139 17 189 16 67 vhcurveto
          endchar
        </CharString>
        <CharString name="iacute">
          -196 6 -21 34 -21 542 -20 31 -20 69 -21 hstemhm
          88 139 hintmask 10010100
          260 547 rmoveto
          -5 4 rlineto
          hintmask 10100100
          -10 -71 -61 -1 -78 hhcurveto
          -1 -19 12 -6 16 -5 12 -3 rlinecurve
          3 -39 1 -49 -41 vvcurveto
          -139 -15 -183 -16 -67 vhcurveto
          5 -4 rlineto
          hintmask 01010100
          8 36 71 5 71 hhcurveto
          -7 30 -6 82 42 vvcurveto
          139 17 189 16 67 vhcurveto
          hintmask 00001000
          96 137 rmoveto
          -1 18 -19 65 -14 14 -12 2 -26 0 -16 -1 -39 -71 -85 -64 -66 -44 14 -24 rcurveline
          endchar
        </CharString>
        <CharString name="icircumflex">
          -196 6 -21 34 -21 542 -20 31 -20 69 -21 203 -20 hstemhm
          88 139 hintmask 00001100
          356 579 rmoveto
          14 24 -66 44 -55 64 -39 71 rlinecurve
          -44 hlineto
          -47 -73 -70 -60 -73 -46 14 -24 rcurveline
          173 80 rlineto
          hintmask 10010010
          97 -112 rmoveto
          -5 4 rlineto
          hintmask 10100010
          -10 -71 -61 -1 -78 hhcurveto
          -1 -19 12 -6 16 -5 12 -3 rlinecurve
          3 -39 1 -49 -41 vvcurveto
          -139 -15 -183 -16 -67 vhcurveto
          5 -4 rlineto
          hintmask 01010010
          8 36 71 5 71 hhcurveto
          -7 30 -6 82 42 vvcurveto
          139 17 189 16 67 vhcurveto
          endchar
        </CharString>
        <CharString name="idieresis">
          -196 6 -21 34 -21 542 -20 31 -20 76 -21 184 -20 hstemhm
          88 139 hintmask 00001100
          151 688 rmoveto
          -19 29 -34 38 -24 15 -29 -15 -48 -38 -16 -29 14 -29 33 -52 28 -21 30 21 46 52 19 29 rrcurveto
          207 hmoveto
          -19 29 -34 38 -24 15 -29 -15 -48 -38 -16 -29 14 -29 33 -52 28 -21 30 21 46 52 19 29 rrcurveto
          hintmask 10010010
          -98 -141 rmoveto
          -5 4 rlineto
          hintmask 10100010
          -10 -71 -61 -1 -78 hhcurveto
          -1 -19 12 -6 16 -5 12 -3 rlinecurve
          3 -39 1 -49 -41 vvcurveto
          -139 -15 -183 -16 -67 vhcurveto
          5 -4 rlineto
          hintmask 01010010
          8 36 71 5 71 hhcurveto
          -7 30 -6 82 42 vvcurveto
          139 17 189 16 67 vhcurveto
          endchar
        </CharString>
        <CharString name="igrave">
          -196 6 -21 34 -21 542 -20 31 -20 69 -21 hstemhm
          88 139 hintmask 10010100
          260 547 rmoveto
          -5 4 rlineto
          hintmask 10100100
          -10 -71 -61 -1 -78 hhcurveto
          -1 -19 12 -6 16 -5 12 -3 rlinecurve
          3 -39 1 -49 -41 vvcurveto
          -139 -15 -183 -16 -67 vhcurveto
          5 -4 rlineto
          hintmask 01010100
          8 36 71 5 71 hhcurveto
          -7 30 -6 82 42 vvcurveto
          139 17 189 16 67 vhcurveto
          hintmask 00001000
          -26 32 rmoveto
          14 24 -66 44 -85 64 -39 71 rlinecurve
          -16 1 -26 0 -12 -2 -14 -14 -19 -65 -1 -18 rrcurveto
          endchar
        </CharString>
        <CharString name="ij">
          125 -180 -21 207 -21 34 -21 542 -20 31 -20 hstemhm
          88 139 178 144 hintmask 01001100
          260 547 rmoveto
          -5 4 rlineto
          hintmask 01010100
          -10 -71 -61 -1 -78 hhcurveto
          -1 -19 12 -6 16 -5 12 -3 rlinecurve
          3 -39 1 -49 -41 vvcurveto
          -139 -15 -183 -16 -67 vhcurveto
          5 -4 rlineto
          hintmask 00101100
          8 36 71 5 71 hhcurveto
          -7 30 -6 82 42 vvcurveto
          139 17 189 16 67 vhcurveto
          hintmask 10001010
          322 hmoveto
          -5 4 rlineto
          hintmask 10010010
          -10 -71 -66 -1 -78 hhcurveto
          -1 -19 12 -6 16 -5 12 -3 rlinecurve
          3 -39 1 -55 -41 vvcurveto
          -83 -6 -99 -4 -82 vhcurveto
          -7 -135 -25 -77 -84 -79 12 -18 rcurveline
          79 41 135 80 61 65 rrcurveto
          -13 51 -4 65 50 vvcurveto
          119 13 187 20 90 vhcurveto
          endchar
        </CharString>
        <CharString name="itilde">
          -196 6 -21 34 -21 542 -20 31 -20 76 101 -53 53 48 -20 hstemhm
          88 139 hintmask 00000110
          9 620 rmoveto
          23 22 26 12 33 hhcurveto
          hintmask 00001010
          50 43 -48 50 hhcurveto
          56 23 49 48 35 48 -24 17 rcurveline
          -24 -23 -28 -11 -32 hhcurveto
          -52 -17 21 27 -41 hvcurveto
          -66 -21 -71 -50 -35 -48 rrcurveto
          hintmask 10010001
          276 -90 rmoveto
          -5 4 rlineto
          hintmask 10100001
          -10 -71 -61 -1 -78 hhcurveto
          -1 -19 12 -6 16 -5 12 -3 rlinecurve
          3 -39 1 -49 -41 vvcurveto
          -139 -15 -183 -16 -67 vhcurveto
          5 -4 rlineto
          hintmask 01010001
          8 36 71 5 71 hhcurveto
          -7 30 -6 82 42 vvcurveto
          139 17 189 16 67 vhcurveto
          endchar
        </CharString>
        <CharString name="j">
          -188 -180 -21 741 -20 31 -20 hstemhm
          92 144 hintmask 10110000
          269 547 rmoveto
          -5 4 rlineto
          hintmask 11010000
          -10 -71 -66 -1 -78 hhcurveto
          -1 -19 12 -6 16 -5 12 -3 rlinecurve
          3 -39 1 -55 -41 vvcurveto
          -83 -6 -99 -4 -82 vhcurveto
          -7 -135 -25 -77 -84 -79 12 -18 rcurveline
          79 41 135 80 61 65 rrcurveto
          -13 51 -4 65 50 vvcurveto
          119 13 187 20 90 vhcurveto
          endchar
        </CharString>
        <CharString name="jcircumflex">
          -188 -180 -21 741 -20 31 -20 69 -21 203 -20 hstemhm
          92 144 hintmask 00011000
          357 579 rmoveto
          14 24 -66 44 -55 64 -39 71 rlinecurve
          -44 hlineto
          -47 -73 -70 -60 -73 -46 14 -24 rcurveline
          173 80 rlineto
          hintmask 10100100
          105 -112 rmoveto
          -5 4 rlineto
          hintmask 11000100
          -10 -71 -66 -1 -78 hhcurveto
          -1 -19 12 -6 16 -5 12 -3 rlinecurve
          3 -39 1 -55 -41 vvcurveto
          -83 -6 -99 -4 -82 vhcurveto
          -7 -135 -25 -77 -84 -79 12 -18 rcurveline
          79 41 135 80 61 65 rrcurveto
          -13 51 -4 65 50 vvcurveto
          119 13 187 20 90 vhcurveto
          endchar
        </CharString>
        <CharString name="k">
          25 6 -21 555 -20 31 -20 hstemhm
          88 142 0 116 hintmask 10110000
          260 547 rmoveto
          -5 4 rlineto
          hintmask 11010000
          -9 -62 -60 -2 -88 hhcurveto
          -1 -19 12 -6 16 -5 12 -3 rlinecurve
          3 -39 1 -48 -42 vvcurveto
          -139 -13 -183 -16 -67 vhcurveto
          5 -4 36 8 79 3 61 2 rlinecurve
          -7 30 -5 82 42 vvcurveto
          74 vlineto
          30 22 54 -102 31 -108 10 -51 rlinecurve
          6 -2 54 8 74 4 54 1 rlinecurve
          -23 31 -45 78 -19 35 -24 44 -35 70 -30 67 68 60 66 80 29 85 rrcurveto
          -6 -48 -77 -2 -53 hhcurveto
          -6 -4 rlineto
          hintmask 10101000
          1 -10 1 -9 -9 vvcurveto
          -62 -22 -57 -41 -47 vhcurveto
          -53 -61 6 111 12 106 12 49 rlinecurve
          endchar
        </CharString>
        <CharString name="kcommaaccent">
          25 -230 -21 217 -20 60 -21 555 -20 31 -20 hstemhm
          88 142 0 116 hintmask 00101100
          260 547 rmoveto
          -5 4 rlineto
          hintmask 00110100
          -9 -62 -60 -2 -88 hhcurveto
          -1 -19 12 -6 16 -5 12 -3 rlinecurve
          3 -39 1 -48 -42 vvcurveto
          -139 -13 -183 -16 -67 vhcurveto
          5 -4 36 8 79 3 61 2 rlinecurve
          -7 30 -5 82 42 vvcurveto
          74 vlineto
          30 22 54 -102 31 -108 10 -51 rlinecurve
          6 -2 54 8 74 4 54 1 rlinecurve
          -23 31 -45 78 -19 35 -24 44 -35 70 -30 67 68 60 66 80 29 85 rrcurveto
          -6 -48 -77 -2 -53 hhcurveto
          -6 -4 rlineto
          hintmask 00101010
          1 -10 1 -9 -9 vvcurveto
          -62 -22 -57 -41 -47 vhcurveto
          -53 -61 6 111 12 106 12 49 rlinecurve
          hintmask 11000000
          108 -651 rmoveto
          -16 24 -29 33 -21 13 -24 -13 -42 -33 -12 -24 8 -21 13 -20 15 -19 -10 -28 -21 -19 -29 -20 13 -20 rcurveline
          68 26 75 50 12 71 rrcurveto
          endchar
        </CharString>
        <CharString name="kgreenlandic">
          7 6 -21 36 -21 505 -20 hstemhm
          75 143 hintmask 10110000
          336 394 rmoveto
          18 -11 46 -24 11 -19 3 -17 3 -16 5 -17 rrcurveto
          18 hlineto
          3 53 40 87 32 41 -6 15 rcurveline
          -25 -76 8 11 -28 hvcurveto
          -75 -49 -69 -116 -20 -87 -16 1 rcurveline
          7 27 6 25 5 28 rrcurveto
          78 12 49 12 31 vhcurveto
          -7 13 rlineto
          -14 -76 -87 -1 -67 hhcurveto
          -18 vlineto
          18 -8 24 -5 19 -4 rrcurveto
          7 -51 2 -99 -59 vvcurveto
          -155 -13 -77 -7 -24 vhcurveto
          6 -5 rlineto
          hintmask 01110000
          11 58 47 4 59 hhcurveto
          -4 21 -4 39 21 vvcurveto
          44 8 57 17 52 vhcurveto
          15 -60 16 -55 15 -43 rrcurveto
          hintmask 10110000
          -62 21 24 -29 66 hhcurveto
          61 44 35 119 18 96 -18 4 rcurveline
          -14 -51 -24 -52 -29 -43 -22 13 -52 130 -20 53 -24 65 rcurveline
          8 11 9 11 9 9 rrcurveto
          endchar
        </CharString>
        <CharString name="l">
          -114 -2 59 -51 -21 555 -20 31 -20 hstemhm
          88 139 hintmask 10011000
          260 547 rmoveto
          -5 4 rlineto
          hintmask 01101000
          -10 -71 -61 -1 -78 hhcurveto
          -1 -19 12 -6 16 -5 12 -3 rlinecurve
          3 -39 1 -49 -41 vvcurveto
          -139 -14 -183 -15 -67 vhcurveto
          5 -4 rlineto
          hintmask 10011000
          8 35 88 5 61 hhcurveto
          43 43 -4 -7 44 hvcurveto
          1 22 8 38 7 21 -5 6 rcurveline
          -12 -32 -40 -5 -33 hhcurveto
          -17 -24 2 2 -10 hvcurveto
          -4 30 -2 36 37 vvcurveto
          139 18 177 15 67 vhcurveto
          endchar
        </CharString>
        <CharString name="ldot">
          -74 -2 59 -51 -21 244 -21 184 -20 168 -20 31 -20 hstemhm
          88 139 hintmask 00110000
          434 310 rmoveto
          -19 29 -34 38 -24 15 -29 -15 -48 -38 -16 -29 14 -29 33 -52 28 -21 30 21 46 52 19 29 rrcurveto
          hintmask 10000110
          -174 237 rmoveto
          -5 4 rlineto
          hintmask 01001010
          -10 -71 -61 -1 -78 hhcurveto
          -1 -19 12 -6 16 -5 12 -3 rlinecurve
          3 -39 1 -49 -41 vvcurveto
          -139 -14 -183 -15 -67 vhcurveto
          5 -4 rlineto
          hintmask 10000110
          8 35 88 5 61 hhcurveto
          43 43 -4 -7 44 hvcurveto
          1 22 8 38 7 21 -5 6 rcurveline
          -12 -32 -40 -5 -33 hhcurveto
          -17 -24 2 2 -10 hvcurveto
          -4 30 -2 36 37 vvcurveto
          139 18 177 15 67 vhcurveto
          endchar
        </CharString>
        <CharString name="less">
          67 66 -21 414 -20 hstem
          55 222 rmoveto
          64 -19 61 -21 75 -30 88 -35 80 -36 72 -36 26 67 rcurveline
          -5 10 -349 128 rlineto
          4 vlineto
          349 129 5 10 -24 66 -72 -37 -85 -38 -85 -32 rlinecurve
          -91 -34 -50 -18 -45 -14 rrcurveto
          endchar
        </CharString>
        <CharString name="logicalnot">
          67 103 -21 146 64 9 -20 hstemhm
          450 67 hintmask 11010000
          517 82 rmoveto
          5 6 rlineto
          -2 53 -3 28 120 vvcurveto
          -6 6 rlineto
          -2 -26 -53 -1 -26 hhcurveto
          hintmask 10110000
          -113 -117 3 6 -113 hvcurveto
          -9 -66 rlineto
          hintmask 11010000
          8 -7 rlineto
          388 -137 hlineto
          endchar
        </CharString>
        <CharString name="lslash">
          -195 -2 59 -51 -21 227 -21 196 -20 173 -20 31 -20 hstemhm
          88 139 hintmask 10110110
          260 547 rmoveto
          -5 4 rlineto
          hintmask 01111010
          -10 -71 -61 -1 -78 hhcurveto
          -1 -19 12 -6 16 -5 12 -3 rlinecurve
          3 -39 1 -49 -41 vvcurveto
          -35 -1 -38 -2 -37 vhcurveto
          -24 -11 -21 -8 -14 -6 rrcurveto
          -15 -5 -20 -5 -13 vhcurveto
          9 -4 58 28 -5 -97 -10 -90 -9 -43 rlinecurve
          5 -4 rlineto
          hintmask 10110110
          8 35 88 5 61 hhcurveto
          43 43 -4 -7 44 hvcurveto
          1 22 8 38 7 21 -5 6 rcurveline
          -12 -32 -40 -5 -33 hhcurveto
          -17 -24 2 2 -10 hvcurveto
          -4 30 -2 36 37 vvcurveto
          40 1 43 3 43 vhcurveto
          106 51 rlineto
          -3 13 -1 17 13 vvcurveto
          -7 3 -92 -48 6 87 11 80 9 41 rlinecurve
          endchar
        </CharString>
        <CharString name="m">
          168 6 -21 34 -21 542 -20 33 -20 hstemhm
          134 100 0 150 84 141 hintmask 01011010
          298 553 rmoveto
          hintmask 01101010
          -13 -77 -76 0 -68 hhcurveto
          -1 -19 12 -6 16 -5 12 -3 rlinecurve
          -10 -117 -64 -292 -35 -108 5 -4 rcurveline
          7 28 54 5 40 hhcurveto
          1 90 6 137 31 185 4 1 rcurveline
          1 vlineto
          31 -121 27 -127 -69 vvcurveto
          -10 -1 -9 -1 -9 vhcurveto
          11 -6 rlineto
          hintmask 10010110
          22 14 73 19 46 8 rrcurveto
          56 2 46 70 213 vhcurveto
          3 hlineto
          7 -57 2 -27 -65 vvcurveto
          -103 -7 -113 -12 -63 vhcurveto
          6 -4 rlineto
          hintmask 01101010
          9 38 83 4 50 hhcurveto
          -9 38 -8 97 94 vvcurveto
          113 4 133 14 75 vhcurveto
          -6 4 rlineto
          -7 -22 -66 -5 -43 hhcurveto
          -29 -34 3 2 -11 hvcurveto
          -5 -8 rlineto
          2 -3 1 -5 -6 vvcurveto
          -9 -2 -9 -3 -11 vhcurveto
          -54 -187 -5 -18 -4 -22 3 -26 rlinecurve
          -6 -2 -17 81 rlineto
          -16 77 -12 87 25 vvcurveto
          12 2 14 3 12 vhcurveto
          endchar
        </CharString>
        <CharString name="macron">
          -148 608 81 -62 -21 92 -20 hstemhm
          hintmask 10000000
          361 685 rmoveto
          -11 9 rlineto
          -3 -44 -42 -2 -43 hhcurveto
          -42 -71 1 4 -43 hvcurveto
          hintmask 01100000
          -37 4 -28 -85 10 -7 323 4 rlineto
          endchar
        </CharString>
        <CharString name="mu">
          53 -198 -21 225 -21 520 -20 hstemhm
          63 96 -96 150 111 138 hintmask 11101100
          186 -15 rmoveto
          86 47 30 114 21 96 17 -2 rcurveline
          -5 -27 -6 -24 -5 -31 rrcurveto
          -99 15 -74 99 vhcurveto
          74 51 29 119 16 89 -16 4 rcurveline
          -16 -52 -21 -66 -34 -43 rrcurveto
          -6 45 -2 65 47 vvcurveto
          155 13 77 7 24 vhcurveto
          -6 5 rlineto
          -11 -58 -47 -4 -59 hhcurveto
          4 -21 4 -39 -21 vvcurveto
          -77 -40 -183 -47 -61 vhcurveto
          -20 6 0 45 24 vvcurveto
          114 7 125 26 98 vhcurveto
          -6 5 -27 -7 -69 -5 -81 -3 rlinecurve
          -4 -3 4 -26 5 -64 -3 -66 rlinecurve
          -4 -188 -4 -211 -5 -76 -10 -68 rlinecurve
          9 -7 40 11 42 6 44 3 rlinecurve
          3 3 rlineto
          hintmask 11110100
          -13 56 -8 67 72 vvcurveto
          8 -7 9 -5 10 -2 rrcurveto
          endchar
        </CharString>
        <CharString name="multiply">
          67 59 -21 404 -20 hstem
          437 441 rmoveto
          -8 -1 -138 -152 -60 63 -51 53 -33 37 rlinecurve
          -8 1 -52 -50 154 -153 -62 -64 -54 -40 -48 -44 rlinecurve
          42 -53 rlineto
          11 hlineto
          156 157 160 -156 11 -1 42 54 -49 43 -54 41 -63 65 rlinecurve
          156 152 rlineto
          endchar
        </CharString>
        <CharString name="n">
          101 6 -21 33 -21 543 -20 33 -20 hstemhm
          91 67 301 65 hintmask 10011100
          283 553 rmoveto
          hintmask 10101100
          -13 -81 -89 0 -68 hhcurveto
          -1 -19 12 -6 15 -5 12 -3 rlinecurve
          4 -29 4 -41 -60 vvcurveto
          -139 -12 -182 -16 -67 vhcurveto
          5 -4 rlineto
          hintmask 01101100
          7 29 47 5 35 hhcurveto
          -6 31 -15 142 223 vvcurveto
          3 1 12 -16 14 -27 10 -22 rlinecurve
          53 -115 71 -132 27 -93 6 -2 rcurveline
          5 32 83 5 68 hhcurveto
          -7 40 -6 72 60 vvcurveto
          143 17 169 16 67 vhcurveto
          -5 4 rlineto
          -7 -28 -49 -5 -34 hhcurveto
          6 -31 12 -131 -223 vvcurveto
          -2 hlineto
          -28 49 -38 66 -48 91 -32 88 rlinecurve
          hintmask 10011100
          -14 38 -9 37 -5 29 rrcurveto
          endchar
        </CharString>
        <CharString name="nacute">
          101 6 -21 33 -21 543 -20 33 -20 67 -21 hstemhm
          91 67 301 65 hintmask 10010110
          283 553 rmoveto
          hintmask 10100110
          -13 -81 -89 0 -68 hhcurveto
          -1 -19 12 -6 15 -5 12 -3 rlinecurve
          4 -29 4 -41 -60 vvcurveto
          -139 -12 -182 -16 -67 vhcurveto
          5 -4 rlineto
          hintmask 01100110
          7 29 47 5 35 hhcurveto
          -6 31 -15 142 223 vvcurveto
          3 1 12 -16 14 -27 10 -22 rlinecurve
          53 -115 71 -132 27 -93 6 -2 rcurveline
          5 32 83 5 68 hhcurveto
          -7 40 -6 72 60 vvcurveto
          143 17 169 16 67 vhcurveto
          -5 4 rlineto
          -7 -28 -49 -5 -34 hhcurveto
          6 -31 12 -131 -223 vvcurveto
          -2 hlineto
          -28 49 -38 66 -48 91 -32 88 rlinecurve
          hintmask 10010110
          -14 38 -9 37 -5 29 rrcurveto
          hintmask 00001000
          240 131 rmoveto
          -1 18 -19 65 -14 14 -12 2 -26 0 -16 -1 -39 -71 -85 -64 -66 -44 14 -24 rcurveline
          endchar
        </CharString>
        <CharString name="nbspace">
          -344 endchar
        </CharString>
        <CharString name="nine">
          -59 2 -21 197 90 222 65 hstem
          30 159 77 161 vstem
          266 359 rmoveto
          -157 -67 -122 -133 -80 vhcurveto
          13 -19 rlineto
          170 66 178 146 181 vvcurveto
          114 -66 67 -113 vhcurveto
          -82 -28 -88 -63 -48 -71 rrcurveto
          -121 33 -94 119 vhcurveto
          16 28 22 31 24 24 rrcurveto
          7 vlineto
          -54 -1 61 73 23 3 34 4 21 hvcurveto
          8 8 11 2 10 hhcurveto
          40 1 -62 -69 hvcurveto
          endchar
        </CharString>
        <CharString name="ntilde">
          101 6 -21 33 -21 543 -20 33 -20 74 101 -53 53 48 -20 hstemhm
          91 67 301 65 hintmask 1001000110000000
          283 553 rmoveto
          hintmask 1010000110000000
          -13 -81 -89 0 -68 hhcurveto
          -1 -19 12 -6 15 -5 12 -3 rlinecurve
          4 -29 4 -41 -60 vvcurveto
          -139 -12 -182 -16 -67 vhcurveto
          5 -4 rlineto
          hintmask 0110000110000000
          7 29 47 5 35 hhcurveto
          -6 31 -15 142 223 vvcurveto
          3 1 12 -16 14 -27 10 -22 rlinecurve
          53 -115 71 -132 27 -93 6 -2 rcurveline
          5 32 83 5 68 hhcurveto
          -7 40 -6 72 60 vvcurveto
          143 17 169 16 67 vhcurveto
          -5 4 rlineto
          -7 -28 -49 -5 -34 hhcurveto
          6 -31 12 -131 -223 vvcurveto
          -2 hlineto
          -28 49 -38 66 -48 91 -32 88 rlinecurve
          hintmask 1001000110000000
          -14 38 -9 37 -5 29 rrcurveto
          hintmask 0000011000000000
          -137 67 rmoveto
          23 22 26 12 33 hhcurveto
          hintmask 0000101000000000
          50 63 -48 50 hhcurveto
          56 23 49 48 35 48 -24 17 rcurveline
          -24 -23 -28 -11 -32 hhcurveto
          -52 -37 21 27 -41 hvcurveto
          -66 -21 -71 -50 -35 -48 rrcurveto
          endchar
        </CharString>
        <CharString name="numbersign">
          63 -75 -21 231 55 128 55 221 -20 hstem
          414 376 rmoveto
          14 75 14 65 20 75 -4 3 rcurveline
          -4 -13 -31 -3 -16 hhcurveto
          -40 -214 -32 1 -32 1 -31 2 rlinecurve
          14 74 14 65 20 75 -4 3 rcurveline
          -4 -13 -31 -3 -16 hhcurveto
          -39 -207 -20 1 -20 2 -19 2 rlinecurve
          -45 4 -29 -62 8 -7 113 -3 -23 -120 -21 1 -21 2 -20 2 rlinecurve
          -45 4 -29 -62 8 -7 117 -3 -15 -77 -14 -54 -18 -74 rlinecurve
          12 -10 26 -11 17 -4 rrcurveto
          5 hlineto
          43 229 94 -2 -14 -75 -14 -55 -18 -72 rlinecurve
          12 -10 26 -11 17 -4 rrcurveto
          5 hlineto
          42 225 103 -3 29 59 -6 5 -38 -1 -39 -1 -38 1 rlinecurve
          23 123 107 -3 29 59 -6 5 -39 -1 -40 -1 -40 1 rlinecurve
          -184 -178 rmoveto
          23 122 95 -2 -24 -124 -31 1 -32 1 -31 2 rlinecurve
          endchar
        </CharString>
        <CharString name="o">
          29 -15 79 412 79 hstem
          28 159 164 159 vstem
          28 197 rmoveto
          -127 91 -85 125 vhcurveto
          152 58 114 141 159 vvcurveto
          136 -80 76 -135 vhcurveto
          -158 -66 -109 -128 -164 vvcurveto
          323 132 rmoveto
          -79 -15 -103 -27 -75 vhcurveto
          -5 -11 -21 -3 -13 hhcurveto
          -62 -15 64 83 79 15 103 27 75 hvcurveto
          5 11 21 3 13 hhcurveto
          62 15 -64 -83 hvcurveto
          endchar
        </CharString>
        <CharString name="oacute">
          29 -15 79 412 79 45 -21 hstemhm
          28 159 164 159 hintmask 11011000
          28 197 rmoveto
          -127 91 -85 125 vhcurveto
          152 58 114 141 159 vvcurveto
          136 -80 76 -135 vhcurveto
          -158 -66 -109 -128 -164 vvcurveto
          323 132 rmoveto
          -79 -15 -103 -27 -75 vhcurveto
          -5 -11 -21 -3 -13 hhcurveto
          -62 -15 64 83 79 15 103 27 75 hvcurveto
          5 11 21 3 13 hhcurveto
          62 15 -64 -83 hvcurveto
          hintmask 00100000
          157 355 rmoveto
          -1 18 -19 65 -14 14 -12 2 -26 0 -16 -1 -39 -71 -85 -64 -66 -44 14 -24 rcurveline
          endchar
        </CharString>
        <CharString name="ocircumflex">
          29 -15 79 412 79 45 -21 203 -20 hstemhm
          28 159 164 159 hintmask 11001100
          28 197 rmoveto
          -127 91 -85 125 vhcurveto
          152 58 114 141 159 vvcurveto
          136 -80 76 -135 vhcurveto
          -158 -66 -109 -128 -164 vvcurveto
          323 132 rmoveto
          -79 -15 -103 -27 -75 vhcurveto
          -5 -11 -21 -3 -13 hhcurveto
          -62 -15 64 83 79 15 103 27 75 hvcurveto
          5 11 21 3 13 hhcurveto
          62 15 -64 -83 hvcurveto
          hintmask 00110000
          147 250 rmoveto
          14 24 -66 44 -65 64 -39 71 rlinecurve
          -44 hlineto
          -47 -73 -80 -60 -73 -46 14 -24 rcurveline
          183 80 rlineto
          endchar
        </CharString>
        <CharString name="odieresis">
          29 -15 79 412 79 52 -21 184 -20 hstemhm
          28 159 164 159 hintmask 11001100
          28 197 rmoveto
          -127 91 -85 125 vhcurveto
          152 58 114 141 159 vvcurveto
          136 -80 76 -135 vhcurveto
          -158 -66 -109 -128 -164 vvcurveto
          323 132 rmoveto
          -79 -15 -103 -27 -75 vhcurveto
          -5 -11 -21 -3 -13 hhcurveto
          -62 -15 64 83 79 15 103 27 75 hvcurveto
          5 11 21 3 13 hhcurveto
          62 15 -64 -83 hvcurveto
          hintmask 00110000
          -75 359 rmoveto
          -19 29 -34 38 -24 15 -29 -15 -48 -38 -16 -29 14 -29 33 -52 28 -21 30 21 46 52 19 29 rrcurveto
          221 hmoveto
          -19 29 -34 38 -24 15 -29 -15 -48 -38 -16 -29 14 -29 33 -52 28 -21 30 21 46 52 19 29 rrcurveto
          endchar
        </CharString>
        <CharString name="oe">
          193 -15 82 183 61 174 55 -55 70 hstemhm
          31 159 149 146 114 102 hintmask 11101110
          31 197 rmoveto
          -127 91 -85 125 vhcurveto
          42 16 39 22 34 27 rrcurveto
          -48 31 58 -17 83 hhcurveto
          86 30 81 72 90 vvcurveto
          19 -10 16 -20 4 vhcurveto
          -19 -24 -34 -19 -31 -10 -2 -7 rcurveline
          10 -11 4 -16 -14 vvcurveto
          -13 -1 -14 -4 -14 vhcurveto
          -5 -9 -18 -2 -10 hhcurveto
          -60 -12 45 60 hvcurveto
          75 vlineto
          2 9 9 1 11 hhcurveto
          33 29 -4 -5 33 hvcurveto
          2 24 4 34 9 21 -5 5 rcurveline
          -9 -28 -31 -5 -28 hhcurveto
          -15 -15 1 3 -15 hvcurveto
          4 64 5 55 6 47 rrcurveto
          3 12 12 1 14 hhcurveto
          28 24 -5 -11 26 hvcurveto
          3 -21 3 -17 7 -19 rrcurveto
          18 hlineto
          2 40 10 61 27 31 -5 9 rcurveline
          -9 -53 -104 -4 -66 hhcurveto
          hintmask 11011110
          -67 -39 15 -56 hhcurveto
          -158 -66 -109 -128 -164 vvcurveto
          281 -125 rmoveto
          -5 -11 -21 -3 -13 hhcurveto
          -62 -15 64 83 79 15 103 27 75 hvcurveto
          5 11 21 3 13 hhcurveto
          25 23 -7 -19 16 hvcurveto
          2 -35 0 -34 -1 -30 -6 -172 rcurveline
          -2 -44 -10 -37 -12 -26 rrcurveto
          endchar
        </CharString>
        <CharString name="ograve">
          29 -15 79 412 79 45 -21 hstemhm
          28 159 164 159 hintmask 11011000
          28 197 rmoveto
          -127 91 -85 125 vhcurveto
          152 58 114 141 159 vvcurveto
          136 -80 76 -135 vhcurveto
          -158 -66 -109 -128 -164 vvcurveto
          323 132 rmoveto
          -79 -15 -103 -27 -75 vhcurveto
          -5 -11 -21 -3 -13 hhcurveto
          -62 -15 64 83 79 15 103 27 75 hvcurveto
          5 11 21 3 13 hhcurveto
          62 15 -64 -83 hvcurveto
          hintmask 00100000
          -5 250 rmoveto
          14 24 -66 44 -85 64 -39 71 rlinecurve
          -16 1 -26 0 -12 -2 -14 -14 -19 -65 -1 -18 rrcurveto
          endchar
        </CharString>
        <CharString name="one">
          -59 -2 -21 578 -20 hstem
          172 139 vstem
          340 555 rmoveto
          -14 -6 -26 -4 -37 -3 -37 -49 -81 -38 -57 -18 6 -31 rcurveline
          22 1 34 3 21 3 rrcurveto
          1 -22 0 -21 -20 vvcurveto
          -116 -11 -128 -12 -74 vhcurveto
          -20 -8 -37 -16 -17 -11 9 -20 rcurveline
          16 50 49 8 78 hhcurveto
          38 53 -6 -3 15 hvcurveto
          7 25 -18 5 -22 11 -16 11 rlinecurve
          -5 23 -2 54 35 vvcurveto
          98 10 201 26 96 vhcurveto
          endchar
        </CharString>
        <CharString name="onehalf">
          291 -27 -21 69 100 586 -20 hstemhm
          100 130 390 129 -129 147 hintmask 11111000
          130 -48 rmoveto
          435 551 63 79 43 56 49 55 rlinecurve
          -5 4 -23 1 -21 3 -22 6 rlinecurve
          -68 -95 -33 -47 -50 -61 -221 -279 rcurveline
          -53 -67 -75 -85 -57 -65 8 -20 7 -23 16 -13 rrcurveto
          107 458 rmoveto
          118 14 91 6 46 vhcurveto
          -2 2 rlineto
          -8 -22 -3 -1 -16 hvcurveto
          -48 -35 -55 -21 -63 -12 rrcurveto
          -1 -3 -1 -19 -4 vvcurveto
          2 -2 rlineto
          60 hlineto
          1 -23 3 -12 -22 vvcurveto
          -120 -11 -56 -4 -28 vhcurveto
          -19 -7 -18 -9 -20 -11 4 -17 rcurveline
          6 29 40 4 62 hhcurveto
          39 49 -5 -6 22 hvcurveto
          5 18 -15 7 -18 16 -12 14 rlinecurve
          -2 23 -1 36 35 vvcurveto
          206 -399 rmoveto
          16 -9 rlineto
          15 18 22 4 28 hhcurveto
          53 118 -11 -12 64 hvcurveto
          7 10 rlineto
          -8 11 -5 37 15 vvcurveto
          48 9 31 10 25 vhcurveto
          -11 6 -14 -16 -15 -20 -11 -17 rlinecurve
          -5 -16 -19 -2 -20 hhcurveto
          -19 -26 2 6 -20 hvcurveto
          hintmask 11110100
          53 46 69 36 48 60 rrcurveto
          102 -48 34 -102 vhcurveto
          -68 -17 -94 -108 -57 vvcurveto
          -13 -2 -9 15 vhcurveto
          14 15 37 20 21 7 rrcurveto
          6 vlineto
          -6 3 -4 12 11 vvcurveto
          9 4 13 2 7 vhcurveto
          4 12 14 2 12 hhcurveto
          33 13 -21 -33 -88 -144 -69 -40 -90 hvcurveto
          endchar
        </CharString>
        <CharString name="onequarter">
          291 -27 -21 61 152 -71 71 542 -20 hstemhm
          100 130 335 131 hintmask 10111100
          130 -48 rmoveto
          435 551 63 79 43 56 49 55 rlinecurve
          -5 4 -23 1 -21 3 -22 6 rlinecurve
          -68 -95 -33 -47 -50 -61 -221 -279 rcurveline
          -53 -67 -75 -85 -57 -65 8 -20 7 -23 16 -13 rrcurveto
          600 461 rmoveto
          -6 3 -45 -15 -65 -11 -47 -2 rlinecurve
          -49 -100 -52 -74 -73 -84 9 -36 rcurveline
          166 hlineto
          -1 -21 -4 -17 -5 -14 -21 -6 -16 -6 -20 -10 4 -17 rcurveline
          hintmask 11011100
          6 29 42 4 45 hhcurveto
          52 50 -5 -6 22 hvcurveto
          5 18 -15 7 -19 12 -12 14 rlinecurve
          hintmask 10111100
          -2 15 -1 14 12 vvcurveto
          20 21 -1 -3 19 hvcurveto
          4 33 7 26 10 28 -13 9 rcurveline
          -16 -19 -24 -6 -23 hhcurveto
          2 128 7 78 18 43 rrcurveto
          -160 -100 rmoveto
          5 hlineto
          -6 -148 rlineto
          -28 -23 1 5 -28 hvcurveto
          36 49 21 37 23 56 rrcurveto
          -333 97 rmoveto
          118 14 91 6 46 vhcurveto
          -2 2 rlineto
          -8 -22 -3 -1 -16 hvcurveto
          -48 -35 -55 -21 -63 -12 rrcurveto
          -1 -3 -1 -19 -4 vvcurveto
          2 -2 rlineto
          60 hlineto
          1 -23 3 -12 -22 vvcurveto
          -120 -11 -56 -4 -28 vhcurveto
          -19 -7 -18 -9 -20 -11 4 -17 rcurveline
          6 29 40 4 62 hhcurveto
          39 49 -5 -6 22 hvcurveto
          5 18 -15 7 -18 16 -12 14 rlinecurve
          -2 23 -1 36 35 vvcurveto
          endchar
        </CharString>
        <CharString name="onesuperior">
          -199 361 -21 406 -20 hstem
          96 130 vstem
          226 489 rmoveto
          118 14 91 6 46 vhcurveto
          -2 2 rlineto
          -8 -22 -3 -1 -16 hvcurveto
          -48 -35 -55 -21 -63 -12 rrcurveto
          -1 -3 -1 -19 -4 vvcurveto
          2 -2 rlineto
          60 hlineto
          1 -23 3 -12 -22 vvcurveto
          -120 -11 -56 -4 -28 vhcurveto
          -19 -7 -18 -9 -20 -11 4 -17 rcurveline
          6 29 40 4 62 hhcurveto
          39 49 -5 -6 22 hvcurveto
          5 18 -15 7 -18 16 -12 14 rlinecurve
          -2 23 -1 36 35 vvcurveto
          endchar
        </CharString>
        <CharString name="ordfeminine">
          -70 280 -21 439 -20 hstem
          38 125 85 110 vstem
          38 397 rmoveto
          -73 40 -65 72 vhcurveto
          61 43 22 89 14 73 13 -2 rcurveline
          -3 -20 -5 -23 -4 -22 rrcurveto
          -79 11 -59 79 vhcurveto
          59 41 23 93 13 73 -13 3 rcurveline
          -13 -42 -16 -53 -27 -35 rrcurveto
          -5 38 -1 55 38 vvcurveto
          75 5 92 22 57 vhcurveto
          -13 4 -11 -15 -13 -22 -10 -16 rlinecurve
          16 -35 -31 11 -38 hhcurveto
          -111 -49 -85 -104 -122 vvcurveto
          125 24 rmoveto
          57 9 69 12 54 vhcurveto
          4 6 9 1 7 hhcurveto
          16 8 -7 -12 10 hvcurveto
          -64 -27 -126 -37 -51 vhcurveto
          -13 9 0 48 18 vvcurveto
          endchar
        </CharString>
        <CharString name="ordmasculine">
          -117 259 64 279 64 hstem
          38 122 70 123 vstem
          230 500 rmoveto
          -48 -8 -79 -11 -46 vhcurveto
          -3 -6 -6 -1 -6 hhcurveto
          -32 -1 55 47 45 8 83 10 45 hvcurveto
          3 6 6 1 6 hhcurveto
          34 0 -60 -42 hvcurveto
          -192 -88 rmoveto
          -91 48 -62 91 vhcurveto
          97 45 79 102 107 vvcurveto
          96 -45 57 -95 vhcurveto
          -95 -47 -80 -100 -107 vvcurveto
          endchar
        </CharString>
        <CharString name="oslash">
          29 -66 -21 93 -21 570 -20 98 -20 hstem
          28 159 164 159 vstem
          28 197 rmoveto
          -86 41 -67 66 -34 vhcurveto
          -30 -65 6 -12 16 -12 12 -8 rlinecurve
          6 hlineto
          29 82 rlineto
          -6 21 24 -4 25 hhcurveto
          152 58 114 141 159 vvcurveto
          102 -46 69 -80 27 vhcurveto
          12 30 15 34 11 24 -4 4 rcurveline
          -15 -6 -17 -2 -15 -1 -8 -26 -6 -25 -8 -23 rrcurveto
          3 -17 -18 2 -19 hhcurveto
          -158 -66 -109 -128 -164 vvcurveto
          323 132 rmoveto
          -79 -15 -103 -27 -75 vhcurveto
          -5 -11 -21 -3 -13 hhcurveto
          -25 -17 10 17 -12 hvcurveto
          129 333 rlineto
          9 -26 3 -33 -36 vvcurveto
          -164 -118 rmoveto
          79 15 103 27 75 vhcurveto
          5 11 21 3 13 hhcurveto
          17 14 -5 -9 10 hvcurveto
          -124 -315 rlineto
          -3 19 -1 22 23 vvcurveto
          endchar
        </CharString>
        <CharString name="otilde">
          29 -15 79 412 79 52 101 -53 53 48 -20 hstemhm
          28 159 164 159 hintmask 11000110
          28 197 rmoveto
          -127 91 -85 125 vhcurveto
          152 58 114 141 159 vvcurveto
          136 -80 76 -135 vhcurveto
          -158 -66 -109 -128 -164 vvcurveto
          323 132 rmoveto
          -79 -15 -103 -27 -75 vhcurveto
          -5 -11 -21 -3 -13 hhcurveto
          -62 -15 64 83 79 15 103 27 75 hvcurveto
          5 11 21 3 13 hhcurveto
          62 15 -64 -83 hvcurveto
          hintmask 00011000
          -220 291 rmoveto
          23 22 26 12 33 hhcurveto
          hintmask 00101000
          50 63 -48 50 hhcurveto
          56 23 49 48 35 48 -24 17 rcurveline
          -24 -23 -28 -11 -32 hhcurveto
          -52 -37 21 27 -41 hvcurveto
          -66 -21 -71 -50 -35 -48 rrcurveto
          endchar
        </CharString>
        <CharString name="p">
          -16 6 -21 259 38 211 56 -9 -20 hstemhm
          90 139 110 161 hintmask 11101100
          303 549 rmoveto
          hintmask 11011100
          -72 -94 -9 -92 hhcurveto
          -1 -19 12 -6 16 -5 12 -3 rlinecurve
          4 -38 2 -49 -42 vvcurveto
          -139 -13 -183 -16 -67 vhcurveto
          5 -4 36 7 79 4 61 1 rlinecurve
          -7 30 -6 83 42 vvcurveto
          112 3 136 13 88 vhcurveto
          hintmask 11101100
          3 12 13 2 13 hhcurveto
          46 10 -50 -46 -79 -31 -36 -56 hvcurveto
          -3 -38 rlineto
          126 125 56 126 107 -90 16 -107 hvcurveto
          endchar
        </CharString>
        <CharString name="paragraph">
          66 -115 82 54 -21 658 -20 39 -20 hstemhm
          272 65 62 83 hintmask 11101100
          382 651 rmoveto
          1 -42 -55 6 -42 hhcurveto
          -120 -102 -41 -120 -123 100 -79 123 12 10 1 2 12 hvcurveto
          -11 -167 -3 -53 -11 -52 -21 -49 rlinecurve
          -6 -13 -25 -4 -16 hhcurveto
          -15 -14 3 9 -10 hvcurveto
          -9 -1 -12 -22 -21 -22 -22 -16 rlinecurve
          -20 16 -13 19 156 60 140 156 11 vhcurveto
          10 144 11 155 11 88 17 78 rlinecurve
          hintmask 11011100
          182 31 rmoveto
          -38 -15 -56 -8 -40 -3 -17 -86 -10 -134 -8 -106 -18 -256 -11 -42 -14 -38 4 -4 rcurveline
          12 45 46 3 46 hhcurveto
          -12 45 -3 78 49 vvcurveto
          261 40 192 53 39 vhcurveto
          endchar
        </CharString>
        <CharString name="parenleft">
          -213 -194 -21 926 -20 hstem
          43 91 vstem
          43 262 rmoveto
          -13 -185 69 -185 118 -107 24 15 rcurveline
          -84 127 -35 171 12 164 11 164 56 142 102 127 -21 16 rcurveline
          -133 -107 -93 -160 -13 -182 rrcurveto
          endchar
        </CharString>
        <CharString name="parenright">
          -213 -194 -21 926 -20 hstem
          162 91 vstem
          253 234 rmoveto
          13 185 -69 185 -118 107 -24 -15 rcurveline
          84 -127 35 -171 -12 -164 -11 -164 -56 -142 -102 -127 21 -16 rcurveline
          133 107 93 160 13 182 rrcurveto
          endchar
        </CharString>
        <CharString name="percent">
          250 -83 -21 110 -21 507 48 30 -20 50 -20 hstem
          165 64 300 64 vstem
          46 390 rmoveto
          -84 10 72 -79 57 hhcurveto
          52 88 63 118 24 hvcurveto
          -6 46 -26 46 -31 31 3 3 rcurveline
          -21 58 58 -21 43 hhcurveto
          27 20 10 20 21 hvcurveto
          4 -1 -33 -51 -34 -44 -35 -50 rlinecurve
          -194 -274 -37 -51 -57 -67 -39 -49 rlinecurve
          9 -15 23 -18 17 -6 rrcurveto
          5 hlineto
          338 481 64 90 66 87 33 43 rlinecurve
          -3 3 -25 -8 -31 -3 -25 -1 rlinecurve
          -7 -10 rlineto
          -35 -24 -28 -3 -43 hhcurveto
          -101 -88 28 2 -59 hvcurveto
          -4 hlineto
          -51 -87 -64 -116 -24 hvcurveto
          364 -242 rmoveto
          -84 10 72 -79 57 hhcurveto
          52 88 63 118 24 hvcurveto
          83 -11 -72 79 -58 hhcurveto
          -51 -87 -64 -116 -24 hvcurveto
          -208 381 rmoveto
          19 -10 8 -51 -59 vvcurveto
          -72 -8 -60 -29 -9 vhcurveto
          -20 10 -7 59 47 vvcurveto
          70 7 66 30 9 vhcurveto
          364 -242 rmoveto
          19 -10 8 -51 -59 vvcurveto
          -72 -8 -60 -29 -9 vhcurveto
          -20 10 -7 59 47 vvcurveto
          70 7 66 30 9 vhcurveto
          endchar
        </CharString>
        <CharString name="period">
          -289 6 -21 194 -20 hstem
          199 93 rmoveto
          -19 30 -36 40 -26 16 -30 -16 -51 -40 -16 -30 14 -31 35 -55 30 -22 31 22 49 55 19 31 rrcurveto
          endchar
        </CharString>
        <CharString name="periodcentered">
          -289 199 -21 194 -20 hstem
          199 286 rmoveto
          -19 30 -36 40 -26 16 -30 -16 -51 -40 -16 -30 14 -31 35 -55 30 -22 31 22 49 55 19 31 rrcurveto
          endchar
        </CharString>
        <CharString name="plus">
          67 2 -21 231 72 211 -20 hstem
          249 71 vstem
          520 278 rmoveto
          -6 6 rlineto
          -2 -26 -33 -1 -26 hhcurveto
          -37 -35 0 1 -37 hvcurveto
          1 vlineto
          114 3 39 2 53 vhcurveto
          -5 6 -71 -9 rlineto
          -203 vlineto
          -62 1 -60 3 -61 3 -9 -71 rcurveline
          8 -7 rlineto
          184 -224 hlineto
          10 -7 70 9 rlineto
          -5 53 -4 66 103 vvcurveto
          191 hlineto
          endchar
        </CharString>
        <CharString name="plusminus">
          67 -10 59 39 246 -72 72 161 -20 hstemhm
          253 71 hintmask 10111000
          524 328 rmoveto
          -6 6 rlineto
          -2 -26 -33 -1 -26 hhcurveto
          -37 -35 0 1 -37 hvcurveto
          1 vlineto
          64 2 39 3 53 vhcurveto
          -5 6 -71 -9 rlineto
          -153 vlineto
          -62 1 -60 3 -61 3 -9 -71 rcurveline
          8 -7 rlineto
          184 hlineto
          hintmask 11011000
          -174 vlineto
          10 -2 70 4 rlineto
          hintmask 10111000
          -5 53 -4 46 73 vvcurveto
          191 hlineto
          1 -216 rmoveto
          -6 6 rlineto
          -2 -26 -43 -1 -26 hhcurveto
          -113 -127 3 6 -113 hvcurveto
          -9 -61 8 -7 rlineto
          446 hlineto
          endchar
        </CharString>
        <CharString name="q">
          29 -167 -21 112 140 412 79 hstem
          28 159 164 159 vstem
          28 197 rmoveto
          -108 67 -78 96 -20 vhcurveto
          -45 -9 -61 -35 -26 -29 12 -14 rcurveline
          14 23 36 6 26 hhcurveto
          71 71 -63 -49 53 hvcurveto
          74 10 214 70 74 vvcurveto
          6 -5 8 -6 5 vhcurveto
          -28 -16 -48 -12 -32 -2 -3 -6 rcurveline
          -25 -8 -34 -25 -60 -84 84 24 -67 vhcurveto
          137 63 100 133 149 vvcurveto
          136 -80 76 -135 vhcurveto
          -158 -66 -109 -128 -164 vvcurveto
          323 132 rmoveto
          -79 -15 -103 -27 -75 vhcurveto
          -5 -11 -21 -3 -13 hhcurveto
          -62 -15 64 83 79 15 103 27 75 hvcurveto
          5 11 21 3 13 hhcurveto
          62 15 -64 -83 hvcurveto
          endchar
        </CharString>
        <CharString name="question">
          -194 6 -21 643 83 hstem
          6 102 75 170 vstem
          86 250 rmoveto
          62 10 12 54 4 54 17 50 rlinecurve
          62 43 66 43 44 58 rrcurveto
          93 -67 56 -93 vhcurveto
          -94 -30 -93 -75 -98 vvcurveto
          -18 7 -12 18 vhcurveto
          23 23 37 22 29 13 2 8 rcurveline
          -6 5 -8 13 15 vvcurveto
          14 3 20 6 12 vhcurveto
          4 10 9 1 10 hhcurveto
          29 8 -20 -29 -64 -42 -66 -50 -39 hvcurveto
          108 -317 rmoveto
          -19 30 -36 50 -26 16 -30 -16 -51 -50 -16 -30 14 -31 35 -55 30 -22 31 22 49 55 19 31 rrcurveto
          endchar
        </CharString>
        <CharString name="questiondown">
          -194 -215 83 638 -20 hstem
          -38 170 75 102 vstem
          229 246 rmoveto
          -62 -10 -12 -54 -4 -54 -17 -50 rlinecurve
          -62 -43 -66 -43 -44 -58 rrcurveto
          -93 67 -56 93 vhcurveto
          94 30 93 75 98 vvcurveto
          18 -7 12 -18 vhcurveto
          -23 -23 -37 -22 -29 -13 -2 -8 rcurveline
          6 -5 8 -13 -15 vvcurveto
          -14 -3 -20 -6 -12 vhcurveto
          -4 -10 -9 -1 -10 hhcurveto
          -29 -8 20 29 64 42 66 50 39 hvcurveto
          70 324 rmoveto
          -19 30 -36 50 -26 16 -30 -16 -51 -50 -16 -30 14 -31 35 -55 30 -22 31 22 49 55 19 31 rrcurveto
          endchar
        </CharString>
        <CharString name="quotedbl">
          -175 392 -21 hstem
          48 371 rmoveto
          38 5 20 85 31 104 49 92 rlinecurve
          -16 17 -23 1 -59 -13 -22 -10 rlinecurve
          130 -281 rmoveto
          38 5 20 85 31 104 49 92 rlinecurve
          -16 17 -23 1 -59 -13 -22 -10 rlinecurve
          endchar
        </CharString>
        <CharString name="quotedblbase">
          -84 -128 -21 328 -20 hstem
          199 93 rmoveto
          -19 30 -36 40 -26 16 -30 -16 -51 -40 -16 -30 11 -26 26 -42 26 -26 -12 -54 -35 -41 -42 -36 15 -17 rcurveline
          91 47 81 94 17 101 rrcurveto
          205 hmoveto
          -19 30 -36 40 -26 16 -30 -16 -51 -40 -16 -30 11 -26 26 -42 26 -26 -12 -54 -35 -41 -42 -36 15 -17 rcurveline
          91 47 81 94 17 101 rrcurveto
          endchar
        </CharString>
        <CharString name="quotedblleft">
          -78 354 -21 348 -20 hstem
          21 419 rmoveto
          19 -30 36 -40 26 -16 30 16 51 40 16 30 -11 26 -26 42 -26 26 11 52 41 60 37 39 -15 17 rcurveline
          -85 -57 -87 -104 -17 -101 rrcurveto
          205 hmoveto
          19 -30 36 -40 26 -16 30 16 51 40 16 30 -11 26 -26 42 -26 26 11 52 41 60 37 39 -15 17 rcurveline
          -85 -57 -87 -104 -17 -101 rrcurveto
          endchar
        </CharString>
        <CharString name="quotedblright">
          -78 354 -21 348 -20 hstem
          410 595 rmoveto
          -19 30 -36 40 -26 16 -30 -16 -51 -40 -16 -30 11 -26 26 -42 26 -26 -11 -52 -41 -60 -37 -39 15 -17 rcurveline
          85 57 87 104 17 101 rrcurveto
          -205 hmoveto
          -19 30 -36 40 -26 16 -30 -16 -51 -40 -16 -30 11 -26 26 -42 26 -26 -11 -52 -41 -60 -37 -39 15 -17 rcurveline
          85 57 87 104 17 101 rrcurveto
          endchar
        </CharString>
        <CharString name="quoteleft">
          -283 354 -21 348 -20 hstem
          21 419 rmoveto
          19 -30 36 -40 26 -16 30 16 51 40 16 30 -11 26 -26 42 -26 26 11 52 41 60 37 39 -15 17 rcurveline
          -85 -57 -87 -104 -17 -101 rrcurveto
          endchar
        </CharString>
        <CharString name="quoteright">
          -283 354 -21 348 -20 hstem
          205 595 rmoveto
          -19 30 -36 40 -26 16 -30 -16 -51 -40 -16 -30 11 -26 26 -42 26 -26 -11 -52 -41 -60 -37 -39 15 -17 rcurveline
          85 57 87 104 17 101 rrcurveto
          endchar
        </CharString>
        <CharString name="quotesinglbase">
          -289 -128 -21 328 -20 hstem
          199 93 rmoveto
          -19 30 -36 40 -26 16 -30 -16 -51 -40 -16 -30 11 -26 26 -42 26 -26 -12 -54 -35 -41 -42 -36 15 -17 rcurveline
          91 47 81 94 17 101 rrcurveto
          endchar
        </CharString>
        <CharString name="quotesingle">
          -323 392 -21 hstem
          48 371 rmoveto
          38 5 20 85 31 104 49 92 rlinecurve
          -16 17 -23 1 -59 -13 -22 -10 rlinecurve
          endchar
        </CharString>
        <CharString name="r">
          42 6 -21 33 -21 496 56 -9 -20 hstemhm
          88 140 110 160 hintmask 10101100
          303 549 rmoveto
          hintmask 10011100
          -72 -94 -9 -92 hhcurveto
          -1 -19 12 -6 16 -5 12 -3 rlinecurve
          4 -39 0 -50 -40 vvcurveto
          -139 -13 -183 -16 -67 vhcurveto
          5 -4 rlineto
          hintmask 01101100
          36 7 79 4 61 1 rrcurveto
          -7 30 -5 83 42 vvcurveto
          112 3 136 12 88 vhcurveto
          3 12 13 2 13 hhcurveto
          46 11 -50 -46 -77 -37 -34 -54 hvcurveto
          -3 -38 rlineto
          23 hlineto
          53 -100 37 -111 11 -50 rrcurveto
          hintmask 10101100
          5 -2 rlineto
          hintmask 01101100
          8 55 73 4 54 hhcurveto
          -23 32 -47 78 -20 35 -20 35 -33 59 -20 40 rrcurveto
          60 30 46 53 67 vvcurveto
          107 -88 16 -107 vhcurveto
          endchar
        </CharString>
        <CharString name="rcaron">
          42 6 -21 33 -21 496 56 -9 -20 80 -21 203 -20 hstemhm
          88 140 110 160 hintmask 10100011
          303 549 rmoveto
          hintmask 10010011
          -72 -94 -9 -92 hhcurveto
          -1 -19 12 -6 16 -5 12 -3 rlinecurve
          4 -39 0 -50 -40 vvcurveto
          -139 -13 -183 -16 -67 vhcurveto
          5 -4 rlineto
          hintmask 01100011
          36 7 79 4 61 1 rrcurveto
          -7 30 -5 83 42 vvcurveto
          112 3 136 12 88 vhcurveto
          3 12 13 2 13 hhcurveto
          46 11 -50 -46 -77 -37 -34 -54 hvcurveto
          -3 -38 rlineto
          23 hlineto
          53 -100 37 -111 11 -50 rrcurveto
          hintmask 10100011
          5 -2 rlineto
          hintmask 01100011
          8 55 73 4 54 hhcurveto
          -23 32 -47 78 -20 35 -20 35 -33 59 -20 40 rrcurveto
          60 30 46 53 67 vvcurveto
          107 -88 16 -107 vhcurveto
          hintmask 00001100
          -199 233 rmoveto
          -14 -24 66 -44 65 -64 39 -71 rlinecurve
          44 hlineto
          47 73 80 60 73 46 -14 24 rcurveline
          -183 -80 rlineto
          endchar
        </CharString>
        <CharString name="rcommaaccent">
          42 -230 -21 217 -20 60 -21 33 -21 496 56 -9 -20 hstemhm
          88 140 110 160 hintmask 00101011
          303 549 rmoveto
          hintmask 00100111
          -72 -94 -9 -92 hhcurveto
          -1 -19 12 -6 16 -5 12 -3 rlinecurve
          4 -39 0 -50 -40 vvcurveto
          -139 -13 -183 -16 -67 vhcurveto
          5 -4 rlineto
          hintmask 00011011
          36 7 79 4 61 1 rrcurveto
          -7 30 -5 83 42 vvcurveto
          112 3 136 12 88 vhcurveto
          3 12 13 2 13 hhcurveto
          46 11 -50 -46 -77 -37 -34 -54 hvcurveto
          -3 -38 rlineto
          23 hlineto
          53 -100 37 -111 11 -50 rrcurveto
          hintmask 00101011
          5 -2 rlineto
          hintmask 00011011
          8 55 73 4 54 hhcurveto
          -23 32 -47 78 -20 35 -20 35 -33 59 -20 40 rrcurveto
          60 30 46 53 67 vvcurveto
          107 -88 16 -107 vhcurveto
          hintmask 11000000
          69 -653 rmoveto
          -16 24 -29 33 -21 13 -24 -13 -42 -33 -12 -24 8 -21 13 -20 15 -19 -10 -28 -21 -19 -29 -20 13 -20 rcurveline
          68 26 75 50 12 71 rrcurveto
          endchar
        </CharString>
        <CharString name="registered">
          -75 304 40 310 42 hstem
          21 42 84 50 43 57 72 44 vstem
          21 492 rmoveto
          -105 82 -83 107 111 92 91 112 106 -83 83 -106 -113 -90 -91 -113 vhcurveto
          42 8 rmoveto
          86 74 68 86 88 58 -68 -86 -86 -72 -70 -86 -88 -60 70 86 vhcurveto
          234 63 rmoveto
          34 -23 11 -43 vhcurveto
          -25 -43 -3 -36 hhcurveto
          -2 -11 6 -3 5 -2 8 -2 rlinecurve
          3 -14 0 -14 -15 vvcurveto
          -51 -5 -65 -5 -23 vhcurveto
          2 -2 rlineto
          3 16 28 1 17 hhcurveto
          -3 12 0 31 16 vvcurveto
          36 2 49 4 33 vhcurveto
          3 5 6 1 6 hhcurveto
          15 5 -11 -19 -27 -11 -11 -22 hvcurveto
          -2 -18 rlineto
          9 hlineto
          19 -39 9 -40 5 -20 2 -1 rcurveline
          14 3 33 3 18 -1 -11 16 -15 24 -8 14 -25 45 rcurveline
          26 7 16 22 28 vvcurveto
          endchar
        </CharString>
        <CharString name="ring">
          -286 543 46 111 46 hstem
          0 65 95 63 vstem
          614 vmoveto
          -49 47 -22 53 vhcurveto
          65 19 58 46 70 vvcurveto
          49 -38 19 -55 vhcurveto
          -67 -19 -63 -46 -67 vvcurveto
          115 -25 rmoveto
          -30 -20 19 30 20 4 16 10 17 hvcurveto
          6 9 12 3 10 hhcurveto
          30 20 -19 -30 -20 -4 -16 -10 -17 hvcurveto
          -6 -9 -12 -3 -10 hhcurveto
          endchar
        </CharString>
        <CharString name="ring.cap">
          -286 701 47 111 45 hstem
          0 65 95 63 vstem
          772 vmoveto
          -49 47 -22 53 vhcurveto
          65 19 58 46 70 vvcurveto
          49 -38 19 -55 vhcurveto
          -67 -19 -63 -46 -67 vvcurveto
          115 -24 rmoveto
          -30 -20 19 30 20 4 16 10 17 hvcurveto
          6 9 12 3 10 hhcurveto
          30 20 -19 -30 -20 -4 -16 -10 -17 hvcurveto
          -6 -9 -12 -3 -10 hhcurveto
          endchar
        </CharString>
        <CharString name="s">
          -102 6 -21 555 -20 32 -20 hstemhm
          48 74 -74 116 92 122 hintmask 11010100
          171 470 rmoveto
          41 54 -20 -20 29 hvcurveto
          22 -15 4 -18 4 -19 6 -16 rlinecurve
          20 hlineto
          52 15 79 33 43 vhcurveto
          -6 11 rlineto
          -5 -16 -27 -2 -18 hhcurveto
          hintmask 10110100
          -37 -51 4 8 -33 hvcurveto
          -66 -27 -97 -102 -71 -83 208 -24 -80 vvcurveto
          -30 -24 -45 -22 -22 vhcurveto
          -41 16 -47 48 43 vvcurveto
          15 2 9 4 14 vhcurveto
          -23 8 -19 -46 -37 -45 -39 -36 rlinecurve
          14 -23 rlineto
          -59 36 57 -27 68 hhcurveto
          74 53 119 131 91 vvcurveto
          hintmask 11001100
          82 -214 22 80 vvcurveto
          8 2 11 5 7 vhcurveto
          endchar
        </CharString>
        <CharString name="section">
          -83 -94 -21 766 -20 35 -20 hstemhm
          10 116 -58 128 34 128 -58 116 hintmask 11001010
          416 309 rmoveto
          100 -220 63 75 vvcurveto
          19 9 22 17 10 vhcurveto
          27 -4 47 -30 17 -13 26 -19 rcurveline
          10 3 14 43 27 42 25 29 rlinecurve
          -10 11 rlineto
          -7 -10 -13 -2 -18 hhcurveto
          hintmask 10101100
          -31 -32 6 9 -28 hvcurveto
          -67 -25 -138 -80 -71 vvcurveto
          -31 22 -27 30 -26 vhcurveto
          hintmask 11010100
          -58 -45 -52 -56 -63 -100 220 -63 -75 vvcurveto
          -19 -9 -22 -17 -10 vhcurveto
          -27 4 -47 30 -17 13 -26 19 rcurveline
          -10 -3 -14 -43 -27 -42 -25 -29 rlinecurve
          10 -11 rlineto
          7 10 13 2 18 hhcurveto
          31 32 -6 -9 28 hvcurveto
          67 25 138 80 71 vvcurveto
          30 -22 28 -30 25 vhcurveto
          hintmask 11010010
          57 46 53 56 63 vvcurveto
          -116 -68 rmoveto
          -28 -9 -24 -17 -20 vhcurveto
          -67 48 -81 42 51 vvcurveto
          28 9 23 17 20 vhcurveto
          66 -47 82 -43 -50 vvcurveto
          endchar
        </CharString>
        <CharString name="semicolon">
          -277 -148 -21 674 -20 hstem
          199 93 rmoveto
          -19 30 -36 40 -26 16 -30 -16 -51 -40 -16 -30 11 -26 26 -42 26 -26 -11 -52 -41 -60 -37 -39 15 -17 rcurveline
          85 57 87 104 17 101 rrcurveto
          12 326 rmoveto
          -19 30 -36 40 -26 16 -30 -16 -51 -40 -16 -30 14 -31 35 -55 30 -22 31 22 49 55 19 31 rrcurveto
          endchar
        </CharString>
        <CharString name="seven">
          -59 8 -21 34 -21 431 109 23 -20 hstemhm
          hintmask 01110000
          119 38 rmoveto
          -15 -12 -18 -12 -18 -7 5 -18 rcurveline
          5 27 44 6 55 hhcurveto
          hintmask 10110000
          45 34 -3 -10 42 hvcurveto
          4 18 -16 11 -20 9 -18 6 rlinecurve
          2 156 40 162 104 190 -10 9 rcurveline
          -7 -33 -44 -1 -38 hhcurveto
          -52 -88 3 20 -44 hvcurveto
          -12 -13 rlineto
          9 -15 3 -26 -19 vvcurveto
          -33 -8 -52 -13 -32 vhcurveto
          18 -9 15 19 7 14 11 22 rlinecurve
          9 17 26 3 38 hhcurveto
          29 33 -3 -3 22 hvcurveto
          -108 -147 -55 -98 -20 -142 rrcurveto
          endchar
        </CharString>
        <CharString name="six">
          -59 -15 65 222 90 197 -20 hstem
          30 161 77 159 vstem
          191 181 rmoveto
          157 67 122 133 80 vhcurveto
          -13 19 rlineto
          -170 -66 -178 -146 -181 vvcurveto
          -114 66 -67 113 vhcurveto
          82 28 88 63 48 71 rrcurveto
          121 -33 94 -119 vhcurveto
          -16 -28 -22 -31 -24 -24 rrcurveto
          -7 vlineto
          54 1 -61 -73 -23 -3 -34 -4 -21 hvcurveto
          -8 -8 -11 -2 -10 hhcurveto
          -40 -1 62 69 hvcurveto
          endchar
        </CharString>
        <CharString name="slash">
          -101 -26 -21 753 -20 hstem
          64 -47 rmoveto
          260 590 31 68 13 26 33 65 rlinecurve
          -5 4 -23 -6 -28 -4 -23 -1 rlinecurve
          -29 -78 -32 -75 -21 -47 -147 -324 rcurveline
          -26 -59 -37 -75 -23 -44 13 -16 18 -16 19 -8 rrcurveto
          endchar
        </CharString>
        <CharString name="space">
          -344 endchar
        </CharString>
        <CharString name="sterling">
          -107 0 -21 29 110 135 40 245 -20 hstem
          205 299 rmoveto
          40 15 80 16 38 vhcurveto
          25 -1 33 -25 14 -20 14 -21 rcurveline
          3 -17 3 -16 5 -17 rrcurveto
          18 hlineto
          3 63 23 69 46 40 -6 15 rcurveline
          -3 -8 -15 -1 -10 hhcurveto
          -37 -32 3 12 -35 hvcurveto
          -86 -51 -105 -98 -24 -100 rrcurveto
          -42 hlineto
          -16 -46 8 -5 45 2 rlineto
          -36 6 -32 -37 vvcurveto
          -46 -19 -59 -33 -33 vhcurveto
          10 -10 rlineto
          15 22 41 6 31 hhcurveto
          75 90 -13 -16 60 hvcurveto
          9 14 rlineto
          -11 16 -3 34 20 vvcurveto
          36 9 51 14 35 vhcurveto
          -16 8 -17 -20 -10 -21 -13 -24 rlinecurve
          -8 -18 -18 -2 -22 hhcurveto
          -37 -33 1 7 -36 hvcurveto
          32 31 23 48 6 44 119 8 rcurveline
          17 41 -8 5 -41 -4 -41 -4 -43 -2 rlinecurve
          endchar
        </CharString>
        <CharString name="t">
          -44 6 -21 484 70 -70 86 28 -20 hstemhm
          175 140 hintmask 11011000
          159 555 rmoveto
          -94 -34 -64 -73 -100 vvcurveto
          -21 12 -21 23 vhcurveto
          13 27 24 37 23 17 rrcurveto
          7 vlineto
          -8 13 -3 15 16 vvcurveto
          6 1 8 2 5 vhcurveto
          18 22 34 4 28 hhcurveto
          2 -35 1 -31 -33 vvcurveto
          -140 -13 -184 -16 -67 vhcurveto
          5 -4 36 8 79 3 61 2 rlinecurve
          -6 30 -6 83 41 vvcurveto
          105 9 124 12 88 vhcurveto
          41 -3 30 -5 17 -5 20 -6 rcurveline
          6 39 10 48 19 39 -14 7 rcurveline
          -12 -10 -12 -15 -13 -13 rrcurveto
          -5 -9 -13 -1 -12 hhcurveto
          hintmask 10111000
          -82 -71 12 4 -82 hvcurveto
          endchar
        </CharString>
        <CharString name="thorn">
          5 6 -21 34 -21 542 -20 31 -20 hstemhm
          88 139 105 161 hintmask 10011100
          260 547 rmoveto
          -5 4 rlineto
          hintmask 10101100
          -10 -71 -61 -1 -78 hhcurveto
          -1 -19 12 -6 16 -5 12 -3 rlinecurve
          3 -39 1 -49 -41 vvcurveto
          -139 -15 -183 -16 -67 vhcurveto
          5 -4 rlineto
          hintmask 01011100
          8 36 71 5 71 hhcurveto
          -7 30 -6 82 42 vvcurveto
          71 4 84 7 74 vhcurveto
          3 12 13 2 13 hhcurveto
          46 10 -50 -46 -79 -31 -36 -56 hvcurveto
          -3 -38 rlineto
          126 125 56 126 107 -90 16 -107 hvcurveto
          -17 -17 -1 -19 hhcurveto
          5 45 6 38 6 23 rrcurveto
          endchar
        </CharString>
        <CharString name="three">
          -59 6 -21 295 67 93 101 23 -20 hstem
          254 157 vstem
          270 437 rmoveto
          -30 -58 -44 -42 -52 -40 7 -22 rcurveline
          3 9 13 2 9 hhcurveto
          53 19 -36 -53 -41 -15 -61 -28 -33 hvcurveto
          -34 18 -38 48 37 vvcurveto
          9 1 8 3 9 vhcurveto
          -20 11 -23 -45 -40 -42 -39 -32 rlinecurve
          8 -11 31 -43 62 -33 64 -5 rlinecurve
          91 45 134 96 101 vvcurveto
          86 -58 34 -87 vhcurveto
          4 vlineto
          59 47 63 68 32 67 -9 14 rcurveline
          -5 -34 -44 -1 -29 hhcurveto
          -52 -102 3 20 -44 hvcurveto
          -10 -11 rlineto
          9 -15 3 -25 -18 vvcurveto
          -33 -9 -48 -13 -33 vhcurveto
          21 -8 15 19 8 14 11 22 rlinecurve
          9 17 28 3 30 hhcurveto
          19 18 -1 -2 17 hvcurveto
          endchar
        </CharString>
        <CharString name="threequarters">
          291 -27 -21 61 152 -71 71 299 57 46 80 60 -20 hstemhm
          202 145 218 131 hintmask 10111111
          165 310 rmoveto
          -36 12 -14 32 37 vvcurveto
          9 2 6 6 11 vhcurveto
          -21 8 -17 -40 -35 -38 -36 -24 rlinecurve
          -40 27 62 -23 48 hhcurveto
          64 23 132 67 86 vvcurveto
          67 -65 18 -67 vhcurveto
          3 vlineto
          47 29 44 40 27 44 -4 15 rcurveline
          -3 -21 -38 -2 -23 hhcurveto
          -64 -64 0 25 -38 hvcurveto
          -9 -10 rlineto
          7 -12 3 -20 -21 vvcurveto
          -31 -7 -33 -9 -21 vhcurveto
          15 -5 10 12 9 18 7 15 rlinecurve
          2 6 11 1 10 hhcurveto
          20 19 -4 -5 20 hvcurveto
          -17 -36 -22 -26 -32 -20 5 -16 rcurveline
          3 9 9 1 8 hhcurveto
          33 16 -23 -33 -33 -9 -46 -28 -19 hvcurveto
          -35 -358 rmoveto
          435 551 63 79 43 56 49 55 rlinecurve
          -5 4 -23 1 -21 3 -22 6 rlinecurve
          -68 -95 -33 -47 -50 -61 -221 -279 rcurveline
          -53 -67 -75 -85 -57 -65 8 -20 7 -23 16 -13 rrcurveto
          600 461 rmoveto
          -6 3 -45 -15 -65 -11 -47 -2 rlinecurve
          -49 -100 -52 -74 -73 -84 9 -36 rcurveline
          166 hlineto
          -1 -21 -4 -17 -5 -14 -21 -6 -16 -6 -20 -10 4 -17 rcurveline
          hintmask 11011111
          6 29 42 4 45 hhcurveto
          52 50 -5 -6 22 hvcurveto
          5 18 -15 7 -19 12 -12 14 rlinecurve
          hintmask 10111111
          -2 15 -1 14 12 vvcurveto
          20 21 -1 -3 19 hvcurveto
          4 33 7 26 10 28 -13 9 rcurveline
          -16 -19 -24 -6 -23 hhcurveto
          2 128 7 78 18 43 rrcurveto
          -160 -100 rmoveto
          5 hlineto
          -6 -148 rlineto
          -28 -23 1 5 -28 hvcurveto
          36 49 21 37 23 56 rrcurveto
          endchar
        </CharString>
        <CharString name="threesuperior">
          -148 361 -21 204 57 46 80 25 -20 hstem
          202 145 vstem
          165 390 rmoveto
          -36 12 -14 32 37 vvcurveto
          9 2 6 6 11 vhcurveto
          -21 8 -17 -40 -35 -38 -36 -24 rlinecurve
          -40 27 62 -23 48 hhcurveto
          64 23 132 67 86 vvcurveto
          67 -65 18 -67 vhcurveto
          3 vlineto
          47 29 44 40 27 44 -4 15 rcurveline
          -3 -21 -38 -2 -23 hhcurveto
          -64 -64 0 25 -38 hvcurveto
          -9 -10 rlineto
          7 -12 3 -20 -21 vvcurveto
          -31 -7 -33 -9 -21 vhcurveto
          15 -5 10 12 9 18 7 15 rlinecurve
          2 6 11 1 10 hhcurveto
          20 19 -4 -5 20 hvcurveto
          -17 -36 -22 -26 -32 -20 5 -16 rcurveline
          3 9 9 1 8 hhcurveto
          33 16 -23 -33 -33 -9 -46 -28 -19 hvcurveto
          endchar
        </CharString>
        <CharString name="tilde">
          -100 571 101 -53 53 48 -20 hstemhm
          hintmask 01100000
          39 584 rmoveto
          23 22 26 12 33 hhcurveto
          hintmask 10100000
          50 63 -48 50 hhcurveto
          56 23 49 48 35 48 -24 17 rcurveline
          -24 -23 -28 -11 -32 hhcurveto
          -52 -37 21 27 -41 hvcurveto
          -66 -21 -71 -50 -35 -48 rrcurveto
          endchar
        </CharString>
        <CharString name="tilde.cap">
          -80 731 101 -53 53 48 -20 hstemhm
          hintmask 01100000
          25 744 rmoveto
          23 22 26 12 33 hhcurveto
          hintmask 10100000
          50 83 -48 50 hhcurveto
          56 23 49 48 35 48 -24 17 rcurveline
          -24 -23 -28 -11 -32 hhcurveto
          -52 -57 21 27 -41 hvcurveto
          -66 -21 -71 -50 -35 -48 rrcurveto
          endchar
        </CharString>
        <CharString name="two">
          -59 0 -21 32 107 351 87 hstemhm
          52 109 83 148 -148 173 hintmask 11111000
          12 -12 rmoveto
          19 28 38 4 48 hhcurveto
          84 102 -13 -19 85 hvcurveto
          10 15 rlineto
          -12 18 -3 38 22 vvcurveto
          hintmask 11110100
          38 9 57 16 39 vhcurveto
          -18 9 -16 -23 -16 -31 -12 -29 rlinecurve
          -11 -20 -27 -3 -34 hhcurveto
          -46 -41 5 8 -36 hvcurveto
          71 75 149 95 46 91 rrcurveto
          102 -64 62 -101 vhcurveto
          -91 -28 -109 -90 -95 vvcurveto
          -20 10 -14 20 vhcurveto
          25 26 34 22 33 12 2 9 rcurveline
          -12 9 -3 19 15 vvcurveto
          13 4 19 6 12 vhcurveto
          3 11 10 1 11 hhcurveto
          35 6 -29 -35 -150 -190 -115 -53 -141 hvcurveto
          endchar
        </CharString>
</ttFont>
